GeoramaSemiCondensed-ExtraLight.ufo
<glyph name="exclam" format="2">
  <advance width="165.564"/>
  <unicode hex="0021"/>
  <outline>
    <contour>
      <point x="65.94200000000001" y="263.55" type="line"/>
      <point x="99.604" y="263.55" type="line"/>
      <point x="101.116" y="740.0" type="line"/>
      <point x="64.646" y="740.0" type="line"/>
    </contour>
    <contour>
      <point x="59.866" y="25.028000000000002" type="curve" smooth="yes"/>
      <point x="59.866" y="3.5020000000000002"/>
      <point x="63.78399999999999" y="-0.9179999999999999"/>
      <point x="82.782" y="-0.9179999999999999" type="curve" smooth="yes"/>
      <point x="102.69" y="-0.9179999999999999"/>
      <point x="105.69800000000001" y="3.5020000000000002"/>
      <point x="105.69800000000001" y="25.028000000000002" type="curve" smooth="yes"/>
      <point x="105.69800000000001" y="46.644"/>
      <point x="102.69" y="51.064"/>
      <point x="82.782" y="51.064" type="curve" smooth="yes"/>
      <point x="62.873999999999995" y="51.064"/>
      <point x="59.866" y="46.644"/>
    </contour>
  </outline>
</glyph>
<glyph name="numbersign" format="2">
  <advance width="419.32800000000003"/>
  <unicode hex="0023"/>
  <outline>
    <contour>
      <point x="60.35600000000001" y="473.606" type="line"/>
      <point x="136.968" y="473.606" type="line"/>
      <point x="99.394" y="223.326" type="line"/>
      <point x="29.502000000000002" y="223.326" type="line"/>
      <point x="29.502000000000002" y="191.126" type="line"/>
      <point x="95.586" y="191.126" type="line"/>
      <point x="67.624" y="0.0" type="line"/>
      <point x="100.40400000000001" y="0.0" type="line"/>
      <point x="128.366" y="191.126" type="line"/>
      <point x="246.60800000000003" y="191.126" type="line"/>
      <point x="218.64600000000004" y="0.0" type="line"/>
      <point x="251.42600000000002" y="0.0" type="line"/>
      <point x="279.38800000000003" y="191.126" type="line"/>
      <point x="358.99" y="191.126" type="line"/>
      <point x="358.99" y="223.326" type="line"/>
      <point x="283.19599999999997" y="223.326" type="line"/>
      <point x="320.77" y="473.606" type="line"/>
      <point x="389.844" y="473.606" type="line"/>
      <point x="389.844" y="505.91400000000004" type="line"/>
      <point x="325.106" y="505.91400000000004" type="line"/>
      <point x="354.214" y="700.0" type="line"/>
      <point x="321.434" y="700.0" type="line"/>
      <point x="292.326" y="505.91400000000004" type="line"/>
      <point x="174.084" y="505.91400000000004" type="line"/>
      <point x="203.19199999999998" y="700.0" type="line"/>
      <point x="170.412" y="700.0" type="line"/>
      <point x="141.304" y="505.91400000000004" type="line"/>
      <point x="60.35600000000001" y="505.91400000000004" type="line"/>
    </contour>
    <contour>
      <point x="169.74800000000002" y="473.606" type="line"/>
      <point x="287.99" y="473.606" type="line"/>
      <point x="250.416" y="223.326" type="line"/>
      <point x="132.17399999999998" y="223.326" type="line"/>
    </contour>
  </outline>
</glyph>
<glyph name="dollar" format="2">
  <advance width="419.32800000000003"/>
  <unicode hex="0024"/>
  <outline>
    <contour>
      <point x="194.39200000000002" y="-10.0" type="curve" smooth="yes"/>
      <point x="302.188" y="-10.216000000000001"/>
      <point x="365.752" y="44.24"/>
      <point x="365.752" y="141.912" type="curve" smooth="yes"/>
      <point x="365.752" y="241.64"/>
      <point x="315.032" y="303.436"/>
      <point x="231.388" y="361.624" type="curve" smooth="yes"/>
      <point x="152.788" y="417.36400000000003"/>
      <point x="104.816" y="475.724"/>
      <point x="104.816" y="560.716" type="curve" smooth="yes"/>
      <point x="104.816" y="632.856"/>
      <point x="149.184" y="676.84"/>
      <point x="225.55599999999998" y="676.84" type="curve" smooth="yes"/>
      <point x="261.356" y="676.84"/>
      <point x="301.392" y="668.568"/>
      <point x="332.56" y="656.9000000000001" type="curve"/>
      <point x="342.75200000000007" y="687.596" type="line"/>
      <point x="309.604" y="701.28"/>
      <point x="262.584" y="710.0"/>
      <point x="221.9" y="710.0" type="curve" smooth="yes"/>
      <point x="125.44800000000001" y="709.636"/>
      <point x="68.488" y="653.148"/>
      <point x="68.488" y="560.1039999999999" type="curve" smooth="yes"/>
      <point x="68.488" y="461.02"/>
      <point x="119.972" y="395.752"/>
      <point x="202.412" y="336.8" type="curve" smooth="yes"/>
      <point x="282.14399999999995" y="279.46799999999996"/>
      <point x="329.7680000000001" y="222.456"/>
      <point x="329.7680000000001" y="138.684" type="curve" smooth="yes"/>
      <point x="329.7680000000001" y="67.07200000000002"/>
      <point x="283.71200000000005" y="23.312"/>
      <point x="198.74800000000002" y="23.312" type="curve" smooth="yes"/>
      <point x="156.232" y="23.312"/>
      <point x="103.408" y="32.872"/>
      <point x="63.07599999999999" y="48.608000000000004" type="curve"/>
      <point x="53.612" y="16.708000000000002" type="line"/>
      <point x="92.97600000000001" y="0.7360000000000005"/>
      <point x="149.768" y="-9.928"/>
    </contour>
    <contour>
      <point x="200.84799999999998" y="-105.0" type="line"/>
      <point x="234.27599999999998" y="-105.0" type="line"/>
      <point x="234.27599999999998" y="1.7799999999999996" type="line"/>
      <point x="200.84799999999998" y="-2.8320000000000003" type="line"/>
    </contour>
    <contour>
      <point x="200.84799999999998" y="700.9879999999999" type="line"/>
      <point x="234.27599999999998" y="703.632" type="line"/>
      <point x="234.27599999999998" y="804.856" type="line"/>
      <point x="200.84799999999998" y="804.856" type="line"/>
    </contour>
  </outline>
</glyph>
<glyph name="ampersand" format="2">
  <advance width="487.88199999999995"/>
  <unicode hex="0026"/>
  <outline>
    <contour>
      <point x="447.35800000000006" y="-13.232000000000001" type="line"/>
      <point x="482.67600000000004" y="-2.073999999999999" type="line"/>
      <point x="165.496" y="405.822" type="line" smooth="yes"/>
      <point x="127.338" y="459.33400000000006"/>
      <point x="113.04199999999999" y="505.814"/>
      <point x="113.04199999999999" y="552.2620000000001" type="curve" smooth="yes"/>
      <point x="113.04199999999999" y="633.798"/>
      <point x="150.32600000000002" y="676.1400000000001"/>
      <point x="220.77800000000002" y="676.1400000000001" type="curve" smooth="yes"/>
      <point x="287.75399999999996" y="676.1400000000001"/>
      <point x="320.89000000000004" y="632.724"/>
      <point x="320.89000000000004" y="558.6159999999999" type="curve" smooth="yes"/>
      <point x="320.89000000000004" y="503.904"/>
      <point x="307.134" y="461.89"/>
      <point x="267.956" y="433.09200000000004" type="curve"/>
      <point x="286.758" y="413.336" type="line"/>
      <point x="335.696" y="449.33600000000007"/>
      <point x="354.66" y="499.99799999999993"/>
      <point x="354.66" y="564.0359999999998" type="curve" smooth="yes"/>
      <point x="354.66" y="657.418"/>
      <point x="308.648" y="710.0"/>
      <point x="220.328" y="710.0" type="curve" smooth="yes"/>
      <point x="125.06" y="710.0"/>
      <point x="76.662" y="655.6440000000001"/>
      <point x="76.662" y="552.442" type="curve" smooth="yes"/>
      <point x="76.662" y="499.558"/>
      <point x="95.096" y="442.77000000000004"/>
      <point x="136.424" y="383.072" type="curve" smooth="yes"/>
    </contour>
    <contour>
      <point x="211.452" y="-10.0" type="curve" smooth="yes"/>
      <point x="285.49399999999997" y="-10.0"/>
      <point x="340.642" y="24.125999999999998"/>
      <point x="376.73799999999994" y="88.098" type="curve"/>
      <point x="358.3" y="115.56400000000001" type="line"/>
      <point x="325.476" y="55.26"/>
      <point x="283.594" y="22.599999999999998"/>
      <point x="213.702" y="22.599999999999998" type="curve" smooth="yes"/>
      <point x="121.34" y="22.599999999999998"/>
      <point x="66.5" y="88.894"/>
      <point x="66.5" y="182.256" type="curve" smooth="yes"/>
      <point x="66.5" y="269.06200000000007"/>
      <point x="95.20800000000001" y="320.806"/>
      <point x="159.216" y="373.84600000000006" type="curve"/>
      <point x="142.43400000000003" y="398.09000000000003" type="line"/>
      <point x="65.90400000000001" y="344.72"/>
      <point x="31.29" y="278.942"/>
      <point x="31.29" y="180.18600000000004" type="curve" smooth="yes"/>
      <point x="31.29" y="67.524"/>
      <point x="97.15400000000001" y="-10.0"/>
    </contour>
    <contour>
      <point x="392.304" y="104.536" type="line"/>
      <point x="420.71200000000005" y="161.832"/>
      <point x="436.7920000000001" y="235.524"/>
      <point x="436.7920000000001" y="315.978" type="curve" smooth="yes"/>
      <point x="436.7920000000001" y="339.28999999999996"/>
      <point x="435.21000000000004" y="356.70799999999997"/>
      <point x="431.39" y="375.454" type="curve"/>
      <point x="399.96999999999997" y="372.068" type="line"/>
      <point x="403.7" y="353.952"/>
      <point x="405.028" y="338.238"/>
      <point x="404.93800000000005" y="317.958" type="curve" smooth="yes"/>
      <point x="404.848" y="245.37399999999997"/>
      <point x="392.806" y="181.758"/>
      <point x="371.32000000000005" y="136.83399999999997" type="curve"/>
    </contour>
  </outline>
</glyph>
<glyph name="quotesingle" format="2">
  <advance width="135.516"/>
  <unicode hex="0027"/>
  <outline>
    <contour>
      <point x="54.72" y="427.0" type="line"/>
      <point x="80.58" y="427.0" type="line"/>
      <point x="85.958" y="700.0" type="line"/>
      <point x="49.558" y="700.0" type="line"/>
    </contour>
  </outline>
</glyph>
<glyph name="parenleft" format="2">
  <advance width="235.508"/>
  <unicode hex="0028"/>
  <outline>
    <contour>
      <point x="67.03" y="265.0" type="curve" smooth="yes"/>
      <point x="67.03" y="-3.812"/>
      <point x="122.632" y="-192.45000000000002"/>
      <point x="224.42000000000002" y="-220.728" type="curve"/>
      <point x="224.42000000000002" y="-184.488" type="line"/>
      <point x="145.33999999999997" y="-150.288"/>
      <point x="101.122" y="11.196000000000002"/>
      <point x="101.122" y="265.0" type="curve" smooth="yes"/>
      <point x="101.122" y="518.804"/>
      <point x="145.33999999999997" y="680.288"/>
      <point x="224.42000000000002" y="714.488" type="curve"/>
      <point x="224.42000000000002" y="750.728" type="line"/>
      <point x="122.632" y="722.4499999999999"/>
      <point x="67.03" y="533.8120000000001"/>
    </contour>
  </outline>
</glyph>
<glyph name="parenright" format="2">
  <advance width="235.508"/>
  <unicode hex="0029"/>
  <outline>
    <contour>
      <point x="11.088000000000001" y="-184.488" type="curve"/>
      <point x="11.088000000000001" y="-220.728" type="line"/>
      <point x="112.876" y="-192.45000000000002"/>
      <point x="168.478" y="-3.812"/>
      <point x="168.478" y="265.0" type="curve" smooth="yes"/>
      <point x="168.478" y="533.8120000000001"/>
      <point x="112.876" y="722.4499999999999"/>
      <point x="11.088000000000001" y="750.728" type="curve"/>
      <point x="11.088000000000001" y="714.488" type="line"/>
      <point x="90.16799999999999" y="680.288"/>
      <point x="134.386" y="518.804"/>
      <point x="134.386" y="265.0" type="curve" smooth="yes"/>
      <point x="134.386" y="11.196000000000002"/>
      <point x="90.16799999999999" y="-150.288"/>
    </contour>
  </outline>
</glyph>
<glyph name="asterisk" format="2">
  <advance width="250.788"/>
  <unicode hex="002A"/>
  <outline>
    <contour>
      <point x="60.814" y="382.238" type="line"/>
      <point x="125.57600000000001" y="483.942" type="line"/>
      <point x="189.61" y="382.056" type="line"/>
      <point x="209.358" y="395.474" type="line"/>
      <point x="145.88600000000002" y="502.132" type="line"/>
      <point x="247.738" y="548.9" type="line"/>
      <point x="239.284" y="570.766" type="line"/>
      <point x="139.024" y="528.122" type="line"/>
      <point x="137.962" y="657.192" type="line"/>
      <point x="113.19000000000001" y="657.192" type="line"/>
      <point x="112.128" y="528.122" type="line"/>
      <point x="11.504" y="570.766" type="line"/>
      <point x="3.0500000000000003" y="548.9" type="line"/>
      <point x="105.266" y="502.132" type="line"/>
      <point x="40.88400000000001" y="395.838" type="line"/>
    </contour>
  </outline>
</glyph>
<glyph name="plus" format="2">
  <advance width="415.596"/>
  <unicode hex="002B"/>
  <outline>
    <contour>
      <point x="190.724" y="78.822" type="line"/>
      <point x="224.854" y="78.822" type="line"/>
      <point x="224.854" y="275.85" type="line"/>
      <point x="371.634" y="275.85" type="line"/>
      <point x="371.634" y="309.26" type="line"/>
      <point x="224.854" y="309.26" type="line"/>
      <point x="224.854" y="506.27" type="line"/>
      <point x="190.724" y="506.27" type="line"/>
      <point x="190.724" y="309.26" type="line"/>
      <point x="43.96200000000001" y="309.26" type="line"/>
      <point x="43.96200000000001" y="275.85" type="line"/>
      <point x="190.724" y="275.85" type="line"/>
    </contour>
  </outline>
</glyph>
<glyph name="comma" format="2">
  <advance width="127.162"/>
  <unicode hex="002C"/>
  <outline>
    <contour>
      <point x="44.766" y="39.837999999999994" type="line"/>
      <point x="52.15" y="18.29"/>
      <point x="56.172000000000004" y="-5.32"/>
      <point x="56.172000000000004" y="-23.214" type="curve" smooth="yes"/>
      <point x="56.172000000000004" y="-83.64"/>
      <point x="36.042" y="-150.50000000000003"/>
      <point x="-9.753999999999998" y="-183.508" type="curve"/>
      <point x="13.318" y="-201.25599999999997" type="line"/>
      <point x="70.59" y="-161.494"/>
      <point x="91.256" y="-82.0"/>
      <point x="91.256" y="-22.616" type="curve" smooth="yes"/>
      <point x="91.256" y="0.7539999999999998"/>
      <point x="87.476" y="24.388"/>
      <point x="79.87400000000001" y="46.662000000000006" type="curve"/>
    </contour>
  </outline>
</glyph>
<glyph name="hyphen" format="2">
  <advance width="243.67600000000002"/>
  <unicode hex="002D"/>
  <outline>
    <contour>
      <point x="24.934" y="253.11" type="line"/>
      <point x="218.74200000000002" y="253.11" type="line"/>
      <point x="218.74200000000002" y="287.58200000000005" type="line"/>
      <point x="24.934" y="287.58200000000005" type="line"/>
    </contour>
  </outline>
</glyph>
<glyph name="period" format="2">
  <advance width="127.45"/>
  <unicode hex="002E"/>
  <outline>
    <contour>
      <point x="40.9" y="25.243999999999996" type="curve" smooth="yes"/>
      <point x="40.9" y="3.718"/>
      <point x="44.818000000000005" y="-0.702"/>
      <point x="63.816" y="-0.702" type="curve" smooth="yes"/>
      <point x="83.72399999999999" y="-0.702"/>
      <point x="86.732" y="3.718"/>
      <point x="86.732" y="25.243999999999996" type="curve" smooth="yes"/>
      <point x="86.732" y="46.86"/>
      <point x="83.72399999999999" y="51.28"/>
      <point x="63.816" y="51.28" type="curve" smooth="yes"/>
      <point x="43.907999999999994" y="51.28"/>
      <point x="40.9" y="46.86"/>
    </contour>
  </outline>
</glyph>
<glyph name="slash" format="2">
  <advance width="258.45399999999995"/>
  <unicode hex="002F"/>
  <outline>
    <contour>
      <point x="2.7359999999999998" y="-210.0" type="line"/>
      <point x="35.35" y="-210.0" type="line"/>
      <point x="255.718" y="740.0" type="line"/>
      <point x="223.032" y="740.0" type="line"/>
    </contour>
  </outline>
</glyph>
<glyph name="zero" format="2">
  <advance width="419.32800000000003"/>
  <unicode hex="0030"/>
  <outline>
    <contour>
      <point x="22.384" y="350.0" type="curve" smooth="yes"/>
      <point x="22.384" y="70.808"/>
      <point x="94.044" y="-10.0"/>
      <point x="209.66400000000002" y="-10.0" type="curve" smooth="yes"/>
      <point x="325.104" y="-10.0"/>
      <point x="396.944" y="71.096"/>
      <point x="396.944" y="350.0" type="curve" smooth="yes"/>
      <point x="396.944" y="629.704"/>
      <point x="326.184" y="710.0"/>
      <point x="209.66400000000002" y="710.0" type="curve" smooth="yes"/>
      <point x="93.828" y="710.0"/>
      <point x="22.384" y="630.28"/>
    </contour>
    <contour>
      <point x="59.016" y="349.06399999999996" type="curve" smooth="yes"/>
      <point x="59.016" y="607.296"/>
      <point x="118.548" y="676.32"/>
      <point x="209.66400000000002" y="676.32" type="curve" smooth="yes"/>
      <point x="300.816" y="676.32"/>
      <point x="360.34799999999996" y="607.368"/>
      <point x="360.34799999999996" y="349.06399999999996" type="curve" smooth="yes"/>
      <point x="360.34799999999996" y="93.86399999999999"/>
      <point x="301.032" y="23.680000000000003"/>
      <point x="209.66400000000002" y="23.680000000000003" type="curve" smooth="yes"/>
      <point x="118.33200000000001" y="23.680000000000003"/>
      <point x="59.016" y="93.79199999999999"/>
    </contour>
  </outline>
</glyph>
<glyph name="one" format="2">
  <advance width="419.32800000000003"/>
  <unicode hex="0031"/>
  <outline>
    <contour>
      <point x="35.626" y="0.0" type="line"/>
      <point x="403.284" y="0.0" type="line"/>
      <point x="403.284" y="33.5" type="line"/>
      <point x="250.50400000000002" y="33.5" type="line"/>
      <point x="250.50400000000002" y="701.82" type="line"/>
      <point x="230.44" y="701.82" type="line"/>
      <point x="22.650000000000002" y="569.6859999999999" type="line"/>
      <point x="36.064" y="539.208" type="line"/>
      <point x="214.088" y="650.784" type="line"/>
      <point x="214.088" y="33.5" type="line"/>
      <point x="35.626" y="33.5" type="line"/>
    </contour>
  </outline>
</glyph>
<glyph name="two" format="2">
  <advance width="419.6"/>
  <unicode hex="0032"/>
  <outline>
    <contour>
      <point x="40.489999999999995" y="28.88" type="curve"/>
      <point x="45.085" y="0.0" type="line"/>
      <point x="388.615" y="0.0" type="line"/>
      <point x="388.615" y="33.59" type="line"/>
      <point x="87.64500000000001" y="33.59" type="line"/>
      <point x="285.815" y="296.455"/>
      <point x="336.53499999999997" y="413.255"/>
      <point x="336.53499999999997" y="523.76" type="curve" smooth="yes"/>
      <point x="336.53499999999997" y="652.5350000000001"/>
      <point x="281.10499999999996" y="710.0"/>
      <point x="188.935" y="710.0" type="curve" smooth="yes"/>
      <point x="135.645" y="710.0"/>
      <point x="86.265" y="693.6450000000001"/>
      <point x="43.24" y="653.5550000000001" type="curve"/>
      <point x="60.01" y="624.625" type="line"/>
      <point x="97.825" y="658.5"/>
      <point x="138.65" y="672.685"/>
      <point x="184.20999999999998" y="672.685" type="curve" smooth="yes"/>
      <point x="255.145" y="672.685"/>
      <point x="299.98499999999996" y="629.6200000000001"/>
      <point x="299.98499999999996" y="521.0" type="curve" smooth="yes"/>
      <point x="299.98499999999996" y="417.775"/>
      <point x="248.255" y="297.715"/>
    </contour>
  </outline>
</glyph>
<glyph name="three" format="2">
  <advance width="419.59999999999997"/>
  <unicode hex="0033"/>
  <outline>
    <contour>
      <point x="14.44" y="43.505" type="line"/>
      <point x="59.59499999999999" y="7.050000000000001"/>
      <point x="107.995" y="-10.0"/>
      <point x="176.38499999999996" y="-10.0" type="curve" smooth="yes"/>
      <point x="299.75999999999993" y="-10.0"/>
      <point x="372.51" y="68.17999999999999"/>
      <point x="372.51" y="201.04" type="curve" smooth="yes"/>
      <point x="372.51" y="290.00999999999993"/>
      <point x="334.555" y="352.105"/>
      <point x="260.91" y="370.22499999999997" type="curve"/>
      <point x="316.59" y="392.71000000000004"/>
      <point x="347.36000000000007" y="452.575"/>
      <point x="347.36000000000007" y="532.775" type="curve" smooth="yes"/>
      <point x="347.36000000000007" y="641.4999999999999"/>
      <point x="292.68" y="710.0"/>
      <point x="180.835" y="710.0" type="curve" smooth="yes"/>
      <point x="127.285" y="710.0"/>
      <point x="75.85499999999999" y="696.1899999999999"/>
      <point x="37.37" y="672.39" type="curve"/>
      <point x="51.785" y="644.62" type="line"/>
      <point x="88.46" y="664.16"/>
      <point x="131.14000000000001" y="674.0699999999999"/>
      <point x="176.73999999999998" y="674.0699999999999" type="curve" smooth="yes"/>
      <point x="268.29" y="674.0699999999999"/>
      <point x="311.16" y="617.53"/>
      <point x="311.16" y="527.375" type="curve" smooth="yes"/>
      <point x="311.16" y="440.995"/>
      <point x="270.46" y="383.45500000000004"/>
      <point x="203.17" y="383.45500000000004" type="curve" smooth="yes"/>
      <point x="110.965" y="383.45500000000004" type="line"/>
      <point x="110.965" y="351.08000000000004" type="line"/>
      <point x="189.8" y="351.08000000000004" type="line" smooth="yes"/>
      <point x="286.4800000000001" y="351.08000000000004"/>
      <point x="335.995" y="302.23"/>
      <point x="335.995" y="202.48" type="curve" smooth="yes"/>
      <point x="335.995" y="90.94500000000001"/>
      <point x="276.05" y="24.939999999999998"/>
      <point x="174.59" y="24.939999999999998" type="curve" smooth="yes"/>
      <point x="113.94" y="24.939999999999998"/>
      <point x="73.125" y="39.355"/>
      <point x="32.125" y="69.915" type="curve"/>
    </contour>
  </outline>
</glyph>
<glyph name="four" format="2">
  <advance width="419.6"/>
  <unicode hex="0034"/>
  <outline>
    <contour>
      <point x="23.78" y="185.29" type="line"/>
      <point x="277.89" y="185.29" type="line"/>
      <point x="277.89" y="0.0" type="line"/>
      <point x="314.63" y="0.0" type="line"/>
      <point x="314.63" y="185.29" type="line"/>
      <point x="404.79" y="185.29" type="line"/>
      <point x="404.79" y="218.60999999999999" type="line"/>
      <point x="314.63" y="218.60999999999999" type="line"/>
      <point x="314.63" y="699.09" type="line"/>
      <point x="282.17" y="704.55" type="line"/>
      <point x="18.0" y="215.88" type="line"/>
    </contour>
    <contour>
      <point x="55.739999999999995" y="218.60999999999999" type="line"/>
      <point x="278.60999999999996" y="626.14" type="line"/>
      <point x="278.60999999999996" y="218.60999999999999" type="line"/>
    </contour>
  </outline>
</glyph>
<glyph name="five" format="2">
  <advance width="419.43600000000004"/>
  <unicode hex="0035"/>
  <outline>
    <contour>
      <point x="30.819999999999997" y="45.90099999999999" type="line"/>
      <point x="72.33999999999999" y="10.1"/>
      <point x="118.34600000000002" y="-9.836000000000002"/>
      <point x="188.304" y="-9.836000000000002" type="curve" smooth="yes"/>
      <point x="313.959" y="-9.836000000000002"/>
      <point x="383.957" y="66.614"/>
      <point x="383.957" y="201.51" type="curve" smooth="yes"/>
      <point x="383.957" y="325.93399999999997"/>
      <point x="331.1960000000001" y="390.201"/>
      <point x="225.40300000000002" y="390.516" type="curve" smooth="yes"/>
      <point x="96.88800000000002" y="390.60600000000005" type="line"/>
      <point x="116.763" y="665.375" type="line"/>
      <point x="355.391" y="665.375" type="line"/>
      <point x="355.391" y="700.0" type="line"/>
      <point x="86.015" y="700.0" type="line"/>
      <point x="60.989999999999995" y="369.186" type="line"/>
      <point x="70.9" y="358.096" type="line"/>
      <point x="212.522" y="358.096" type="line" smooth="yes"/>
      <point x="304.702" y="358.096"/>
      <point x="347.217" y="304.458"/>
      <point x="347.217" y="200.79" type="curve" smooth="yes"/>
      <point x="347.217" y="88.816"/>
      <point x="294.155" y="25.373999999999995"/>
      <point x="186.369" y="25.373999999999995" type="curve" smooth="yes"/>
      <point x="119.703" y="25.373999999999995"/>
      <point x="82.597" y="46.487"/>
      <point x="48.311" y="73.195" type="curve"/>
    </contour>
  </outline>
</glyph>
<glyph name="six" format="2">
  <advance width="419.43600000000004"/>
  <unicode hex="0036"/>
  <outline>
    <contour>
      <point x="219.01100000000002" y="-10.0" type="curve" smooth="yes"/>
      <point x="327.57800000000003" y="-10.0"/>
      <point x="393.375" y="73.65599999999999"/>
      <point x="393.375" y="209.346" type="curve" smooth="yes"/>
      <point x="393.375" y="337.32"/>
      <point x="332.957" y="410.10099999999994"/>
      <point x="232.26299999999998" y="410.10099999999994" type="curve" smooth="yes"/>
      <point x="157.185" y="410.10099999999994"/>
      <point x="83.441" y="365.1479999999999"/>
      <point x="54.794999999999995" y="302.53899999999993" type="curve"/>
      <point x="59.39" y="264.067" type="line"/>
      <point x="88.866" y="334.57700000000006"/>
      <point x="154.51100000000002" y="378.652"/>
      <point x="225.037" y="378.652" type="curve" smooth="yes"/>
      <point x="307.20599999999996" y="378.652"/>
      <point x="357.355" y="316.96899999999994"/>
      <point x="357.355" y="206.703" type="curve" smooth="yes"/>
      <point x="357.355" y="92.804"/>
      <point x="304.016" y="22.142999999999994"/>
      <point x="219.11999999999998" y="22.142999999999994" type="curve" smooth="yes"/>
      <point x="112.25200000000001" y="22.142999999999994"/>
      <point x="62.309" y="106.45400000000001"/>
      <point x="62.309" y="331.536" type="curve" smooth="yes"/>
      <point x="62.309" y="567.2800000000001"/>
      <point x="118.19500000000001" y="676.8670000000001"/>
      <point x="239.115" y="676.8670000000001" type="curve" smooth="yes"/>
      <point x="284.395" y="676.8670000000001"/>
      <point x="319.337" y="664.7190000000002"/>
      <point x="359.55899999999997" y="645.9599999999999" type="curve"/>
      <point x="374.4579999999999" y="674.8490000000002" type="line"/>
      <point x="332.22" y="697.521"/>
      <point x="288.932" y="710.0"/>
      <point x="237.547" y="710.0" type="curve" smooth="yes"/>
      <point x="95.925" y="710.0"/>
      <point x="25.208999999999996" y="602.6279999999999"/>
      <point x="25.208999999999996" y="331.04200000000003" type="curve" smooth="yes"/>
      <point x="25.208999999999996" y="82.858"/>
      <point x="84.58400000000002" y="-10.0"/>
    </contour>
  </outline>
</glyph>
<glyph name="seven" format="2">
  <advance width="419.43600000000004"/>
  <unicode hex="0037"/>
  <outline>
    <contour>
      <point x="150.927" y="0.0" type="curve"/>
      <point x="187.892" y="0.0" type="line"/>
      <point x="188.773" y="138.496"/>
      <point x="212.638" y="249.272"/>
      <point x="259.97200000000004" y="365.86600000000004" type="curve" smooth="yes"/>
      <point x="384.465" y="672.1550000000001" type="line"/>
      <point x="384.465" y="700.0" type="line"/>
      <point x="30.961" y="700.0" type="line"/>
      <point x="30.961" y="664.7450000000001" type="line"/>
      <point x="342.61300000000006" y="664.7450000000001" type="line"/>
      <point x="241.72799999999998" y="418.086" type="line" smooth="yes"/>
      <point x="173.48000000000002" y="250.44099999999997"/>
      <point x="150.927" y="139.698"/>
    </contour>
  </outline>
</glyph>
<glyph name="eight" format="2">
  <advance width="419.6"/>
  <unicode hex="0038"/>
  <outline>
    <contour>
      <point x="237.12500000000003" y="366.815" type="curve"/>
      <point x="262.58000000000004" y="352.595" type="line"/>
      <point x="348.68499999999995" y="402.815"/>
      <point x="380.91499999999996" y="464.85999999999996"/>
      <point x="380.91499999999996" y="543.42" type="curve" smooth="yes"/>
      <point x="380.91499999999996" y="651.74"/>
      <point x="321.71500000000003" y="710.0"/>
      <point x="212.75" y="710.0" type="curve" smooth="yes"/>
      <point x="103.42999999999999" y="710.0"/>
      <point x="39.495000000000005" y="649.42"/>
      <point x="39.495000000000005" y="542.49" type="curve" smooth="yes"/>
      <point x="39.495000000000005" y="304.98"/>
      <point x="363.995" y="401.12000000000006"/>
      <point x="363.995" y="170.075" type="curve" smooth="yes"/>
      <point x="363.995" y="74.73"/>
      <point x="308.725" y="22.69"/>
      <point x="209.655" y="22.69" type="curve" smooth="yes"/>
      <point x="109.96000000000001" y="22.69"/>
      <point x="55.245" y="79.095"/>
      <point x="55.245" y="179.57" type="curve" smooth="yes"/>
      <point x="55.245" y="266.435"/>
      <point x="92.455" y="328.98"/>
      <point x="174.51500000000001" y="370.535" type="curve"/>
      <point x="147.875" y="387.2" type="line"/>
      <point x="56.45" y="336.195"/>
      <point x="19.045" y="266.005"/>
      <point x="19.045" y="175.625" type="curve" smooth="yes"/>
      <point x="19.045" y="57.269999999999996"/>
      <point x="85.74999999999999" y="-10.0"/>
      <point x="207.94" y="-10.0" type="curve" smooth="yes"/>
      <point x="331.57000000000005" y="-10.0"/>
      <point x="400.64500000000004" y="54.585"/>
      <point x="400.64500000000004" y="171.245" type="curve" smooth="yes"/>
      <point x="400.64500000000004" y="426.68"/>
      <point x="74.975" y="332.91499999999996"/>
      <point x="74.975" y="545.4" type="curve" smooth="yes"/>
      <point x="74.975" y="629.145"/>
      <point x="125.47" y="677.635"/>
      <point x="211.895" y="677.635" type="curve" smooth="yes"/>
      <point x="300.08500000000004" y="677.635"/>
      <point x="346.06499999999994" y="631.0149999999999"/>
      <point x="346.06499999999994" y="539.5400000000001" type="curve" smooth="yes"/>
      <point x="346.06499999999994" y="466.73"/>
      <point x="320.135" y="414.06"/>
    </contour>
  </outline>
</glyph>
<glyph name="nine" format="2">
  <advance width="419.43600000000004"/>
  <unicode hex="0039"/>
  <outline>
    <contour>
      <point x="182.43900000000002" y="-10.0" type="curve" smooth="yes"/>
      <point x="324.0610000000001" y="-10.0"/>
      <point x="391.883" y="97.282"/>
      <point x="391.883" y="368.68799999999993" type="curve" smooth="yes"/>
      <point x="391.883" y="616.962"/>
      <point x="333.678" y="710.0"/>
      <point x="205.181" y="710.0" type="curve" smooth="yes"/>
      <point x="93.89999999999999" y="710.0"/>
      <point x="23.717" y="627.328"/>
      <point x="23.717" y="490.818" type="curve" smooth="yes"/>
      <point x="23.717" y="363.48400000000004"/>
      <point x="84.88099999999999" y="289.899"/>
      <point x="185.27900000000002" y="289.899" type="curve" smooth="yes"/>
      <point x="259.817" y="289.899"/>
      <point x="333.471" y="335.894"/>
      <point x="362.29699999999997" y="398.50300000000004" type="curve"/>
      <point x="362.448" y="444.435" type="line"/>
      <point x="330.509" y="364.27200000000005"/>
      <point x="262.491" y="321.34799999999996"/>
      <point x="192.055" y="321.34799999999996" type="curve" smooth="yes"/>
      <point x="112.36200000000001" y="321.34799999999996"/>
      <point x="59.647" y="383.92500000000007"/>
      <point x="59.647" y="493.551" type="curve" smooth="yes"/>
      <point x="59.647" y="608.27"/>
      <point x="117.46200000000002" y="677.8570000000001"/>
      <point x="205.16199999999998" y="677.8570000000001" type="curve" smooth="yes"/>
      <point x="306.01" y="677.8570000000001"/>
      <point x="354.7830000000001" y="593.5459999999999"/>
      <point x="354.7830000000001" y="368.46399999999994" type="curve" smooth="yes"/>
      <point x="354.7830000000001" y="132.72"/>
      <point x="301.701" y="23.133"/>
      <point x="180.871" y="23.133" type="curve" smooth="yes"/>
      <point x="135.501" y="23.133"/>
      <point x="97.75500000000001" y="35.281"/>
      <point x="57.533" y="54.04" type="curve"/>
      <point x="42.63400000000001" y="25.331000000000003" type="line"/>
      <point x="84.87200000000001" y="2.659"/>
      <point x="131.05400000000003" y="-10.0"/>
    </contour>
  </outline>
</glyph>
<glyph name="less" format="2">
  <advance width="415.596"/>
  <unicode hex="003C"/>
  <outline>
    <contour>
      <point x="372.41799999999995" y="85.50399999999999" type="line"/>
      <point x="372.41799999999995" y="121.038" type="line"/>
      <point x="77.978" y="291.906" type="line"/>
      <point x="372.41799999999995" y="463.91999999999996" type="line"/>
      <point x="372.41799999999995" y="497.78" type="line"/>
      <point x="43.178" y="308.512" type="line"/>
      <point x="43.178" y="275.246" type="line"/>
    </contour>
  </outline>
</glyph>
<glyph name="equal" format="2">
  <advance width="414.156"/>
  <unicode hex="003D"/>
  <outline>
    <contour>
      <point x="370.194" y="204.812" type="line"/>
      <point x="43.96200000000001" y="204.812" type="line"/>
      <point x="43.96200000000001" y="171.40200000000002" type="line"/>
      <point x="370.194" y="171.40200000000002" type="line"/>
    </contour>
    <contour>
      <point x="370.194" y="413.774" type="line"/>
      <point x="43.96200000000001" y="413.774" type="line"/>
      <point x="43.96200000000001" y="380.364" type="line"/>
      <point x="370.194" y="380.364" type="line"/>
    </contour>
  </outline>
</glyph>
<glyph name="greater" format="2">
  <advance width="415.596"/>
  <unicode hex="003E"/>
  <outline>
    <contour>
      <point x="372.41799999999995" y="274.51800000000003" type="line"/>
      <point x="372.41799999999995" y="307.784" type="line"/>
      <point x="43.178" y="497.78" type="line"/>
      <point x="43.178" y="462.282" type="line"/>
      <point x="337.618" y="291.178" type="line"/>
      <point x="43.178" y="119.58200000000001" type="line"/>
      <point x="43.178" y="85.50399999999999" type="line"/>
    </contour>
  </outline>
</glyph>
<glyph name="question" format="2">
  <advance width="329.744"/>
  <unicode hex="003F"/>
  <outline>
    <contour>
      <point x="132.704" y="263.00399999999996" type="line"/>
      <point x="166.438" y="263.00399999999996" type="line"/>
      <point x="166.474" y="337.848" type="line"/>
      <point x="262.178" y="407.952"/>
      <point x="309.716" y="457.32"/>
      <point x="309.716" y="568.79" type="curve" smooth="yes"/>
      <point x="309.716" y="696.29"/>
      <point x="234.858" y="749.928"/>
      <point x="155.92" y="749.928" type="curve" smooth="yes"/>
      <point x="103.15400000000001" y="749.928"/>
      <point x="49.12" y="728.1659999999999"/>
      <point x="8.836" y="691.7080000000001" type="curve"/>
      <point x="25.134" y="663.5060000000001" type="line"/>
      <point x="66.53599999999999" y="699.4819999999999"/>
      <point x="111.9" y="714.564"/>
      <point x="152.91400000000002" y="714.564" type="curve" smooth="yes"/>
      <point x="215.684" y="714.564"/>
      <point x="272.06800000000004" y="662.766"/>
      <point x="272.06800000000004" y="567.276" type="curve" smooth="yes"/>
      <point x="272.06800000000004" y="481.326"/>
      <point x="238.664" y="424.776"/>
      <point x="132.29000000000002" y="355.304" type="curve"/>
    </contour>
    <contour>
      <point x="127.21000000000002" y="25.028000000000002" type="curve" smooth="yes"/>
      <point x="127.21000000000002" y="3.5020000000000002"/>
      <point x="132.512" y="-0.9179999999999999"/>
      <point x="150.854" y="-0.9179999999999999" type="curve" smooth="yes"/>
      <point x="169.962" y="-0.9179999999999999"/>
      <point x="173.77" y="3.5020000000000002"/>
      <point x="173.77" y="25.028000000000002" type="curve" smooth="yes"/>
      <point x="173.77" y="46.644"/>
      <point x="169.962" y="51.064"/>
      <point x="150.854" y="51.064" type="curve" smooth="yes"/>
      <point x="130.874" y="51.064"/>
      <point x="127.21000000000002" y="46.644"/>
    </contour>
  </outline>
</glyph>
<glyph name="at" format="2">
  <advance width="563.7959999999999"/>
  <unicode hex="0040"/>
  <outline>
    <contour>
      <point x="287.71200000000005" y="-123.18" type="curve" smooth="yes"/>
      <point x="356.396" y="-123.18"/>
      <point x="417.848" y="-92.36000000000001"/>
      <point x="449.97599999999994" y="-59.2" type="curve"/>
      <point x="436.29600000000005" y="-41.63199999999999" type="line"/>
      <point x="402.368" y="-73.36"/>
      <point x="350.7" y="-97.868"/>
      <point x="288.252" y="-97.868" type="curve" smooth="yes"/>
      <point x="139.72400000000002" y="-97.868"/>
      <point x="60.636" y="-3.132"/>
      <point x="60.636" y="268.224" type="curve" smooth="yes"/>
      <point x="60.636" y="508.32800000000003"/>
      <point x="119.16" y="685.884"/>
      <point x="291.992" y="685.884" type="curve" smooth="yes"/>
      <point x="455.61600000000004" y="685.884"/>
      <point x="504.68000000000006" y="573.232"/>
      <point x="504.68000000000006" y="349.092" type="curve" smooth="yes"/>
      <point x="504.68000000000006" y="209.352"/>
      <point x="486.94" y="87.848"/>
      <point x="437.34000000000003" y="87.848" type="curve" smooth="yes"/>
      <point x="407.62800000000004" y="87.848"/>
      <point x="381.64" y="112.47200000000001"/>
      <point x="388.404" y="249.31199999999998" type="curve" smooth="yes"/>
      <point x="402.412" y="514.448" type="line"/>
      <point x="364.43600000000004" y="528.0160000000001"/>
      <point x="331.376" y="535.992"/>
      <point x="301.53200000000004" y="535.992" type="curve" smooth="yes"/>
      <point x="193.096" y="535.992"/>
      <point x="155.216" y="407.24399999999997"/>
      <point x="155.216" y="268.48400000000004" type="curve" smooth="yes"/>
      <point x="155.216" y="114.496"/>
      <point x="191.08" y="62.012"/>
      <point x="249.312" y="62.012" type="curve" smooth="yes"/>
      <point x="313.428" y="62.012"/>
      <point x="341.88800000000003" y="120.68"/>
      <point x="360.19599999999997" y="213.652" type="curve"/>
      <point x="360.028" y="96.18"/>
      <point x="379.74800000000005" y="58.544000000000004"/>
      <point x="433.71999999999997" y="58.544000000000004" type="curve" smooth="yes"/>
      <point x="507.676" y="58.544000000000004"/>
      <point x="532.004" y="195.084"/>
      <point x="532.004" y="350.388" type="curve" smooth="yes"/>
      <point x="532.004" y="597.932"/>
      <point x="469.748" y="709.8359999999999"/>
      <point x="293.612" y="709.8359999999999" type="curve" smooth="yes"/>
      <point x="101.48" y="709.8359999999999"/>
      <point x="32.464" y="522.72"/>
      <point x="32.464" y="269.16" type="curve" smooth="yes"/>
      <point x="32.464" y="-18.083999999999996"/>
      <point x="122.34800000000001" y="-123.18"/>
    </contour>
    <contour>
      <point x="257.68" y="95.708" type="curve" smooth="yes"/>
      <point x="220.30800000000002" y="95.708"/>
      <point x="191.30800000000002" y="136.792"/>
      <point x="191.30800000000002" y="268.448" type="curve" smooth="yes"/>
      <point x="191.30800000000002" y="382.53200000000004"/>
      <point x="222.588" y="506.568"/>
      <point x="300.28000000000003" y="506.568" type="curve" smooth="yes"/>
      <point x="319.14400000000006" y="506.568"/>
      <point x="343.308" y="501.42"/>
      <point x="367.54400000000004" y="492.56" type="curve"/>
      <point x="361.72" y="403.53999999999996" type="line" smooth="yes"/>
      <point x="341.384" y="135.08800000000002"/>
      <point x="307.736" y="95.708"/>
    </contour>
  </outline>
</glyph>
<glyph name="A" format="2">
  <advance width="431.964"/>
  <unicode hex="0041"/>
  <anchor x="415.368" y="0.0" name="ogonek"/>
  <anchor x="216.332" y="0.0" name="bottom"/>
  <anchor x="216.656" y="700.0" name="top"/>
  <outline>
    <contour>
      <point x="16.631999999999998" y="0.0" type="line"/>
      <point x="54.06" y="0.0" type="line"/>
      <point x="106.936" y="209.464" type="line"/>
      <point x="324.636" y="209.464" type="line"/>
      <point x="377.12799999999993" y="0.0" type="line"/>
      <point x="415.368" y="0.0" type="line"/>
      <point x="235.10400000000004" y="709.1" type="line"/>
      <point x="197.628" y="709.1" type="line"/>
    </contour>
    <contour>
      <point x="114.24" y="244.232" type="line"/>
      <point x="216.04000000000002" y="650.568" type="line"/>
      <point x="317.496" y="244.232" type="line"/>
    </contour>
  </outline>
</glyph>
<glyph name="B" format="2">
  <advance width="436.78000000000003"/>
  <unicode hex="0042"/>
  <anchor x="212.48" y="700.0" name="top"/>
  <anchor x="212.48" y="0.0" name="bottom"/>
  <outline>
    <contour>
      <point x="60.090999999999994" y="-2.9809999999999994" type="line"/>
      <point x="126.22" y="-8.537"/>
      <point x="158.66799999999998" y="-10.0"/>
      <point x="209.184" y="-10.0" type="curve" smooth="yes"/>
      <point x="349.272" y="-10.0"/>
      <point x="408.57699999999994" y="50.56900000000001"/>
      <point x="408.57699999999994" y="186.19199999999998" type="curve" smooth="yes"/>
      <point x="408.57699999999994" y="280.54299999999995"/>
      <point x="364.654" y="344.887"/>
      <point x="290.53799999999995" y="362.74500000000006" type="curve"/>
      <point x="290.53799999999995" y="364.044" type="line"/>
      <point x="346.92400000000004" y="385.542"/>
      <point x="382.96299999999997" y="452.36899999999997"/>
      <point x="382.96299999999997" y="535.524" type="curve" smooth="yes"/>
      <point x="382.96299999999997" y="657.0"/>
      <point x="331.07300000000004" y="710.0"/>
      <point x="205.38" y="710.0" type="curve" smooth="yes"/>
      <point x="165.62199999999999" y="710.0"/>
      <point x="125.019" y="707.357"/>
      <point x="60.090999999999994" y="701.4890000000001" type="curve"/>
    </contour>
    <contour>
      <point x="96.831" y="372.74399999999997" type="line"/>
      <point x="96.831" y="671.481" type="line"/>
      <point x="149.038" y="676.1370000000001"/>
      <point x="162.31799999999998" y="677.1370000000001"/>
      <point x="202.27700000000002" y="677.1370000000001" type="curve" smooth="yes"/>
      <point x="304.813" y="677.1370000000001"/>
      <point x="347.8879999999999" y="630.599"/>
      <point x="347.8879999999999" y="529.719" type="curve" smooth="yes"/>
      <point x="347.8879999999999" y="439.241"/>
      <point x="301.964" y="372.74399999999997"/>
      <point x="230.68900000000002" y="372.74399999999997" type="curve" smooth="yes"/>
    </contour>
    <contour>
      <point x="96.831" y="28.593" type="curve"/>
      <point x="96.831" y="340.189" type="line"/>
      <point x="234.715" y="340.189" type="line" smooth="yes"/>
      <point x="322.22799999999995" y="340.189"/>
      <point x="371.702" y="281.271"/>
      <point x="371.702" y="187.24" type="curve" smooth="yes"/>
      <point x="371.702" y="70.578"/>
      <point x="325.241" y="23.354999999999997"/>
      <point x="205.901" y="23.354999999999997" type="curve" smooth="yes"/>
      <point x="177.98399999999998" y="23.354999999999997"/>
      <point x="156.106" y="24.772999999999996"/>
    </contour>
  </outline>
</glyph>
<glyph name="C" format="2">
  <advance width="414.398"/>
  <unicode hex="0043"/>
  <anchor x="244.086" y="700.0" name="top"/>
  <anchor x="243.646" y="0.0" name="bottom"/>
  <outline>
    <contour>
      <point x="38.42400000000001" y="337.02799999999996" type="curve" smooth="yes"/>
      <point x="38.42400000000001" y="67.834"/>
      <point x="117.89" y="-10.0"/>
      <point x="251.63" y="-10.0" type="curve" smooth="yes"/>
      <point x="299.318" y="-10.0"/>
      <point x="353.224" y="-3.9879999999999995"/>
      <point x="392.71999999999997" y="8.786" type="curve"/>
      <point x="385.548" y="41.9" type="line"/>
      <point x="350.242" y="30.699999999999996"/>
      <point x="295.39799999999997" y="23.574"/>
      <point x="255.724" y="23.574" type="curve" smooth="yes"/>
      <point x="142.204" y="23.574"/>
      <point x="75.28999999999999" y="96.81"/>
      <point x="75.28999999999999" y="336.866" type="curve" smooth="yes"/>
      <point x="75.28999999999999" y="599.8820000000001"/>
      <point x="144.242" y="675.6800000000001"/>
      <point x="262.35" y="675.6800000000001" type="curve" smooth="yes"/>
      <point x="302.098" y="675.6800000000001"/>
      <point x="334.29400000000004" y="671.664"/>
      <point x="372.61400000000003" y="660.738" type="curve"/>
      <point x="380.25399999999996" y="693.1600000000001" type="line"/>
      <point x="340.17199999999997" y="705.5520000000001"/>
      <point x="303.702" y="710.0"/>
      <point x="259.40799999999996" y="710.0" type="curve" smooth="yes"/>
      <point x="114.518" y="710.0"/>
      <point x="38.42400000000001" y="612.0060000000001"/>
    </contour>
  </outline>
</glyph>
<glyph name="D" format="2">
  <advance width="470.5299999999999"/>
  <unicode hex="0044"/>
  <anchor x="223.374" y="700.0" name="top"/>
  <outline>
    <contour>
      <point x="206.28400000000002" y="-10.0" type="curve" smooth="yes"/>
      <point x="360.65199999999993" y="-10.0"/>
      <point x="432.07899999999995" y="94.151"/>
      <point x="432.07899999999995" y="348.77799999999996" type="curve" smooth="yes"/>
      <point x="432.07899999999995" y="606.8040000000001"/>
      <point x="365.716" y="710.0"/>
      <point x="203.001" y="710.0" type="curve" smooth="yes"/>
      <point x="158.845" y="710.0"/>
      <point x="113.40200000000002" y="707.7009999999999"/>
      <point x="60.090999999999994" y="702.714" type="curve"/>
      <point x="60.090999999999994" y="-4.385999999999999" type="line"/>
      <point x="107.608" y="-7.82"/>
      <point x="160.26000000000002" y="-10.0"/>
    </contour>
    <contour>
      <point x="197.852" y="22.593" type="curve" smooth="yes"/>
      <point x="173.508" y="22.593"/>
      <point x="127.36200000000002" y="24.339"/>
      <point x="96.786" y="26.875999999999998" type="curve"/>
      <point x="96.786" y="672.288" type="line"/>
      <point x="130.044" y="674.9440000000002"/>
      <point x="171.54" y="676.5260000000001"/>
      <point x="196.225" y="676.5260000000001" type="curve" smooth="yes"/>
      <point x="337.38599999999997" y="676.5260000000001"/>
      <point x="393.844" y="592.984"/>
      <point x="393.844" y="348.672" type="curve" smooth="yes"/>
      <point x="393.844" y="108.36300000000001"/>
      <point x="335.55" y="22.593"/>
    </contour>
  </outline>
</glyph>
<glyph name="E" format="2">
  <advance width="392.485"/>
  <unicode hex="0045"/>
  <anchor x="373.11199999999997" y="0.0" name="ogonek"/>
  <anchor x="216.989" y="0.0" name="bottom"/>
  <anchor x="211.59" y="700.0" name="top"/>
  <outline>
    <contour>
      <point x="60.090999999999994" y="0.0" type="line"/>
      <point x="373.20199999999994" y="0.0" type="line"/>
      <point x="373.20199999999994" y="35.39" type="line"/>
      <point x="96.92099999999999" y="35.39" type="line"/>
      <point x="96.92099999999999" y="348.65599999999995" type="line"/>
      <point x="340.36299999999994" y="348.65599999999995" type="line"/>
      <point x="340.36299999999994" y="382.80500000000006" type="line"/>
      <point x="96.92099999999999" y="382.80500000000006" type="line"/>
      <point x="96.92099999999999" y="664.3850000000001" type="line"/>
      <point x="359.32099999999997" y="664.3850000000001" type="line"/>
      <point x="359.32099999999997" y="700.0" type="line"/>
      <point x="60.090999999999994" y="700.0" type="line"/>
    </contour>
  </outline>
</glyph>
<glyph name="F" format="2">
  <advance width="370.276"/>
  <unicode hex="0046"/>
  <outline>
    <contour>
      <point x="60.090999999999994" y="0.0" type="line"/>
      <point x="96.966" y="0.0" type="line"/>
      <point x="96.966" y="327.89200000000005" type="line"/>
      <point x="318.15999999999997" y="327.89200000000005" type="line"/>
      <point x="318.15999999999997" y="362.62600000000003" type="line"/>
      <point x="96.786" y="362.62600000000003" type="line"/>
      <point x="96.786" y="664.2049999999999" type="line"/>
      <point x="359.006" y="664.2049999999999" type="line"/>
      <point x="359.006" y="700.0" type="line"/>
      <point x="60.090999999999994" y="700.0" type="line"/>
    </contour>
  </outline>
</glyph>
<glyph name="G" format="2">
  <advance width="444.766"/>
  <unicode hex="0047"/>
  <anchor x="240.77" y="700.0" name="top"/>
  <anchor x="243.42999999999998" y="0.0" name="bottom"/>
  <outline>
    <contour>
      <point x="38.42400000000001" y="337.17199999999997" type="curve" smooth="yes"/>
      <point x="38.42400000000001" y="99.76199999999999"/>
      <point x="104.89800000000001" y="-10.0"/>
      <point x="245.25799999999998" y="-10.0" type="curve" smooth="yes"/>
      <point x="306.31199999999995" y="-10.0"/>
      <point x="363.41800000000006" y="-1.7560000000000002"/>
      <point x="397.598" y="13.6" type="curve"/>
      <point x="397.598" y="340.90399999999994" type="line"/>
      <point x="229.69000000000003" y="340.90399999999994" type="line"/>
      <point x="229.69000000000003" y="307.70000000000005" type="line"/>
      <point x="362.766" y="307.70000000000005" type="line"/>
      <point x="362.766" y="37.464000000000006" type="line"/>
      <point x="332.328" y="27.204"/>
      <point x="295.05400000000003" y="22.566"/>
      <point x="247.49800000000002" y="22.566" type="curve" smooth="yes"/>
      <point x="132.65400000000002" y="22.566"/>
      <point x="75.146" y="120.862"/>
      <point x="75.146" y="336.362" type="curve" smooth="yes"/>
      <point x="75.146" y="572.774"/>
      <point x="135.03" y="675.824"/>
      <point x="256.2" y="675.824" type="curve" smooth="yes"/>
      <point x="296.03600000000006" y="675.824"/>
      <point x="335.056" y="670.4639999999999"/>
      <point x="374.61600000000004" y="658.3000000000001" type="curve"/>
      <point x="381.91400000000004" y="690.502" type="line"/>
      <point x="343.818" y="703.26"/>
      <point x="299.48400000000004" y="710.0"/>
      <point x="253.618" y="710.0" type="curve" smooth="yes"/>
      <point x="108.93" y="710.0"/>
      <point x="38.42400000000001" y="594.782"/>
    </contour>
  </outline>
</glyph>
<glyph name="H" format="2">
  <advance width="492.60600000000005"/>
  <unicode hex="0048"/>
  <anchor x="246.43" y="700.0" name="top"/>
  <outline>
    <contour>
      <point x="60.081999999999994" y="0.0" type="line"/>
      <point x="96.642" y="0.0" type="line"/>
      <point x="96.642" y="284.842" type="line"/>
      <point x="395.96400000000006" y="284.842" type="line"/>
      <point x="395.96400000000006" y="0.0" type="line"/>
      <point x="432.52399999999994" y="0.0" type="line"/>
      <point x="432.52399999999994" y="700.0" type="line"/>
      <point x="395.96400000000006" y="700.0" type="line"/>
      <point x="395.96400000000006" y="319.954" type="line"/>
      <point x="96.642" y="319.954" type="line"/>
      <point x="96.642" y="700.0" type="line"/>
      <point x="60.081999999999994" y="700.0" type="line"/>
    </contour>
  </outline>
</glyph>
<glyph name="I" format="2">
  <advance width="156.72400000000002"/>
  <unicode hex="0049"/>
  <anchor x="96.642" y="0.0" name="ogonek"/>
  <anchor x="78.39800000000001" y="0.0" name="bottom"/>
  <anchor x="78.39800000000001" y="700.0" name="top"/>
  <outline>
    <contour>
      <point x="60.081999999999994" y="0.0" type="line"/>
      <point x="96.642" y="0.0" type="line"/>
      <point x="96.642" y="700.0" type="line"/>
      <point x="60.081999999999994" y="700.0" type="line"/>
    </contour>
  </outline>
</glyph>
<glyph name="J" format="2">
  <advance width="326.78600000000006"/>
  <unicode hex="004A"/>
  <anchor x="158.912" y="700.0" name="top"/>
  <outline>
    <contour>
      <point x="9.134000000000002" y="7.561999999999999" type="line"/>
      <point x="44.912000000000006" y="-3.882"/>
      <point x="88.09" y="-10.181999999999999"/>
      <point x="122.83200000000001" y="-10.181999999999999" type="curve" smooth="yes"/>
      <point x="236.84799999999998" y="-10.181999999999999"/>
      <point x="276.074" y="51.058"/>
      <point x="276.074" y="150.042" type="curve" smooth="yes"/>
      <point x="276.074" y="700.0" type="line"/>
      <point x="34.837999999999994" y="700.0" type="line"/>
      <point x="34.837999999999994" y="665.23" type="line"/>
      <point x="239.51399999999998" y="665.23" type="line"/>
      <point x="239.51399999999998" y="153.70800000000003" type="line" smooth="yes"/>
      <point x="239.51399999999998" y="59.392"/>
      <point x="197.34600000000003" y="23.994"/>
      <point x="116.586" y="23.994" type="curve" smooth="yes"/>
      <point x="87.088" y="23.994"/>
      <point x="49.684000000000005" y="28.828000000000003"/>
      <point x="17.088" y="39.120000000000005" type="curve"/>
    </contour>
  </outline>
</glyph>
<glyph name="K" format="2">
  <advance width="431.53"/>
  <unicode hex="004B"/>
  <anchor x="216.23999999999998" y="700.0" name="top"/>
  <anchor x="220.96" y="0.0" name="bottom"/>
  <outline>
    <contour>
      <point x="412.84000000000003" y="-10.0" type="curve" smooth="yes"/>
      <point x="416.46999999999997" y="-10.0"/>
      <point x="421.74" y="-10.0"/>
      <point x="428.28000000000003" y="-8.0" type="curve"/>
      <point x="428.28000000000003" y="31.669999999999998" type="line"/>
      <point x="425.1" y="30.849999999999998"/>
      <point x="421.42" y="30.849999999999998"/>
      <point x="418.74" y="30.849999999999998" type="curve" smooth="yes"/>
      <point x="390.51" y="31.259999999999998"/>
      <point x="369.57" y="45.22"/>
      <point x="304.78999999999996" y="135.25" type="curve" smooth="yes"/>
      <point x="97.03999999999999" y="424.39" type="line"/>
      <point x="97.03999999999999" y="700.0" type="line"/>
      <point x="60.300000000000004" y="700.0" type="line"/>
      <point x="60.300000000000004" y="0.0" type="line"/>
      <point x="97.03999999999999" y="0.0" type="line"/>
      <point x="97.03999999999999" y="361.59" type="line"/>
      <point x="284.54999999999995" y="102.86999999999999" type="line" smooth="yes"/>
      <point x="342.43" y="23.150000000000002"/>
      <point x="373.27" y="-10.0"/>
    </contour>
    <contour>
      <point x="168.76999999999998" y="300.8" type="line"/>
      <point x="245.26999999999998" y="377.41"/>
      <point x="351.4" y="507.65"/>
      <point x="402.19" y="691.96" type="curve"/>
      <point x="370.46000000000004" y="703.09" type="line"/>
      <point x="319.31" y="523.9"/>
      <point x="217.56" y="402.71"/>
      <point x="147.78" y="330.01000000000005" type="curve"/>
    </contour>
  </outline>
</glyph>
<glyph name="L" format="2">
  <advance width="351.81"/>
  <unicode hex="004C"/>
  <anchor x="176.032" y="350.0" name="center"/>
  <anchor x="78.39800000000001" y="700.0" name="top"/>
  <anchor x="232.96" y="700.0" name="topright"/>
  <anchor x="200.30200000000002" y="0.0" name="bottom"/>
  <outline>
    <contour>
      <point x="60.081999999999994" y="0.0" type="line"/>
      <point x="342.27" y="0.0" type="line"/>
      <point x="342.27" y="34.608000000000004" type="line"/>
      <point x="96.714" y="34.608000000000004" type="line"/>
      <point x="96.714" y="700.0" type="line"/>
      <point x="60.081999999999994" y="700.0" type="line"/>
    </contour>
  </outline>
</glyph>
<glyph name="M" format="2">
  <advance width="543.5360000000001"/>
  <unicode hex="004D"/>
  <outline>
    <contour>
      <point x="60.282" y="0.0" type="line"/>
      <point x="95.096" y="0.0" type="line"/>
      <point x="95.096" y="625.552" type="line"/>
      <point x="260.75399999999996" y="265.78" type="line"/>
      <point x="281.548" y="265.78" type="line"/>
      <point x="448.44" y="625.8580000000001" type="line"/>
      <point x="448.44" y="0.0" type="line"/>
      <point x="483.254" y="0.0" type="line"/>
      <point x="483.254" y="700.0" type="line"/>
      <point x="445.96" y="700.0" type="line"/>
      <point x="272.55600000000004" y="323.772" type="line"/>
      <point x="98.796" y="700.0" type="line"/>
      <point x="60.282" y="700.0" type="line"/>
    </contour>
  </outline>
</glyph>
<glyph name="N" format="2">
  <advance width="489.00500000000005"/>
  <unicode hex="004E"/>
  <anchor x="244.73" y="700.0" name="top"/>
  <anchor x="244.73" y="0.0" name="bottom"/>
  <outline>
    <contour>
      <point x="60.255" y="0.0" type="line"/>
      <point x="94.745" y="0.0" type="line"/>
      <point x="94.745" y="619.0450000000001" type="line"/>
      <point x="391.96000000000004" y="-0.18" type="line"/>
      <point x="428.75" y="-0.18" type="line"/>
      <point x="428.75" y="700.0" type="line"/>
      <point x="394.26000000000005" y="700.0" type="line"/>
      <point x="394.26000000000005" y="77.97500000000001" type="line"/>
      <point x="96.68" y="701.82" type="line"/>
      <point x="60.255" y="701.82" type="line"/>
    </contour>
  </outline>
</glyph>
<glyph name="O" format="2">
  <advance width="497.88500000000005"/>
  <unicode hex="004F"/>
  <anchor x="284.99" y="0.81" name="ogonek"/>
  <anchor x="248.01000000000002" y="700.0" name="top"/>
  <anchor x="360.185" y="684.76" name="topright"/>
  <anchor x="248.055" y="0.0" name="bottom"/>
  <outline>
    <contour>
      <point x="248.01000000000002" y="22.81" type="curve" smooth="yes"/>
      <point x="151.18499999999997" y="22.81"/>
      <point x="75.715" y="88.07"/>
      <point x="75.715" y="349.045" type="curve" smooth="yes"/>
      <point x="75.715" y="614.2049999999999"/>
      <point x="151.09499999999997" y="677.37"/>
      <point x="248.01000000000002" y="677.37" type="curve" smooth="yes"/>
      <point x="346.01500000000004" y="677.37"/>
      <point x="421.715" y="614.66"/>
      <point x="421.715" y="349.18" type="curve" smooth="yes"/>
      <point x="421.715" y="85.7"/>
      <point x="346.01500000000004" y="22.81"/>
    </contour>
    <contour>
      <point x="248.055" y="-10.0" type="curve" smooth="yes"/>
      <point x="371.815" y="-10.0"/>
      <point x="459.17999999999995" y="60.839999999999996"/>
      <point x="459.17999999999995" y="350.315" type="curve" smooth="yes"/>
      <point x="459.17999999999995" y="639.16"/>
      <point x="370.035" y="710.0"/>
      <point x="248.01000000000002" y="710.0" type="curve" smooth="yes"/>
      <point x="126.07500000000002" y="710.0"/>
      <point x="38.705" y="638.5699999999999"/>
      <point x="38.705" y="349.09" type="curve" smooth="yes"/>
      <point x="38.705" y="63.89"/>
      <point x="126.48000000000002" y="-10.0"/>
    </contour>
  </outline>
</glyph>
<glyph name="P" format="2">
  <advance width="421.21000000000004"/>
  <unicode hex="0050"/>
  <outline>
    <contour>
      <point x="60.081999999999994" y="0.0" type="line"/>
      <point x="96.714" y="0.0" type="line"/>
      <point x="96.714" y="274.57" type="line"/>
      <point x="138.392" y="272.75399999999996"/>
      <point x="163.882" y="272.572"/>
      <point x="203.07" y="272.572" type="curve" smooth="yes"/>
      <point x="336.946" y="272.572"/>
      <point x="396.05199999999996" y="335.198"/>
      <point x="396.05199999999996" y="500.06199999999995" type="curve" smooth="yes"/>
      <point x="396.05199999999996" y="655.776"/>
      <point x="353.254" y="710.0"/>
      <point x="196.222" y="710.0" type="curve" smooth="yes"/>
      <point x="167.808" y="710.0"/>
      <point x="129.71200000000002" y="708.0540000000001"/>
      <point x="60.081999999999994" y="703.056" type="curve"/>
    </contour>
    <contour>
      <point x="96.78599999999999" y="672.45" type="line"/>
      <point x="148.734" y="676.378"/>
      <point x="174.422" y="677.47"/>
      <point x="198.3" y="677.47" type="curve" smooth="yes"/>
      <point x="328.658" y="677.47"/>
      <point x="359.29400000000004" y="627.0840000000001"/>
      <point x="359.29400000000004" y="498.724" type="curve" smooth="yes"/>
      <point x="359.29400000000004" y="358.81800000000004"/>
      <point x="315.532" y="306.396"/>
      <point x="198.884" y="306.396" type="curve" smooth="yes"/>
      <point x="159.458" y="306.396"/>
      <point x="135.77" y="306.96000000000004"/>
      <point x="96.78599999999999" y="308.45" type="curve"/>
    </contour>
  </outline>
</glyph>
<glyph name="Q" format="2">
  <advance width="497.91200000000003"/>
  <unicode hex="0051"/>
  <outline>
    <contour>
      <point x="280.608" y="7.715999999999999" type="curve"/>
      <point x="248.9" y="0.6880000000000001" type="line"/>
      <point x="275.044" y="-148.4"/>
      <point x="305.55600000000004" y="-205.954"/>
      <point x="367.53" y="-205.954" type="curve" smooth="yes"/>
      <point x="387.466" y="-205.954"/>
      <point x="411.204" y="-200.044"/>
      <point x="437.506" y="-189.242" type="curve"/>
      <point x="429.71000000000004" y="-157.15800000000002" type="line"/>
      <point x="408.578" y="-167.028"/>
      <point x="389.37" y="-171.88400000000001"/>
      <point x="373.41" y="-171.88400000000001" type="curve" smooth="yes"/>
      <point x="327.358" y="-171.88400000000001"/>
      <point x="304.01000000000005" y="-125.034"/>
    </contour>
    <component base="O"/>
  </outline>
</glyph>
<glyph name="R" format="2">
  <advance width="451.36"/>
  <unicode hex="0052"/>
  <anchor x="213.87" y="700.0" name="top"/>
  <anchor x="224.7" y="0.0" name="bottom"/>
  <outline>
    <contour>
      <point x="431.04999999999995" y="-10.0" type="curve" smooth="yes"/>
      <point x="438.35" y="-10.0"/>
      <point x="444.65999999999997" y="-7.5"/>
      <point x="448.97" y="-6.0" type="curve"/>
      <point x="446.15000000000003" y="29.46" type="line"/>
      <point x="442.83" y="28.64"/>
      <point x="435.65000000000003" y="27.729999999999997"/>
      <point x="433.65000000000003" y="27.729999999999997" type="curve" smooth="yes"/>
      <point x="400.11" y="27.729999999999997"/>
      <point x="354.18000000000006" y="67.56"/>
      <point x="270.00000000000006" y="307.46" type="curve"/>
      <point x="350.24" y="327.53000000000003"/>
      <point x="392.15000000000003" y="389.65000000000003"/>
      <point x="392.15000000000003" y="512.85" type="curve" smooth="yes"/>
      <point x="392.15000000000003" y="662.39"/>
      <point x="334.03999999999996" y="710.0"/>
      <point x="191.35000000000002" y="710.0" type="curve" smooth="yes"/>
      <point x="145.88" y="710.0"/>
      <point x="109.93" y="707.82"/>
      <point x="60.300000000000004" y="703.14" type="curve"/>
      <point x="60.300000000000004" y="0.0" type="line"/>
      <point x="96.86" y="0.0" type="line"/>
      <point x="96.86" y="296.69" type="line"/>
      <point x="127.8" y="295.28"/>
      <point x="160.78" y="294.87"/>
      <point x="193.04" y="294.87" type="curve" smooth="yes"/>
      <point x="207.1" y="294.87"/>
      <point x="221.96" y="295.78"/>
      <point x="235.60999999999999" y="297.19" type="curve"/>
      <point x="327.88" y="34.32"/>
      <point x="375.18" y="-10.0"/>
    </contour>
    <contour>
      <point x="196.83" y="328.91" type="curve" smooth="yes"/>
      <point x="163.31" y="328.91"/>
      <point x="131.74" y="329.5"/>
      <point x="96.86" y="331.0" type="curve"/>
      <point x="96.86" y="672.87" type="line"/>
      <point x="134.23" y="676.37"/>
      <point x="155.56000000000003" y="677.28"/>
      <point x="192.17" y="677.28" type="curve" smooth="yes"/>
      <point x="315.11" y="677.28"/>
      <point x="354.96000000000004" y="631.26"/>
      <point x="354.96000000000004" y="508.24" type="curve" smooth="yes"/>
      <point x="354.96000000000004" y="376.2"/>
      <point x="305.79999999999995" y="328.91"/>
    </contour>
  </outline>
</glyph>
<glyph name="S" format="2">
  <advance width="397.40999999999997"/>
  <unicode hex="0053"/>
  <anchor x="205.34499999999997" y="700.0" name="top"/>
  <anchor x="198.03" y="0.0" name="bottom"/>
  <outline>
    <contour>
      <point x="339.745" y="687.56" type="line"/>
      <point x="309.8500000000001" y="699.645"/>
      <point x="255.885" y="710.0"/>
      <point x="211.79" y="710.0" type="curve" smooth="yes"/>
      <point x="106.71000000000001" y="710.0"/>
      <point x="38.98" y="647.725"/>
      <point x="38.98" y="552.6949999999999" type="curve" smooth="yes"/>
      <point x="38.98" y="459.84999999999997"/>
      <point x="86.24000000000001" y="400.17"/>
      <point x="186.35500000000002" y="338.78000000000003" type="curve" smooth="yes"/>
      <point x="282.48999999999995" y="279.26"/>
      <point x="329.96500000000003" y="225.945"/>
      <point x="329.96500000000003" y="145.765" type="curve" smooth="yes"/>
      <point x="329.96500000000003" y="64.48"/>
      <point x="268.2" y="23.860000000000003"/>
      <point x="181.39499999999998" y="23.860000000000003" type="curve" smooth="yes"/>
      <point x="135.54500000000002" y="23.860000000000003"/>
      <point x="73.37" y="34.175000000000004"/>
      <point x="34.085" y="50.03" type="curve"/>
      <point x="23.295" y="18.21" type="line"/>
      <point x="58.57000000000001" y="2.955"/>
      <point x="130.695" y="-10.0"/>
      <point x="181.17" y="-10.0" type="curve" smooth="yes"/>
      <point x="291.36000000000007" y="-10.0"/>
      <point x="367.115" y="46.19499999999999"/>
      <point x="367.115" y="149.165" type="curve" smooth="yes"/>
      <point x="367.115" y="242.865"/>
      <point x="318.865" y="301.14000000000004"/>
      <point x="216.72" y="363.58" type="curve" smooth="yes"/>
      <point x="120.255" y="423.02"/>
      <point x="76.31" y="473.92"/>
      <point x="76.31" y="553.1899999999999" type="curve" smooth="yes"/>
      <point x="76.31" y="629.24"/>
      <point x="130.475" y="677.01"/>
      <point x="212.73499999999999" y="677.01" type="curve" smooth="yes"/>
      <point x="253.86" y="677.01"/>
      <point x="298.20500000000004" y="669.01"/>
      <point x="329.40999999999997" y="656.835" type="curve"/>
    </contour>
  </outline>
</glyph>
<glyph name="T" format="2">
  <advance width="370.528"/>
  <unicode hex="0054"/>
  <anchor x="185.264" y="700.0" name="top"/>
  <anchor x="185.264" y="0.0" name="bottom"/>
  <outline>
    <contour>
      <point x="364.44599999999997" y="665.2860000000001" type="line"/>
      <point x="364.44599999999997" y="700.0" type="line"/>
      <point x="6.082000000000001" y="700.0" type="line"/>
      <point x="6.082000000000001" y="665.2860000000001" type="line"/>
      <point x="167.02" y="665.2860000000001" type="line"/>
      <point x="167.02" y="0.0" type="line"/>
      <point x="203.57999999999998" y="0.0" type="line"/>
      <point x="203.57999999999998" y="665.2860000000001" type="line"/>
    </contour>
  </outline>
</glyph>
<glyph name="U" format="2">
  <advance width="473.14000000000004"/>
  <unicode hex="0055"/>
  <anchor x="273.05800000000005" y="0.144" name="ogonek"/>
  <anchor x="236.97" y="700.0" name="top"/>
  <anchor x="422.428" y="700.0" name="topright"/>
  <anchor x="236.97" y="0.0" name="bottom"/>
  <outline>
    <contour>
      <point x="50.712" y="172.096" type="line"/>
      <point x="50.712" y="24.439999999999998"/>
      <point x="144.248" y="-10.0"/>
      <point x="236.826" y="-10.0" type="curve" smooth="yes"/>
      <point x="329.90799999999996" y="-10.0"/>
      <point x="422.428" y="24.439999999999998"/>
      <point x="422.428" y="172.096" type="curve" smooth="yes"/>
      <point x="422.428" y="700.0" type="line"/>
      <point x="385.868" y="700.0" type="line"/>
      <point x="385.868" y="170.87199999999999" type="line" smooth="yes"/>
      <point x="385.868" y="48.048"/>
      <point x="308.56800000000004" y="24.058"/>
      <point x="236.87999999999997" y="24.058" type="curve" smooth="yes"/>
      <point x="165.39" y="24.058"/>
      <point x="87.128" y="47.886"/>
      <point x="87.128" y="170.87199999999999" type="curve" smooth="yes"/>
      <point x="87.128" y="700.0" type="line"/>
      <point x="50.712" y="700.0" type="line"/>
    </contour>
  </outline>
</glyph>
<glyph name="V" format="2">
  <advance width="419.17400000000004"/>
  <unicode hex="0056"/>
  <outline>
    <contour>
      <point x="189.498" y="0.0" type="line"/>
      <point x="230.27" y="0.0" type="line"/>
      <point x="409.434" y="698.27" type="line"/>
      <point x="373.308" y="702.748" type="line"/>
      <point x="209.92" y="58.0" type="line"/>
      <point x="45.92" y="702.748" type="line"/>
      <point x="9.74" y="698.27" type="line"/>
    </contour>
  </outline>
</glyph>
<glyph name="W" format="2">
  <advance width="576.72"/>
  <unicode hex="0057"/>
  <anchor x="288.11" y="700.0" name="top"/>
  <anchor x="288.11" y="0.0" name="bottom"/>
  <outline>
    <contour>
      <point x="451.236" y="0.0" type="line"/>
      <point x="567.7280000000001" y="698.7339999999999" type="line"/>
      <point x="529.886" y="702.2840000000001" type="line"/>
      <point x="429.988" y="64.014" type="line"/>
      <point x="307.018" y="688.4680000000001" type="line"/>
      <point x="270.62" y="688.4680000000001" type="line"/>
      <point x="147.34399999999997" y="63.942" type="line"/>
      <point x="46.726" y="702.2840000000001" type="line"/>
      <point x="8.991999999999999" y="698.7339999999999" type="line"/>
      <point x="125.624" y="0.0" type="line"/>
      <point x="163.58" y="0.0" type="line"/>
      <point x="287.28600000000006" y="618.63" type="line"/>
      <point x="410.682" y="0.0" type="line"/>
    </contour>
  </outline>
</glyph>
<glyph name="X" format="2">
  <advance width="426.76"/>
  <unicode hex="0058"/>
  <outline>
    <contour>
      <point x="21.94" y="2.7300000000000004" type="line"/>
      <point x="59.28" y="-4.550000000000001" type="line"/>
      <point x="211.92499999999998" y="325.845" type="line"/>
      <point x="366.85" y="-4.550000000000001" type="line"/>
      <point x="404.005" y="2.7300000000000004" type="line"/>
      <point x="236.26" y="359.865" type="line"/>
      <point x="393.775" y="696.405" type="line"/>
      <point x="357.385" y="703.595" type="line"/>
      <point x="215.145" y="394.53" type="line"/>
      <point x="70.18" y="703.595" type="line"/>
      <point x="32.935" y="696.405" type="line"/>
      <point x="191.54" y="359.63999999999993" type="line"/>
    </contour>
  </outline>
</glyph>
<glyph name="Y" format="2">
  <advance width="408.59999999999997"/>
  <unicode hex="0059"/>
  <anchor x="205.028" y="700.0" name="top"/>
  <anchor x="205.574" y="0.0" name="bottom"/>
  <outline>
    <contour>
      <point x="187.98600000000002" y="0.0" type="line"/>
      <point x="224.546" y="0.0" type="line"/>
      <point x="224.546" y="305.33000000000004" type="line"/>
      <point x="396.87600000000003" y="696.36" type="line"/>
      <point x="360.708" y="703.64" type="line"/>
      <point x="206.338" y="341.688" type="line"/>
      <point x="45.05199999999999" y="703.64" type="line"/>
      <point x="8.812" y="696.36" type="line"/>
      <point x="187.98600000000002" y="305.33000000000004" type="line"/>
    </contour>
  </outline>
</glyph>
<glyph name="Z" format="2">
  <advance width="400.76400000000007"/>
  <unicode hex="005A"/>
  <anchor x="206.178" y="350.0" name="center"/>
  <anchor x="206.178" y="0.0" name="bottom"/>
  <anchor x="205.46400000000003" y="700.0" name="top"/>
  <outline>
    <contour>
      <point x="20.55" y="0.0" type="line"/>
      <point x="386.65799999999996" y="0.0" type="line"/>
      <point x="386.65799999999996" y="33.744" type="line"/>
      <point x="62.978" y="33.744" type="line"/>
      <point x="62.978" y="35.654" type="line"/>
      <point x="366.97600000000006" y="669.8800000000001" type="line"/>
      <point x="366.97600000000006" y="700.0" type="line"/>
      <point x="41.98799999999999" y="700.0" type="line"/>
      <point x="41.98799999999999" y="666.346" type="line"/>
      <point x="324.548" y="666.346" type="line"/>
      <point x="324.548" y="664.346" type="line"/>
      <point x="20.55" y="30.209999999999997" type="line"/>
    </contour>
  </outline>
</glyph>
<glyph name="bracketleft" format="2">
  <advance width="235.508"/>
  <unicode hex="005B"/>
  <outline>
    <contour>
      <point x="97.126" y="-178.29999999999998" type="line"/>
      <point x="97.126" y="708.3000000000001" type="line"/>
      <point x="221.508" y="708.3000000000001" type="line"/>
      <point x="221.508" y="740.0" type="line"/>
      <point x="65.21000000000001" y="740.0" type="line"/>
      <point x="65.21000000000001" y="-210.0" type="line"/>
      <point x="221.508" y="-210.0" type="line"/>
      <point x="221.508" y="-178.29999999999998" type="line"/>
    </contour>
  </outline>
</glyph>
<glyph name="backslash" format="2">
  <advance width="258.45399999999995"/>
  <unicode hex="005C"/>
  <outline>
    <contour>
      <point x="35.422000000000004" y="740.0" type="line"/>
      <point x="2.7359999999999998" y="740.0" type="line"/>
      <point x="223.10399999999998" y="-210.0" type="line"/>
      <point x="255.718" y="-210.0" type="line"/>
    </contour>
  </outline>
</glyph>
<glyph name="bracketright" format="2">
  <advance width="235.508"/>
  <unicode hex="005D"/>
  <outline>
    <contour>
      <point x="14.0" y="-178.29999999999998" type="line"/>
      <point x="14.0" y="-210.0" type="line"/>
      <point x="170.298" y="-210.0" type="line"/>
      <point x="170.298" y="740.0" type="line"/>
      <point x="14.0" y="740.0" type="line"/>
      <point x="14.0" y="708.3000000000001" type="line"/>
      <point x="138.38199999999998" y="708.3000000000001" type="line"/>
      <point x="138.38199999999998" y="-178.29999999999998" type="line"/>
    </contour>
  </outline>
</glyph>
<glyph name="asciicircum" format="2">
  <advance width="415.596"/>
  <unicode hex="005E"/>
  <outline>
    <contour>
      <point x="39.19" y="274.404" type="line"/>
      <point x="71.89399999999999" y="274.404" type="line"/>
      <point x="207.798" y="670.194" type="line"/>
      <point x="343.792" y="274.404" type="line"/>
      <point x="376.406" y="274.404" type="line"/>
      <point x="225.466" y="709.1" type="line"/>
      <point x="190.13" y="709.1" type="line"/>
    </contour>
  </outline>
</glyph>
<glyph name="underscore" format="2">
  <advance width="688.4159999999999"/>
  <unicode hex="005F"/>
  <outline>
    <contour>
      <point x="1.7999999999999998" y="-142.588" type="line"/>
      <point x="686.616" y="-142.588" type="line"/>
      <point x="686.616" y="-109.268" type="line"/>
      <point x="1.7999999999999998" y="-109.268" type="line"/>
    </contour>
  </outline>
</glyph>
<glyph name="a" format="2">
  <advance width="374.64"/>
  <unicode hex="0061"/>
  <anchor x="373.96" y="0.7999999999999999" name="ogonek"/>
  <anchor x="177.65" y="0.0" name="bottom"/>
  <anchor x="179.25" y="531.8" name="top"/>
  <outline>
    <contour>
      <point x="21.740000000000002" y="114.03999999999999" type="curve" smooth="yes"/>
      <point x="21.740000000000002" y="33.92"/>
      <point x="63.050000000000004" y="-10.0"/>
      <point x="129.34" y="-10.0" type="curve" smooth="yes"/>
      <point x="189.57000000000002" y="-10.0"/>
      <point x="237.77" y="20.290000000000003"/>
      <point x="273.31" y="54.11" type="curve"/>
      <point x="275.47" y="12.19"/>
      <point x="295.82000000000005" y="-10.0"/>
      <point x="330.65999999999997" y="-10.0" type="curve" smooth="yes"/>
      <point x="345.08" y="-10.0"/>
      <point x="358.55999999999995" y="-7.01"/>
      <point x="373.96" y="0.8899999999999999" type="curve"/>
      <point x="366.83000000000004" y="31.029999999999998" type="line"/>
      <point x="356.05" y="26.209999999999997"/>
      <point x="346.73" y="24.389999999999997"/>
      <point x="338.09000000000003" y="24.389999999999997" type="curve" smooth="yes"/>
      <point x="319.34999999999997" y="24.389999999999997"/>
      <point x="308.3" y="35.67"/>
      <point x="308.3" y="72.82000000000001" type="curve" smooth="yes"/>
      <point x="308.3" y="402.46" type="line" smooth="yes"/>
      <point x="308.3" y="493.69"/>
      <point x="262.82" y="541.8"/>
      <point x="172.5" y="541.8" type="curve" smooth="yes"/>
      <point x="137.25" y="541.8"/>
      <point x="95.24" y="535.0799999999999"/>
      <point x="52.160000000000004" y="520.54" type="curve"/>
      <point x="61.36" y="488.59" type="line"/>
      <point x="104.03" y="502.45000000000005"/>
      <point x="141.29" y="506.86"/>
      <point x="171.11" y="506.86" type="curve" smooth="yes"/>
      <point x="239.6" y="506.86"/>
      <point x="272.42" y="468.83"/>
      <point x="272.42" y="402.01" type="curve" smooth="yes"/>
      <point x="272.42" y="287.26" type="line"/>
      <point x="118.49000000000001" y="264.15999999999997"/>
      <point x="21.740000000000002" y="232.89"/>
    </contour>
    <contour>
      <point x="58.03" y="119.85" type="curve" smooth="yes"/>
      <point x="58.03" y="215.77"/>
      <point x="154.48" y="243.25"/>
      <point x="272.42" y="258.9" type="curve"/>
      <point x="272.42" y="88.12" type="line"/>
      <point x="238.20999999999998" y="52.550000000000004"/>
      <point x="189.04" y="20.79"/>
      <point x="137.76999999999998" y="20.79" type="curve" smooth="yes"/>
      <point x="88.78" y="20.79"/>
      <point x="58.03" y="55.45"/>
    </contour>
  </outline>
</glyph>
<glyph name="b" format="2">
  <advance width="389.672"/>
  <unicode hex="0062"/>
  <outline>
    <contour>
      <point x="56.94" y="8.516" type="line"/>
      <point x="104.77" y="-4.206"/>
      <point x="141.67" y="-10.0"/>
      <point x="175.568" y="-10.0" type="curve" smooth="yes"/>
      <point x="300.74199999999996" y="-10.0"/>
      <point x="353.84999999999997" y="71.654"/>
      <point x="353.84999999999997" y="278.988" type="curve" smooth="yes"/>
      <point x="353.84999999999997" y="448.738"/>
      <point x="304.71" y="541.8"/>
      <point x="216.28" y="541.8" type="curve" smooth="yes"/>
      <point x="175.548" y="541.8"/>
      <point x="132.528" y="527.3439999999999"/>
      <point x="93.14" y="500.32000000000005" type="curve"/>
      <point x="93.14" y="740.0" type="line"/>
      <point x="56.94" y="740.0" type="line"/>
    </contour>
    <contour>
      <point x="93.14" y="31.01" type="curve"/>
      <point x="93.14" y="467.85999999999996" type="line"/>
      <point x="137.55200000000002" y="498.138"/>
      <point x="167.588" y="509.0"/>
      <point x="206.07000000000002" y="509.0" type="curve" smooth="yes"/>
      <point x="276.536" y="509.0"/>
      <point x="316.78600000000006" y="427.484"/>
      <point x="316.78600000000006" y="277.22400000000005" type="curve" smooth="yes"/>
      <point x="316.78600000000006" y="87.158"/>
      <point x="275.08200000000005" y="19.604"/>
      <point x="173.13400000000001" y="19.604" type="curve" smooth="yes"/>
      <point x="151.10399999999998" y="19.604"/>
      <point x="128.11" y="22.86"/>
    </contour>
  </outline>
</glyph>
<glyph name="c" format="2">
  <advance width="339.598"/>
  <unicode hex="0063"/>
  <anchor x="201.99" y="531.8" name="top"/>
  <anchor x="203.168" y="0.0" name="bottom"/>
  <outline>
    <contour>
      <point x="35.91199999999999" y="259.424" type="curve" smooth="yes"/>
      <point x="35.91199999999999" y="71.516"/>
      <point x="92.726" y="-10.0"/>
      <point x="207.458" y="-10.0" type="curve" smooth="yes"/>
      <point x="243.68599999999998" y="-10.0"/>
      <point x="289.384" y="-3.5500000000000003"/>
      <point x="318.93199999999996" y="4.514" type="curve"/>
      <point x="311.99800000000005" y="35.712" type="line"/>
      <point x="283.298" y="29.168"/>
      <point x="241.448" y="23.401999999999997"/>
      <point x="212.506" y="23.401999999999997" type="curve" smooth="yes"/>
      <point x="121.57800000000002" y="23.401999999999997"/>
      <point x="72.61600000000001" y="92.154"/>
      <point x="72.61600000000001" y="255.68599999999998" type="curve" smooth="yes"/>
      <point x="72.61600000000001" y="434.582"/>
      <point x="121.434" y="508.326"/>
      <point x="215.108" y="508.326" type="curve" smooth="yes"/>
      <point x="244.07000000000002" y="508.326"/>
      <point x="277.308" y="503.66999999999996"/>
      <point x="305.558" y="496.36" type="curve"/>
      <point x="311.87999999999994" y="528.206" type="line"/>
      <point x="282.56" y="536.82"/>
      <point x="244.07600000000002" y="541.8"/>
      <point x="214.25000000000003" y="541.8" type="curve" smooth="yes"/>
      <point x="95.738" y="541.8"/>
      <point x="35.91199999999999" y="457.232"/>
    </contour>
  </outline>
</glyph>
<glyph name="d" format="2">
  <advance width="389.78"/>
  <unicode hex="0064"/>
  <anchor x="194.882" y="275.0" name="center"/>
  <anchor x="196.60900000000004" y="740.0" name="top"/>
  <anchor x="404.88" y="740.0" name="topright"/>
  <anchor x="194.882" y="0.0" name="bottom"/>
  <outline>
    <contour>
      <point x="302.662" y="-0.09" type="line"/>
      <point x="332.885" y="-0.09" type="line"/>
      <point x="332.885" y="740.0" type="line"/>
      <point x="296.505" y="740.0" type="line"/>
      <point x="296.505" y="530.893" type="line"/>
      <point x="265.98999999999995" y="538.562"/>
      <point x="237.38200000000003" y="541.8"/>
      <point x="210.954" y="541.8" type="curve" smooth="yes"/>
      <point x="89.164" y="541.8"/>
      <point x="35.795" y="458.41799999999995"/>
      <point x="35.795" y="253.469" type="curve" smooth="yes"/>
      <point x="35.795" y="81.68800000000002"/>
      <point x="85.798" y="-10.0"/>
      <point x="175.79100000000003" y="-10.0" type="curve" smooth="yes"/>
      <point x="217.18" y="-10.0"/>
      <point x="256.61400000000003" y="3.0"/>
      <point x="296.82" y="31.415000000000006" type="curve"/>
    </contour>
    <contour>
      <point x="296.50500000000005" y="63.56200000000001" type="line"/>
      <point x="252.327" y="33.589999999999996"/>
      <point x="222.111" y="22.683"/>
      <point x="183.036" y="22.683" type="curve" smooth="yes"/>
      <point x="113.29800000000002" y="22.683"/>
      <point x="73.03" y="103.64"/>
      <point x="73.03" y="255.764" type="curve" smooth="yes"/>
      <point x="73.03" y="444.64200000000005"/>
      <point x="114.67099999999999" y="511.87199999999996"/>
      <point x="216.48400000000004" y="511.87199999999996" type="curve" smooth="yes"/>
      <point x="238.65800000000002" y="511.87199999999996"/>
      <point x="262.21799999999996" y="508.679"/>
      <point x="296.50500000000005" y="500.32200000000006" type="curve"/>
    </contour>
  </outline>
</glyph>
<glyph name="e" format="2">
  <advance width="377.732"/>
  <unicode hex="0065"/>
  <anchor x="310.626" y="5.3020000000000005" name="ogonek"/>
  <anchor x="202.85999999999999" y="0.0" name="bottom"/>
  <anchor x="200.416" y="531.8" name="top"/>
  <outline>
    <contour>
      <point x="199.19400000000002" y="-10.0" type="curve" smooth="yes"/>
      <point x="249.958" y="-10.0"/>
      <point x="300.144" y="-0.7459999999999997"/>
      <point x="338.13" y="12.694" type="curve"/>
      <point x="331.584" y="43.712" type="line"/>
      <point x="294.784" y="31.785999999999994"/>
      <point x="248.408" y="23.113999999999997"/>
      <point x="204.08" y="23.113999999999997" type="curve" smooth="yes"/>
      <point x="117.314" y="23.113999999999997"/>
      <point x="72.67" y="77.99000000000001"/>
      <point x="72.67" y="254.996" type="curve" smooth="yes"/>
      <point x="72.67" y="262.71"/>
      <point x="72.834" y="270.826"/>
      <point x="73.088" y="278.37600000000003" type="curve"/>
      <point x="203.45000000000002" y="278.646"/>
      <point x="304.488" y="289.73600000000005"/>
      <point x="346.738" y="295.24399999999997" type="curve"/>
      <point x="346.992" y="300.806"/>
      <point x="347.82800000000003" y="315.74399999999997"/>
      <point x="347.82800000000003" y="322.39000000000004" type="curve" smooth="yes"/>
      <point x="347.82800000000003" y="478.704"/>
      <point x="301.19200000000006" y="541.8"/>
      <point x="208.67000000000002" y="541.8" type="curve" smooth="yes"/>
      <point x="110.14800000000001" y="541.8"/>
      <point x="35.83999999999999" y="477.566"/>
      <point x="35.83999999999999" y="251.186" type="curve" smooth="yes"/>
      <point x="35.83999999999999" y="61.202"/>
      <point x="90.64599999999999" y="-10.0"/>
    </contour>
    <contour>
      <point x="73.66999999999999" y="307.504" type="curve"/>
      <point x="84.86" y="473.26"/>
      <point x="145.714" y="511.41200000000003"/>
      <point x="207.41" y="511.41200000000003" type="curve" smooth="yes"/>
      <point x="277.624" y="511.41200000000003"/>
      <point x="311.284" y="460.02799999999996"/>
      <point x="311.464" y="320.84200000000004" type="curve"/>
      <point x="285.586" y="315.874"/>
      <point x="180.924" y="307.594"/>
    </contour>
  </outline>
</glyph>
<glyph name="f" format="2">
  <advance width="268.73400000000004"/>
  <unicode hex="0066"/>
  <outline>
    <contour>
      <point x="90.938" y="0.0" type="line"/>
      <point x="126.77799999999999" y="0.0" type="line"/>
      <point x="126.77799999999999" y="455.746" type="line"/>
      <point x="256.85" y="455.746" type="line"/>
      <point x="256.85" y="487.24" type="line"/>
      <point x="126.85" y="487.24" type="line"/>
      <point x="126.85" y="513.6539999999999" type="line" smooth="yes"/>
      <point x="126.85" y="658.326"/>
      <point x="162.83400000000003" y="717.572"/>
      <point x="237.88000000000002" y="717.572" type="curve" smooth="yes"/>
      <point x="261.142" y="717.572"/>
      <point x="283.326" y="714.372"/>
      <point x="310.368" y="706.1339999999999" type="curve"/>
      <point x="316.71" y="736.2159999999999" type="line"/>
      <point x="284.578" y="746.2959999999999"/>
      <point x="259.178" y="750.182"/>
      <point x="232.382" y="750.182" type="curve" smooth="yes"/>
      <point x="139.248" y="750.182"/>
      <point x="90.938" y="680.408"/>
      <point x="90.938" y="513.906" type="curve" smooth="yes"/>
      <point x="90.938" y="487.24" type="line"/>
      <point x="16.810000000000002" y="481.09799999999996" type="line"/>
      <point x="16.810000000000002" y="455.746" type="line"/>
      <point x="90.938" y="455.746" type="line"/>
    </contour>
  </outline>
</glyph>
<glyph name="g" format="2">
  <advance width="393.018"/>
  <unicode hex="0067"/>
  <anchor x="200.89600000000002" y="531.8" name="top"/>
  <anchor x="200.828" y="-212.0" name="bottom"/>
  <outline>
    <contour>
      <point x="200.366" y="-220.0" type="curve" smooth="yes"/>
      <point x="316.22200000000004" y="-220.0"/>
      <point x="382.536" y="-161.61800000000002"/>
      <point x="382.536" y="-65.362" type="curve" smooth="yes"/>
      <point x="382.536" y="18.93"/>
      <point x="339.334" y="64.14800000000001"/>
      <point x="257.068" y="64.14800000000001" type="curve" smooth="yes"/>
      <point x="157.72799999999998" y="64.14800000000001" type="line" smooth="yes"/>
      <point x="100.672" y="64.14800000000001"/>
      <point x="79.286" y="90.95599999999999"/>
      <point x="79.286" y="129.87" type="curve" smooth="yes"/>
      <point x="79.286" y="167.45600000000002"/>
      <point x="97.55" y="197.70800000000003"/>
      <point x="130.708" y="220.85" type="curve"/>
      <point x="109.39599999999999" y="232.95199999999997" type="line"/>
      <point x="68.56" y="203.98399999999998"/>
      <point x="47.97200000000001" y="167.26999999999998"/>
      <point x="47.97200000000001" y="123.15799999999999" type="curve" smooth="yes"/>
      <point x="47.97200000000001" y="66.384"/>
      <point x="80.02199999999999" y="30.494"/>
      <point x="155.976" y="30.494" type="curve" smooth="yes"/>
      <point x="252.41400000000002" y="30.494" type="line" smooth="yes"/>
      <point x="314.148" y="30.494"/>
      <point x="347.59599999999995" y="-4.831999999999999"/>
      <point x="347.59599999999995" y="-67.194" type="curve" smooth="yes"/>
      <point x="347.59599999999995" y="-144.07399999999998"/>
      <point x="296.026" y="-188.32600000000002"/>
      <point x="201.806" y="-188.32600000000002" type="curve" smooth="yes"/>
      <point x="108.798" y="-188.32600000000002"/>
      <point x="60.694" y="-149.45999999999998"/>
      <point x="60.694" y="-70.342" type="curve" smooth="yes"/>
      <point x="60.694" y="-21.418"/>
      <point x="77.27599999999998" y="16.802000000000003"/>
      <point x="121.036" y="44.49400000000001" type="curve"/>
      <point x="94.96199999999999" y="54.3" type="line"/>
      <point x="46.158" y="22.872"/>
      <point x="27.644000000000002" y="-20.317999999999998"/>
      <point x="27.644000000000002" y="-74.91600000000001" type="curve" smooth="yes"/>
      <point x="27.644000000000002" y="-171.18"/>
      <point x="87.10000000000001" y="-220.0"/>
    </contour>
    <contour>
      <point x="197.066" y="202.982" type="curve" smooth="yes"/>
      <point x="291.56600000000003" y="202.982"/>
      <point x="338.118" y="259.15200000000004"/>
      <point x="338.118" y="372.1" type="curve" smooth="yes"/>
      <point x="338.118" y="485.138"/>
      <point x="291.56600000000003" y="541.8"/>
      <point x="197.066" y="541.8" type="curve" smooth="yes"/>
      <point x="102.476" y="541.8"/>
      <point x="55.924" y="485.138"/>
      <point x="55.924" y="372.1" type="curve" smooth="yes"/>
      <point x="55.924" y="259.15200000000004"/>
      <point x="102.476" y="202.982"/>
    </contour>
    <contour>
      <point x="197.066" y="233.412" type="curve" smooth="yes"/>
      <point x="124.736" y="233.412"/>
      <point x="91.494" y="276.24600000000004"/>
      <point x="91.494" y="372.1" type="curve" smooth="yes"/>
      <point x="91.494" y="468.78999999999996"/>
      <point x="124.736" y="511.46"/>
      <point x="197.066" y="511.46" type="curve" smooth="yes"/>
      <point x="269.396" y="511.46"/>
      <point x="302.548" y="468.78999999999996"/>
      <point x="302.548" y="372.1" type="curve" smooth="yes"/>
      <point x="302.548" y="276.24600000000004"/>
      <point x="269.396" y="233.412"/>
    </contour>
    <contour>
      <point x="299.21400000000006" y="476.06399999999996" type="line"/>
      <point x="314.494" y="507.698"/>
      <point x="333.774" y="521.322"/>
      <point x="359.84200000000004" y="521.322" type="curve" smooth="yes"/>
      <point x="368.20200000000006" y="521.322"/>
      <point x="373.08600000000007" y="520.9780000000001"/>
      <point x="378.7" y="519.47" type="curve"/>
      <point x="382.204" y="552.43" type="line"/>
      <point x="374.812" y="554.3879999999999"/>
      <point x="369.43" y="555.0020000000001"/>
      <point x="359.842" y="555.0020000000001" type="curve" smooth="yes"/>
      <point x="324.49199999999996" y="555.0020000000001"/>
      <point x="295.37" y="535.568"/>
      <point x="282.216" y="502.53" type="curve"/>
    </contour>
  </outline>
</glyph>
<glyph name="h" format="2">
  <advance width="398.62300000000005"/>
  <unicode hex="0068"/>
  <anchor x="199.519" y="395.0" name="center"/>
  <anchor x="199.699" y="0.0" name="bottom"/>
  <anchor x="203.043" y="740.0" name="top"/>
  <outline>
    <contour>
      <point x="56.894999999999996" y="0.0" type="line"/>
      <point x="93.23" y="0.0" type="line"/>
      <point x="93.23" y="469.1" type="line"/>
      <point x="132.948" y="492.39000000000004"/>
      <point x="175.171" y="508.66700000000003"/>
      <point x="217.81199999999998" y="508.66700000000003" type="curve" smooth="yes"/>
      <point x="277.386" y="508.66700000000003"/>
      <point x="305.438" y="474.994"/>
      <point x="305.438" y="416.35299999999995" type="curve" smooth="yes"/>
      <point x="305.438" y="0.0" type="line"/>
      <point x="341.818" y="0.0" type="line"/>
      <point x="341.818" y="421.93299999999994" type="line" smooth="yes"/>
      <point x="341.818" y="505.86799999999994"/>
      <point x="297.487" y="541.8"/>
      <point x="231.04399999999998" y="541.8" type="curve" smooth="yes"/>
      <point x="180.40699999999998" y="541.8"/>
      <point x="135.886" y="524.9509999999999"/>
      <point x="93.23" y="501.035" type="curve"/>
      <point x="93.23" y="740.0" type="line"/>
      <point x="56.894999999999996" y="740.0" type="line"/>
    </contour>
  </outline>
</glyph>
<glyph name="i" format="2">
  <advance width="150.07999999999998"/>
  <unicode hex="0069"/>
  <anchor x="92.958" y="0.0" name="ogonek"/>
  <anchor x="75.076" y="0.0" name="bottom"/>
  <outline>
    <contour>
      <point x="75.076" y="667.298" type="curve" smooth="yes"/>
      <point x="95.128" y="667.298"/>
      <point x="98.658" y="671.5559999999999"/>
      <point x="98.658" y="692.668" type="curve" smooth="yes"/>
      <point x="98.658" y="713.9240000000001"/>
      <point x="94.98400000000001" y="718.11"/>
      <point x="75.076" y="718.11" type="curve" smooth="yes"/>
      <point x="55.096000000000004" y="718.11"/>
      <point x="51.422" y="713.9240000000001"/>
      <point x="51.422" y="692.668" type="curve" smooth="yes"/>
      <point x="51.422" y="671.4839999999999"/>
      <point x="56.00600000000001" y="667.298"/>
    </contour>
    <contour>
      <point x="56.94" y="0.0" type="line"/>
      <point x="93.14" y="0.0" type="line"/>
      <point x="93.14" y="531.8" type="line"/>
      <point x="56.94" y="531.8" type="line"/>
    </contour>
  </outline>
</glyph>
<glyph name="j" format="2">
  <advance width="150.22"/>
  <unicode hex="006A"/>
  <outline>
    <contour>
      <point x="93.46199999999999" y="531.8" type="line"/>
      <point x="57.262" y="531.8" type="line"/>
      <point x="57.262" y="15.782" type="line" smooth="yes"/>
      <point x="57.262" y="-77.172"/>
      <point x="37.49" y="-135.762"/>
      <point x="0.2840000000000005" y="-164.882" type="curve" smooth="yes"/>
      <point x="-6.130000000000001" y="-169.61399999999998"/>
      <point x="-12.399999999999999" y="-173.22"/>
      <point x="-19.94" y="-175.772" type="curve"/>
      <point x="-13.692" y="-208.05800000000002" type="line"/>
      <point x="-2.551999999999999" y="-204.59"/>
      <point x="8.058000000000002" y="-199.61599999999999"/>
      <point x="17.656000000000002" y="-194.156" type="curve" smooth="yes"/>
      <point x="68.56400000000001" y="-160.85"/>
      <point x="93.46199999999999" y="-94.46400000000001"/>
      <point x="93.46199999999999" y="14.504" type="curve" smooth="yes"/>
    </contour>
    <contour>
      <point x="75.034" y="667.298" type="curve" smooth="yes"/>
      <point x="94.358" y="667.298"/>
      <point x="98.616" y="671.5559999999999"/>
      <point x="98.616" y="692.668" type="curve" smooth="yes"/>
      <point x="98.616" y="713.9240000000001"/>
      <point x="94.214" y="718.11"/>
      <point x="75.034" y="718.11" type="curve" smooth="yes"/>
      <point x="55.054" y="718.11"/>
      <point x="51.38" y="713.9240000000001"/>
      <point x="51.38" y="692.668" type="curve" smooth="yes"/>
      <point x="51.38" y="671.4839999999999"/>
      <point x="55.964" y="667.298"/>
    </contour>
  </outline>
</glyph>
<glyph name="k" format="2">
  <advance width="365.46"/>
  <unicode hex="006B"/>
  <anchor x="74.58999999999999" y="740.0" name="top"/>
  <anchor x="200.39999999999998" y="0.0" name="bottom"/>
  <outline>
    <contour>
      <point x="352.92" y="-7.2700000000000005" type="curve" smooth="yes"/>
      <point x="359.5" y="-7.2700000000000005"/>
      <point x="366.22" y="-5.45"/>
      <point x="371.71000000000004" y="-3.77" type="curve"/>
      <point x="369.39000000000004" y="33.46" type="line"/>
      <point x="364.89000000000004" y="32.63999999999999"/>
      <point x="359.97999999999996" y="31.64"/>
      <point x="356.48" y="31.64" type="curve" smooth="yes"/>
      <point x="333.99" y="31.64"/>
      <point x="315.50000000000006" y="45.18"/>
      <point x="233.67" y="156.70999999999998" type="curve" smooth="yes"/>
      <point x="92.24" y="349.85" type="line"/>
      <point x="92.24" y="740.0" type="line"/>
      <point x="56.940000000000005" y="740.0" type="line"/>
      <point x="56.940000000000005" y="0.0" type="line"/>
      <point x="92.24" y="0.0" type="line"/>
      <point x="92.24" y="290.82" type="line"/>
      <point x="219.2" y="119.96" type="line" smooth="yes"/>
      <point x="307.19000000000005" y="1.7199999999999998"/>
      <point x="322.26" y="-7.2700000000000005"/>
    </contour>
    <contour>
      <point x="156.56" y="239.70000000000002" type="line"/>
      <point x="220.91000000000003" y="311.81"/>
      <point x="306.33" y="406.64"/>
      <point x="339.44" y="532.71" type="curve"/>
      <point x="305.38000000000005" y="540.8" type="line"/>
      <point x="272.67" y="411.94"/>
      <point x="195.26" y="332.46999999999997"/>
      <point x="133.64000000000001" y="264.17" type="curve"/>
    </contour>
  </outline>
</glyph>
<glyph name="l" format="2">
  <advance width="187.674"/>
  <unicode hex="006C"/>
  <anchor x="94.31" y="395.0" name="center"/>
  <anchor x="75.076" y="740.0" name="top"/>
  <anchor x="165.17999999999998" y="740.0" name="topright"/>
  <anchor x="121.67" y="0.0" name="bottom"/>
  <outline>
    <contour>
      <point x="93.14" y="740.0" type="line"/>
      <point x="56.94" y="740.0" type="line"/>
      <point x="56.94" y="107.226" type="line" smooth="yes"/>
      <point x="56.94" y="11.51"/>
      <point x="86.154" y="-10.0"/>
      <point x="135.746" y="-10.0" type="curve" smooth="yes"/>
      <point x="152.682" y="-10.0"/>
      <point x="171.008" y="-6.01"/>
      <point x="186.726" y="0.51" type="curve"/>
      <point x="181.75400000000002" y="32.508" type="line"/>
      <point x="165.076" y="26.996"/>
      <point x="152.346" y="24.832"/>
      <point x="141.488" y="24.832" type="curve" smooth="yes"/>
      <point x="113.20400000000001" y="24.832"/>
      <point x="93.14" y="38.238"/>
      <point x="93.14" y="109.422" type="curve" smooth="yes"/>
    </contour>
  </outline>
</glyph>
<glyph name="m" format="2">
  <advance width="609.742"/>
  <unicode hex="006D"/>
  <outline>
    <contour>
      <point x="56.94" y="0.0" type="line"/>
      <point x="93.21199999999999" y="0.0" type="line"/>
      <point x="93.21199999999999" y="470.774" type="line"/>
      <point x="128.292" y="492.918"/>
      <point x="166.066" y="507.802"/>
      <point x="204.44" y="507.802" type="curve" smooth="yes"/>
      <point x="268.764" y="507.802"/>
      <point x="287.262" y="463.38400000000007"/>
      <point x="287.262" y="415.488" type="curve" smooth="yes"/>
      <point x="287.262" y="0.0" type="line"/>
      <point x="323.534" y="0.0" type="line"/>
      <point x="323.534" y="416.676" type="line" smooth="yes"/>
      <point x="323.534" y="435.34600000000006"/>
      <point x="320.986" y="453.014"/>
      <point x="315.326" y="468.59" type="curve"/>
      <point x="346.74600000000004" y="489.678"/>
      <point x="389.216" y="508.73"/>
      <point x="433.19599999999997" y="508.73" type="curve" smooth="yes"/>
      <point x="498.23" y="508.73"/>
      <point x="516.6740000000001" y="464.148"/>
      <point x="516.6740000000001" y="416.216" type="curve" smooth="yes"/>
      <point x="516.6740000000001" y="0.0" type="line"/>
      <point x="552.946" y="0.0" type="line"/>
      <point x="552.946" y="422.12" type="line" smooth="yes"/>
      <point x="552.946" y="492.678"/>
      <point x="520.05" y="541.8"/>
      <point x="446.75200000000007" y="541.8" type="curve" smooth="yes"/>
      <point x="385.29999999999995" y="541.8"/>
      <point x="336.49399999999997" y="516.24"/>
      <point x="305.742" y="495.20799999999997" type="curve"/>
      <point x="289.128" y="523.582"/>
      <point x="260.26" y="540.89"/>
      <point x="217.798" y="540.89" type="curve" smooth="yes"/>
      <point x="170.43" y="540.89"/>
      <point x="129.03400000000002" y="524.358"/>
      <point x="91.43" y="502.21200000000005" type="curve"/>
      <point x="91.43" y="531.8" type="line"/>
      <point x="56.94" y="531.8" type="line"/>
    </contour>
  </outline>
</glyph>
<glyph name="n" format="2">
  <advance width="398.61400000000003"/>
  <unicode hex="006E"/>
  <anchor x="203.44" y="531.8" name="top"/>
  <anchor x="205.26" y="0.0" name="bottom"/>
  <outline>
    <contour>
      <point x="56.94" y="0.0" type="line"/>
      <point x="93.21199999999999" y="0.0" type="line"/>
      <point x="93.21199999999999" y="469.136" type="line"/>
      <point x="132.894" y="492.408"/>
      <point x="175.198" y="508.802"/>
      <point x="217.90200000000004" y="508.802" type="curve" smooth="yes"/>
      <point x="277.476" y="508.802"/>
      <point x="305.54600000000005" y="475.06600000000003"/>
      <point x="305.54600000000005" y="416.39799999999997" type="curve" smooth="yes"/>
      <point x="305.54600000000005" y="0.0" type="line"/>
      <point x="341.818" y="0.0" type="line"/>
      <point x="341.818" y="422.30199999999996" type="line" smooth="yes"/>
      <point x="341.818" y="505.14799999999997"/>
      <point x="298.036" y="541.8"/>
      <point x="231.044" y="541.8" type="curve" smooth="yes"/>
      <point x="179.858" y="541.8"/>
      <point x="135.002" y="525.068"/>
      <point x="91.43" y="500.75600000000003" type="curve"/>
      <point x="91.43" y="531.8" type="line"/>
      <point x="56.94" y="531.8" type="line"/>
    </contour>
  </outline>
</glyph>
<glyph name="o" format="2">
  <advance width="395.992"/>
  <unicode hex="006F"/>
  <anchor x="241.044" y="0.756" name="ogonek"/>
  <anchor x="197.996" y="531.8" name="top"/>
  <anchor x="276.512" y="523.62" name="topright"/>
  <anchor x="197.996" y="0.0" name="bottom"/>
  <outline>
    <contour>
      <point x="35.84" y="266.372" type="curve" smooth="yes"/>
      <point x="35.84" y="57.472"/>
      <point x="82.108" y="-10.0"/>
      <point x="197.996" y="-10.0" type="curve" smooth="yes"/>
      <point x="313.88399999999996" y="-10.0"/>
      <point x="360.152" y="57.472"/>
      <point x="360.152" y="266.372" type="curve" smooth="yes"/>
      <point x="360.152" y="472.672"/>
      <point x="317.284" y="541.8"/>
      <point x="197.996" y="541.8" type="curve" smooth="yes"/>
      <point x="78.672" y="541.8"/>
      <point x="35.84" y="472.672"/>
    </contour>
    <contour>
      <point x="72.75999999999999" y="266.37199999999996" type="curve" smooth="yes"/>
      <point x="72.75999999999999" y="452.496"/>
      <point x="105.64" y="509.72"/>
      <point x="197.996" y="509.72" type="curve" smooth="yes"/>
      <point x="290.28000000000003" y="509.72"/>
      <point x="323.19599999999997" y="452.496"/>
      <point x="323.19599999999997" y="266.37199999999996" type="curve" smooth="yes"/>
      <point x="323.19599999999997" y="78.28399999999999"/>
      <point x="287.09599999999995" y="22.151999999999997"/>
      <point x="197.996" y="22.151999999999997" type="curve" smooth="yes"/>
      <point x="108.824" y="22.151999999999997"/>
      <point x="72.75999999999999" y="78.28399999999999"/>
    </contour>
  </outline>
</glyph>
<glyph name="p" format="2">
  <advance width="389.74399999999997"/>
  <unicode hex="0070"/>
  <outline>
    <contour>
      <point x="56.94" y="-210.0" type="line"/>
      <point x="93.22999999999999" y="-210.0" type="line"/>
      <point x="93.22999999999999" y="1.1520000000000004" type="line"/>
      <point x="126.428" y="-6.744"/>
      <point x="153.744" y="-10.0"/>
      <point x="178.736" y="-10.0" type="curve" smooth="yes"/>
      <point x="300.526" y="-10.0"/>
      <point x="353.922" y="73.454"/>
      <point x="353.922" y="278.412" type="curve" smooth="yes"/>
      <point x="353.922" y="448.01800000000003"/>
      <point x="304.63800000000003" y="541.8"/>
      <point x="216.784" y="541.8" type="curve" smooth="yes"/>
      <point x="175.24200000000002" y="541.8"/>
      <point x="132.43800000000002" y="527.452"/>
      <point x="92.294" y="499.924" type="curve"/>
      <point x="91.43" y="539.0799999999999" type="line"/>
      <point x="56.94" y="539.0799999999999" type="line"/>
    </contour>
    <contour>
      <point x="173.20600000000002" y="19.891999999999996" type="curve" smooth="yes"/>
      <point x="151.10399999999998" y="19.891999999999996"/>
      <point x="128.11" y="23.22"/>
      <point x="93.21199999999999" y="31.514" type="curve"/>
      <point x="93.21199999999999" y="468.364" type="line"/>
      <point x="137.48000000000002" y="498.498"/>
      <point x="167.588" y="509.28800000000007"/>
      <point x="205.99800000000002" y="509.28800000000007" type="curve" smooth="yes"/>
      <point x="276.536" y="509.28800000000007"/>
      <point x="316.78600000000006" y="427.628"/>
      <point x="316.78600000000006" y="276.07200000000006" type="curve" smooth="yes"/>
      <point x="316.78600000000006" y="87.302"/>
      <point x="275.08200000000005" y="19.891999999999996"/>
    </contour>
  </outline>
</glyph>
<glyph name="q" format="2">
  <advance width="389.81600000000003"/>
  <unicode hex="0071"/>
  <outline>
    <contour>
      <point x="332.87600000000003" y="524.3" type="line"/>
      <point x="283.43800000000005" y="536.8779999999999"/>
      <point x="248.65" y="541.8"/>
      <point x="214.24800000000002" y="541.8" type="curve" smooth="yes"/>
      <point x="89.794" y="541.8"/>
      <point x="35.822" y="459.642"/>
      <point x="35.822" y="254.82799999999997" type="curve" smooth="yes"/>
      <point x="35.822" y="84.14999999999999"/>
      <point x="85.618" y="-10.0"/>
      <point x="173.536" y="-10.0" type="curve" smooth="yes"/>
      <point x="214.41200000000003" y="-10.0"/>
      <point x="257.43199999999996" y="4.456"/>
      <point x="296.676" y="31.408" type="curve"/>
      <point x="296.676" y="-210.0" type="line"/>
      <point x="332.87600000000003" y="-210.0" type="line"/>
    </contour>
    <contour>
      <point x="296.604" y="499.918" type="curve"/>
      <point x="296.604" y="63.796" type="line"/>
      <point x="252.336" y="33.59"/>
      <point x="222.228" y="22.656"/>
      <point x="183.74599999999998" y="22.656" type="curve" smooth="yes"/>
      <point x="114.00800000000001" y="22.656"/>
      <point x="73.03" y="105.628"/>
      <point x="73.03" y="254.432" type="curve" smooth="yes"/>
      <point x="73.03" y="444.49800000000005"/>
      <point x="114.734" y="512.052"/>
      <point x="216.682" y="512.052" type="curve" smooth="yes"/>
      <point x="237.93" y="512.052"/>
      <point x="261.706" y="508.796"/>
    </contour>
  </outline>
</glyph>
<glyph name="r" format="2">
  <advance width="280.944"/>
  <unicode hex="0072"/>
  <anchor x="164.064" y="531.8" name="top"/>
  <anchor x="75.004" y="0.0" name="bottom"/>
  <outline>
    <contour>
      <point x="91.358" y="531.8" type="line"/>
      <point x="56.94" y="531.8" type="line"/>
      <point x="56.94" y="0.0" type="line"/>
      <point x="93.068" y="0.0" type="line"/>
      <point x="93.068" y="442.224" type="line"/>
      <point x="136.56" y="488.95"/>
      <point x="176.564" y="507.038"/>
      <point x="217.47599999999997" y="507.038" type="curve" smooth="yes"/>
      <point x="235.154" y="507.038"/>
      <point x="255.3" y="504.018"/>
      <point x="273.572" y="498.83599999999996" type="curve"/>
      <point x="280.89200000000005" y="532.5459999999999" type="line"/>
      <point x="263.024" y="538.544"/>
      <point x="241.328" y="541.8"/>
      <point x="219.556" y="541.8" type="curve" smooth="yes"/>
      <point x="173.576" y="541.8"/>
      <point x="130.79199999999997" y="521.524"/>
      <point x="91.358" y="480.802" type="curve"/>
    </contour>
  </outline>
</glyph>
<glyph name="s" format="2">
  <advance width="324.13000000000005"/>
  <unicode hex="0073"/>
  <anchor x="159.76000000000002" y="531.8" name="top"/>
  <anchor x="158.11999999999998" y="0.0" name="bottom"/>
  <outline>
    <contour>
      <point x="13.68" y="15.949999999999998" type="line"/>
      <point x="47.199999999999996" y="-1.0"/>
      <point x="99.42999999999999" y="-10.0"/>
      <point x="147.82" y="-10.0" type="curve" smooth="yes"/>
      <point x="241.65" y="-10.0"/>
      <point x="303.39" y="35.260000000000005"/>
      <point x="303.39" y="123.12" type="curve" smooth="yes"/>
      <point x="303.39" y="210.72"/>
      <point x="249.58" y="249.64"/>
      <point x="176.22" y="287.02000000000004" type="curve" smooth="yes"/>
      <point x="117.99" y="318.13"/>
      <point x="66.5" y="350.53"/>
      <point x="66.5" y="415.99" type="curve" smooth="yes"/>
      <point x="66.5" y="471.76"/>
      <point x="106.66999999999999" y="508.39000000000004"/>
      <point x="177.95" y="508.39000000000004" type="curve" smooth="yes"/>
      <point x="212.84" y="508.39000000000004"/>
      <point x="245.88" y="500.8"/>
      <point x="271.36" y="491.76" type="curve"/>
      <point x="280.39" y="522.8100000000001" type="line"/>
      <point x="253.76999999999998" y="533.94"/>
      <point x="215.60999999999999" y="541.8"/>
      <point x="177.68" y="541.8" type="curve" smooth="yes"/>
      <point x="82.04" y="541.8"/>
      <point x="31.11" y="490.17999999999995"/>
      <point x="31.11" y="414.01" type="curve" smooth="yes"/>
      <point x="31.11" y="333.73999999999995"/>
      <point x="86.41" y="292.34000000000003"/>
      <point x="152.85" y="257.69" type="curve" smooth="yes"/>
      <point x="223.85999999999999" y="222.44"/>
      <point x="267.73" y="188.91"/>
      <point x="267.73" y="121.68" type="curve" smooth="yes"/>
      <point x="267.73" y="58.08"/>
      <point x="221.05" y="23.05"/>
      <point x="147.64000000000001" y="23.05" type="curve" smooth="yes"/>
      <point x="104.87" y="23.05"/>
      <point x="54.57" y="31.73"/>
      <point x="23.669999999999998" y="46.14" type="curve"/>
    </contour>
  </outline>
</glyph>
<glyph name="t" format="2">
  <advance width="286.254"/>
  <unicode hex="0074"/>
  <anchor x="142.732" y="275.0" name="center"/>
  <anchor x="105.95599999999999" y="664.208" name="top"/>
  <anchor x="233.878" y="752.71" name="topright"/>
  <anchor x="174.64800000000002" y="0.0" name="bottom"/>
  <outline>
    <contour>
      <point x="196.71200000000002" y="-10.0" type="curve" smooth="yes"/>
      <point x="221.002" y="-10.0"/>
      <point x="251.272" y="-5.728"/>
      <point x="283.944" y="4.934000000000001" type="curve"/>
      <point x="277.456" y="35.769999999999996" type="line"/>
      <point x="253.086" y="27.619999999999997"/>
      <point x="229.04" y="23.599999999999998"/>
      <point x="204.172" y="23.599999999999998" type="curve" smooth="yes"/>
      <point x="144.422" y="23.599999999999998"/>
      <point x="120.41000000000001" y="55.296"/>
      <point x="120.41000000000001" y="130.148" type="curve" smooth="yes"/>
      <point x="120.41000000000001" y="500.306" type="line"/>
      <point x="272.974" y="500.306" type="line"/>
      <point x="272.974" y="531.8" type="line"/>
      <point x="120.41000000000001" y="531.8" type="line"/>
      <point x="120.41000000000001" y="664.208" type="line"/>
      <point x="90.77399999999999" y="664.208" type="line"/>
      <point x="84.21000000000001" y="531.8" type="line"/>
      <point x="8.440000000000001" y="525.73" type="line"/>
      <point x="8.440000000000001" y="500.37800000000004" type="line"/>
      <point x="84.21000000000001" y="500.37800000000004" type="line"/>
      <point x="84.21000000000001" y="128.31199999999998" type="line" smooth="yes"/>
      <point x="84.21000000000001" y="43.518"/>
      <point x="111.60000000000001" y="-10.0"/>
    </contour>
  </outline>
</glyph>
<glyph name="u" format="2">
  <advance width="401.83599999999996"/>
  <unicode hex="0075"/>
  <anchor x="400.054" y="0.8359999999999999" name="ogonek"/>
  <anchor x="195.156" y="531.8" name="top"/>
  <anchor x="333.776" y="531.8" name="topright"/>
  <anchor x="201.33599999999998" y="0.0" name="bottom"/>
  <outline>
    <contour>
      <point x="165.30599999999998" y="-10.0" type="curve" smooth="yes"/>
      <point x="215.24800000000005" y="-10.0"/>
      <point x="258.902" y="7.236000000000001"/>
      <point x="302.194" y="32.394" type="curve"/>
      <point x="308.14" y="4.521999999999999"/>
      <point x="330.35" y="-10.0"/>
      <point x="355.652" y="-10.0" type="curve" smooth="yes"/>
      <point x="370.144" y="-10.0"/>
      <point x="384.392" y="-6.755999999999999"/>
      <point x="400.054" y="0.8359999999999999" type="curve"/>
      <point x="392.64200000000005" y="30.596" type="line"/>
      <point x="382.982" y="25.901999999999997"/>
      <point x="373.50600000000003" y="23.810000000000002"/>
      <point x="364.32" y="23.810000000000002" type="curve" smooth="yes"/>
      <point x="346.05600000000004" y="23.810000000000002"/>
      <point x="333.776" y="35.38"/>
      <point x="333.776" y="68.392" type="curve" smooth="yes"/>
      <point x="333.776" y="531.8" type="line"/>
      <point x="297.576" y="531.8" type="line"/>
      <point x="297.576" y="62.37400000000001" type="line"/>
      <point x="259.988" y="39.34"/>
      <point x="218.538" y="22.926"/>
      <point x="177.854" y="22.926" type="curve" smooth="yes"/>
      <point x="121.15599999999999" y="22.926"/>
      <point x="93.068" y="55.752"/>
      <point x="93.068" y="111.51" type="curve" smooth="yes"/>
      <point x="93.068" y="531.8" type="line"/>
      <point x="56.796" y="531.8" type="line"/>
      <point x="56.796" y="107.65799999999999" type="line" smooth="yes"/>
      <point x="56.796" y="25.68"/>
      <point x="101.21600000000001" y="-10.0"/>
    </contour>
  </outline>
</glyph>
<glyph name="v" format="2">
  <advance width="358.59900000000005"/>
  <unicode hex="0076"/>
  <outline>
    <contour>
      <point x="160.56400000000002" y="0.0" type="line"/>
      <point x="197.673" y="0.0" type="line"/>
      <point x="345.816" y="529.2520000000001" type="line"/>
      <point x="309.08400000000006" y="534.348" type="line"/>
      <point x="179.683" y="53.242" type="line"/>
      <point x="49.65" y="534.348" type="line"/>
      <point x="12.738" y="529.2520000000001" type="line"/>
    </contour>
  </outline>
</glyph>
<glyph name="w" format="2">
  <advance width="531.866"/>
  <unicode hex="0077"/>
  <anchor x="265.692" y="531.8" name="top"/>
  <anchor x="265.692" y="0.0" name="bottom"/>
  <outline>
    <contour>
      <point x="126.652" y="0.0" type="line"/>
      <point x="164.104" y="0.0" type="line"/>
      <point x="265.63800000000003" y="471.898" type="line"/>
      <point x="368.15400000000005" y="0.0" type="line"/>
      <point x="405.24600000000004" y="0.0" type="line"/>
      <point x="520.834" y="528.606" type="line"/>
      <point x="485.15200000000004" y="533.638" type="line"/>
      <point x="386.496" y="55.88" type="line"/>
      <point x="284.45799999999997" y="531.8" type="line"/>
      <point x="246.90800000000002" y="531.8" type="line"/>
      <point x="146.68999999999997" y="55.434000000000005" type="line"/>
      <point x="46.965999999999994" y="533.638" type="line"/>
      <point x="10.532" y="528.606" type="line"/>
    </contour>
  </outline>
</glyph>
<glyph name="x" format="2">
  <advance width="377.89"/>
  <unicode hex="0078"/>
  <outline>
    <contour>
      <point x="9.69" y="-2.7299999999999995" type="line"/>
      <point x="46.495" y="-8.6" type="line"/>
      <point x="188.32999999999998" y="243.86" type="line"/>
      <point x="331.98499999999996" y="-8.6" type="line"/>
      <point x="369.155" y="-2.7299999999999995" type="line"/>
      <point x="211.76500000000001" y="272.04" type="line"/>
      <point x="356.785" y="529.0699999999999" type="line"/>
      <point x="320.65000000000003" y="535.0300000000001" type="line"/>
      <point x="190.18999999999997" y="301.41499999999996" type="line"/>
      <point x="58.91" y="535.4849999999999" type="line"/>
      <point x="21.92" y="528.205" type="line"/>
      <point x="166.48500000000004" y="273.68" type="line"/>
    </contour>
  </outline>
</glyph>
<glyph name="y" format="2">
  <advance width="359.159"/>
  <unicode hex="0079"/>
  <anchor x="177.873" y="531.8" name="top"/>
  <anchor x="287.095" y="0.0" name="bottom"/>
  <outline>
    <contour>
      <point x="125.57600000000001" y="-207.65200000000002" type="line"/>
      <point x="163.02200000000002" y="-213.184" type="line"/>
      <point x="345.03700000000003" y="530.1800000000001" type="line"/>
      <point x="307.959" y="534.912" type="line"/>
      <point x="192.16400000000002" y="48.068" type="line"/>
      <point x="50.95399999999999" y="535.076" type="line"/>
      <point x="13.466" y="529.98" type="line"/>
      <point x="170.927" y="0.0" type="line"/>
      <point x="176.116" y="0.0" type="line"/>
    </contour>
  </outline>
</glyph>
<glyph name="z" format="2">
  <advance width="350.739"/>
  <unicode hex="007A"/>
  <anchor x="177.72799999999998" y="531.8" name="top"/>
  <outline>
    <contour>
      <point x="23.251" y="0.0" type="line"/>
      <point x="333.85799999999995" y="0.0" type="line"/>
      <point x="333.85799999999995" y="32.664" type="line"/>
      <point x="66.254" y="32.664" type="line"/>
      <point x="315.446" y="502.055" type="line"/>
      <point x="315.446" y="531.8" type="line"/>
      <point x="36.827000000000005" y="531.8" type="line"/>
      <point x="36.827000000000005" y="499.316" type="line"/>
      <point x="273.5040000000001" y="499.316" type="line"/>
      <point x="23.251" y="29.97" type="line"/>
    </contour>
  </outline>
</glyph>
<glyph name="braceleft" format="2">
  <advance width="252.252"/>
  <unicode hex="007B"/>
  <outline>
    <contour>
      <point x="89.638" y="-68.744" type="curve" smooth="yes"/>
      <point x="89.638" y="-146.328"/>
      <point x="118.102" y="-210.072"/>
      <point x="189.24" y="-210.072" type="curve" smooth="yes"/>
      <point x="219.688" y="-210.072" type="line"/>
      <point x="219.688" y="-178.37199999999999" type="line"/>
      <point x="193.92" y="-178.37199999999999" type="line" smooth="yes"/>
      <point x="140.61999999999998" y="-178.37199999999999"/>
      <point x="122.81400000000001" y="-126.24799999999999"/>
      <point x="122.81400000000001" y="-66.494" type="curve" smooth="yes"/>
      <point x="122.81400000000001" y="13.633999999999999"/>
      <point x="155.202" y="77.472"/>
      <point x="155.202" y="161.868" type="curve" smooth="yes"/>
      <point x="155.202" y="197.856"/>
      <point x="145.20600000000002" y="248.076"/>
      <point x="112.04599999999999" y="265.0" type="curve"/>
      <point x="145.024" y="286.112"/>
      <point x="155.202" y="331.70799999999997"/>
      <point x="155.202" y="367.696" type="curve" smooth="yes"/>
      <point x="155.202" y="447.724"/>
      <point x="122.81400000000001" y="510.652"/>
      <point x="122.81400000000001" y="596.058" type="curve" smooth="yes"/>
      <point x="122.81400000000001" y="655.812"/>
      <point x="140.61999999999998" y="708.3000000000001"/>
      <point x="193.92" y="708.3000000000001" type="curve" smooth="yes"/>
      <point x="219.688" y="708.3000000000001" type="line"/>
      <point x="219.688" y="740.0" type="line"/>
      <point x="189.24" y="740.0" type="line" smooth="yes"/>
      <point x="118.102" y="740.0"/>
      <point x="89.638" y="675.892"/>
      <point x="89.638" y="598.3079999999999" type="curve" smooth="yes"/>
      <point x="89.638" y="504.21"/>
      <point x="122.74600000000001" y="444.922"/>
      <point x="122.74600000000001" y="366.886" type="curve" smooth="yes"/>
      <point x="122.74600000000001" y="328.88"/>
      <point x="112.34200000000001" y="281.12"/>
      <point x="84.158" y="281.12" type="curve" smooth="yes"/>
      <point x="63.57199999999999" y="281.12" type="line"/>
      <point x="63.57199999999999" y="248.808" type="line"/>
      <point x="84.158" y="248.808" type="line" smooth="yes"/>
      <point x="112.34200000000001" y="248.808"/>
      <point x="122.74600000000001" y="201.412"/>
      <point x="122.74600000000001" y="162.678" type="curve" smooth="yes"/>
      <point x="122.74600000000001" y="82.82200000000002"/>
      <point x="89.638" y="19.894000000000002"/>
    </contour>
  </outline>
</glyph>
<glyph name="bar" format="2">
  <advance width="152.672"/>
  <unicode hex="007C"/>
  <outline>
    <contour>
      <point x="92.906" y="790.072" type="line"/>
      <point x="59.766" y="790.072" type="line"/>
      <point x="59.766" y="-210.0" type="line"/>
      <point x="92.906" y="-210.0" type="line"/>
    </contour>
  </outline>
</glyph>
<glyph name="braceright" format="2">
  <advance width="252.252"/>
  <unicode hex="007D"/>
  <outline>
    <contour>
      <point x="32.564" y="-178.37199999999999" type="line"/>
      <point x="32.564" y="-210.072" type="line"/>
      <point x="63.74" y="-210.072" type="line" smooth="yes"/>
      <point x="134.87800000000001" y="-210.072"/>
      <point x="163.342" y="-146.328"/>
      <point x="163.342" y="-68.744" type="curve" smooth="yes"/>
      <point x="163.342" y="19.894000000000002"/>
      <point x="130.23399999999998" y="82.82200000000002"/>
      <point x="130.23399999999998" y="162.678" type="curve" smooth="yes"/>
      <point x="130.23399999999998" y="201.412"/>
      <point x="140.638" y="248.808"/>
      <point x="168.82200000000003" y="248.808" type="curve" smooth="yes"/>
      <point x="188.68" y="248.808" type="line"/>
      <point x="188.68" y="281.12" type="line"/>
      <point x="168.82200000000003" y="281.12" type="line" smooth="yes"/>
      <point x="139.91" y="281.12"/>
      <point x="130.23399999999998" y="328.88"/>
      <point x="130.23399999999998" y="366.886" type="curve" smooth="yes"/>
      <point x="130.23399999999998" y="444.922"/>
      <point x="163.342" y="504.21"/>
      <point x="163.342" y="598.3079999999999" type="curve" smooth="yes"/>
      <point x="163.342" y="675.892"/>
      <point x="134.87800000000001" y="740.0"/>
      <point x="63.74" y="740.0" type="curve" smooth="yes"/>
      <point x="32.564" y="740.0" type="line"/>
      <point x="32.564" y="708.3000000000001" type="line"/>
      <point x="57.836" y="708.3000000000001" type="line" smooth="yes"/>
      <point x="110.408" y="708.3000000000001"/>
      <point x="128.942" y="655.812"/>
      <point x="128.942" y="596.058" type="curve" smooth="yes"/>
      <point x="128.942" y="510.652"/>
      <point x="96.554" y="447.724"/>
      <point x="96.554" y="367.696" type="curve" smooth="yes"/>
      <point x="96.554" y="331.70799999999997"/>
      <point x="106.004" y="286.112"/>
      <point x="139.71" y="265.0" type="curve"/>
      <point x="105.822" y="248.076"/>
      <point x="96.554" y="197.856"/>
      <point x="96.554" y="161.868" type="curve" smooth="yes"/>
      <point x="96.554" y="77.472"/>
      <point x="128.942" y="13.633999999999999"/>
      <point x="128.942" y="-66.494" type="curve" smooth="yes"/>
      <point x="128.942" y="-126.24799999999999"/>
      <point x="110.408" y="-178.37199999999999"/>
      <point x="57.836" y="-178.37199999999999" type="curve" smooth="yes"/>
    </contour>
  </outline>
</glyph>
<glyph name="asciitilde" format="2">
  <advance width="415.596"/>
  <unicode hex="007E"/>
  <outline>
    <contour>
      <point x="357.81" y="253.002" type="curve"/>
      <point x="357.81" y="290.51" type="line"/>
      <point x="338.254" y="265.692"/>
      <point x="321.012" y="251.96"/>
      <point x="295.074" y="251.96" type="curve" smooth="yes"/>
      <point x="229.222" y="251.96"/>
      <point x="191.964" y="364.732"/>
      <point x="121.86200000000001" y="364.732" type="curve" smooth="yes"/>
      <point x="93.522" y="364.732"/>
      <point x="74.596" y="351.746"/>
      <point x="58.532" y="330.914" type="curve"/>
      <point x="58.532" y="293.224" type="line"/>
      <point x="75.992" y="316.34600000000006"/>
      <point x="94.19200000000001" y="331.52000000000004"/>
      <point x="121.29999999999998" y="331.52000000000004" type="curve" smooth="yes"/>
      <point x="182.13599999999997" y="331.52000000000004"/>
      <point x="220.33800000000002" y="218.73000000000002"/>
      <point x="294.72799999999995" y="218.73000000000002" type="curve" smooth="yes"/>
      <point x="322.96" y="218.73000000000002"/>
      <point x="340.164" y="230.622"/>
    </contour>
  </outline>
</glyph>
<glyph name="exclamdown" format="2">
  <advance width="165.564"/>
  <unicode hex="00A1"/>
  <outline>
    <contour>
      <point x="99.748" y="268.232" type="line"/>
      <point x="66.086" y="268.232" type="line"/>
      <point x="64.574" y="-208.218" type="line"/>
      <point x="101.044" y="-208.218" type="line"/>
    </contour>
    <contour>
      <point x="105.69800000000001" y="506.75399999999996" type="curve" smooth="yes"/>
      <point x="105.69800000000001" y="528.28"/>
      <point x="102.69" y="532.7"/>
      <point x="82.782" y="532.7" type="curve" smooth="yes"/>
      <point x="63.78399999999999" y="532.7"/>
      <point x="59.866" y="528.28"/>
      <point x="59.866" y="506.75399999999996" type="curve" smooth="yes"/>
      <point x="59.866" y="485.138"/>
      <point x="62.873999999999995" y="480.718"/>
      <point x="82.782" y="480.718" type="curve" smooth="yes"/>
      <point x="102.69" y="480.718"/>
      <point x="105.69800000000001" y="485.138"/>
    </contour>
  </outline>
</glyph>
<glyph name="cent" format="2">
  <advance width="419.32800000000003"/>
  <unicode hex="00A2"/>
  <outline>
    <contour>
      <point x="234.29600000000002" y="-10.072" type="curve" smooth="yes"/>
      <point x="268.576" y="-10.072"/>
      <point x="308.33200000000005" y="-4.949999999999999"/>
      <point x="339.916" y="4.15" type="curve"/>
      <point x="333.09" y="36.06" type="line"/>
      <point x="303.66" y="28.716"/>
      <point x="269.216" y="24.752"/>
      <point x="239.46800000000002" y="24.752" type="curve" smooth="yes"/>
      <point x="157.32399999999998" y="24.752"/>
      <point x="117.384" y="98.16"/>
      <point x="117.384" y="255.074" type="curve" smooth="yes"/>
      <point x="117.384" y="427.03200000000004"/>
      <point x="163.13400000000001" y="506.886"/>
      <point x="245.53" y="506.886" type="curve" smooth="yes"/>
      <point x="274.928" y="506.886"/>
      <point x="297.14000000000004" y="503.35999999999996"/>
      <point x="325.84999999999997" y="495.55799999999994" type="curve"/>
      <point x="332.97200000000004" y="528.206" type="line"/>
      <point x="303.306" y="537.388"/>
      <point x="273.716" y="541.9440000000001"/>
      <point x="241.534" y="541.9440000000001" type="curve" smooth="yes"/>
      <point x="131.95200000000003" y="541.9440000000001"/>
      <point x="80.572" y="442.50999999999993"/>
      <point x="80.572" y="254.53400000000002" type="curve" smooth="yes"/>
      <point x="80.572" y="75.884"/>
      <point x="129.126" y="-10.072"/>
    </contour>
    <contour>
      <point x="208.836" y="-105.072" type="line"/>
      <point x="242.246" y="-105.072" type="line"/>
      <point x="242.246" y="-3.2159999999999997" type="line"/>
      <point x="208.836" y="-0.4580000000000001" type="line"/>
    </contour>
    <contour>
      <point x="208.836" y="531.114" type="line"/>
      <point x="242.246" y="535.432" type="line"/>
      <point x="242.246" y="636.7280000000001" type="line"/>
      <point x="208.836" y="636.7280000000001" type="line"/>
    </contour>
  </outline>
</glyph>
<glyph name="sterling" format="2">
  <advance width="419.43600000000004"/>
  <unicode hex="00A3"/>
  <outline>
    <contour>
      <point x="62.852000000000004" y="0.0" type="line"/>
      <point x="379.51399999999995" y="0.0" type="line"/>
      <point x="379.51399999999995" y="33.41" type="line"/>
      <point x="103.36" y="33.41" type="line"/>
      <point x="156.676" y="109.1"/>
      <point x="185.94600000000003" y="158.988"/>
      <point x="185.94600000000003" y="242.67399999999998" type="curve" smooth="yes"/>
      <point x="185.94600000000003" y="345.132"/>
      <point x="121.59800000000001" y="405.0"/>
      <point x="121.59800000000001" y="516.0440000000001" type="curve" smooth="yes"/>
      <point x="121.59800000000001" y="629.76"/>
      <point x="178.152" y="674.9699999999999"/>
      <point x="255.08599999999998" y="674.9699999999999" type="curve" smooth="yes"/>
      <point x="285.372" y="674.9699999999999"/>
      <point x="325.53" y="668.896"/>
      <point x="355.40799999999996" y="660.3140000000001" type="curve"/>
      <point x="363.15" y="690.3800000000001" type="line"/>
      <point x="335.186" y="702.2220000000001"/>
      <point x="285.752" y="710.0"/>
      <point x="251.48600000000002" y="710.0" type="curve" smooth="yes"/>
      <point x="142.74800000000002" y="710.0"/>
      <point x="84.498" y="633.672"/>
      <point x="84.498" y="521.8199999999999" type="curve" smooth="yes"/>
      <point x="84.498" y="394.752"/>
      <point x="150.556" y="343.8"/>
      <point x="150.556" y="240.72600000000003" type="curve" smooth="yes"/>
      <point x="150.556" y="160.268"/>
      <point x="123.63" y="118.78599999999999"/>
      <point x="62.852000000000004" y="29.81" type="curve"/>
    </contour>
    <contour>
      <point x="46.53" y="357.36" type="line"/>
      <point x="317.14" y="357.36" type="line"/>
      <point x="317.14" y="387.53000000000003" type="line"/>
      <point x="46.53" y="387.53000000000003" type="line"/>
    </contour>
  </outline>
</glyph>
<glyph name="currency" format="2">
  <advance width="426.33"/>
  <unicode hex="00A4"/>
  <outline>
    <contour>
      <point x="35.244" y="445.096" type="line"/>
      <point x="106.796" y="372.544" type="line"/>
      <point x="89.236" y="350.462"/>
      <point x="78.172" y="321.992"/>
      <point x="78.172" y="289.846" type="curve" smooth="yes"/>
      <point x="78.172" y="257.60999999999996"/>
      <point x="89.236" y="228.978"/>
      <point x="107.796" y="206.824" type="curve"/>
      <point x="35.244" y="134.272" type="line"/>
      <point x="58.208000000000006" y="111.308" type="line"/>
      <point x="131.624" y="184.70600000000002" type="line"/>
      <point x="153.43599999999998" y="166.326"/>
      <point x="181.78" y="156.316"/>
      <point x="212.87199999999999" y="156.316" type="curve" smooth="yes"/>
      <point x="243.856" y="156.316"/>
      <point x="272.912" y="166.344"/>
      <point x="294.688" y="184.65200000000002" type="curve"/>
      <point x="368.122" y="111.308" type="line"/>
      <point x="391.086" y="134.272" type="line"/>
      <point x="318.732" y="206.554" type="line"/>
      <point x="337.32800000000003" y="228.834"/>
      <point x="348.464" y="257.502"/>
      <point x="348.464" y="289.846" type="curve" smooth="yes"/>
      <point x="348.464" y="322.028"/>
      <point x="337.346" y="350.606"/>
      <point x="318.804" y="372.81399999999996" type="curve"/>
      <point x="391.086" y="445.096" type="line"/>
      <point x="368.122" y="468.06" type="line"/>
      <point x="294.976" y="394.914" type="line"/>
      <point x="273.128" y="413.24"/>
      <point x="244.838" y="424.25"/>
      <point x="212.87199999999999" y="424.25" type="curve" smooth="yes"/>
      <point x="180.726" y="424.25"/>
      <point x="152.38199999999998" y="413.16799999999995"/>
      <point x="130.426" y="394.86" type="curve"/>
      <point x="58.208000000000006" y="468.06" type="line"/>
    </contour>
    <contour>
      <point x="212.85399999999998" y="185.136" type="curve" smooth="yes"/>
      <point x="154.706" y="185.136"/>
      <point x="108.21600000000001" y="231.60799999999998"/>
      <point x="108.21600000000001" y="289.774" type="curve" smooth="yes"/>
      <point x="108.21600000000001" y="348.652"/>
      <point x="154.688" y="395.358"/>
      <point x="212.85399999999998" y="395.358" type="curve" smooth="yes"/>
      <point x="271.93" y="395.358"/>
      <point x="318.42" y="348.652"/>
      <point x="318.42" y="289.774" type="curve" smooth="yes"/>
      <point x="318.42" y="231.60799999999998"/>
      <point x="271.912" y="185.136"/>
    </contour>
  </outline>
</glyph>
<glyph name="yen" format="2">
  <advance width="419.6"/>
  <unicode hex="00A5"/>
  <outline>
    <contour>
      <point x="66.10000000000001" y="357.18" type="line"/>
      <point x="195.07000000000002" y="357.18" type="line"/>
      <point x="195.07000000000002" y="228.07" type="line"/>
      <point x="66.10000000000001" y="228.07" type="line"/>
      <point x="66.10000000000001" y="199.42999999999998" type="line"/>
      <point x="195.07000000000002" y="199.42999999999998" type="line"/>
      <point x="195.07000000000002" y="0.0" type="line"/>
      <point x="231.9" y="0.0" type="line"/>
      <point x="231.9" y="199.42999999999998" type="line"/>
      <point x="361.05" y="199.42999999999998" type="line"/>
      <point x="361.05" y="228.07" type="line"/>
      <point x="231.9" y="228.07" type="line"/>
      <point x="231.9" y="357.18" type="line"/>
      <point x="361.05" y="357.18" type="line"/>
      <point x="361.05" y="385.73" type="line"/>
      <point x="231.9" y="385.73" type="line"/>
      <point x="373.52000000000004" y="696.3599999999999" type="line"/>
      <point x="336.79999999999995" y="703.73" type="line"/>
      <point x="213.44" y="420.73" type="line"/>
      <point x="82.89" y="703.73" type="line"/>
      <point x="46.17" y="696.3599999999999" type="line"/>
      <point x="195.07000000000002" y="385.73" type="line"/>
      <point x="66.10000000000001" y="385.73" type="line"/>
    </contour>
  </outline>
</glyph>
<glyph name="brokenbar" format="2">
  <advance width="152.6"/>
  <unicode hex="00A6"/>
  <outline>
    <contour>
      <point x="92.834" y="391.0" type="line"/>
      <point x="92.834" y="790.072" type="line"/>
      <point x="59.766" y="790.072" type="line"/>
      <point x="59.766" y="391.0" type="line"/>
    </contour>
    <contour>
      <point x="59.766" y="190.072" type="line"/>
      <point x="59.766" y="-210.0" type="line"/>
      <point x="92.834" y="-210.0" type="line"/>
      <point x="92.834" y="190.072" type="line"/>
    </contour>
  </outline>
</glyph>
<glyph name="section" format="2">
  <advance width="388.567"/>
  <unicode hex="00A7"/>
  <outline>
    <contour>
      <point x="159.3" y="-220.135" type="curve" smooth="yes"/>
      <point x="282.18" y="-220.135"/>
      <point x="362.96000000000004" y="-105.087"/>
      <point x="362.96000000000004" y="51.279" type="curve" smooth="yes"/>
      <point x="362.96000000000004" y="138.89700000000002"/>
      <point x="342.706" y="219.784"/>
      <point x="272.87899999999996" y="409.55899999999997" type="curve" smooth="yes"/>
      <point x="217.914" y="561.5740000000001"/>
      <point x="208.088" y="588.6279999999999"/>
      <point x="208.088" y="630.1139999999999" type="curve" smooth="yes"/>
      <point x="208.088" y="682.073"/>
      <point x="235.008" y="712.8129999999999"/>
      <point x="279.03099999999995" y="712.8129999999999" type="curve" smooth="yes"/>
      <point x="295.7" y="712.8129999999999"/>
      <point x="312.041" y="709.9029999999999"/>
      <point x="334.141" y="700.919" type="curve"/>
      <point x="344.288" y="731.8459999999999" type="line"/>
      <point x="315.359" y="744.132"/>
      <point x="284.61699999999996" y="749.2990000000001"/>
      <point x="253.50199999999998" y="749.2990000000001" type="curve" smooth="yes"/>
      <point x="122.54899999999999" y="749.2990000000001"/>
      <point x="41.92" y="649.206"/>
      <point x="41.550000000000004" y="482.72700000000003" type="curve" smooth="yes"/>
      <point x="41.77499999999999" y="390.03499999999997"/>
      <point x="62.65" y="302.41700000000003"/>
      <point x="129.322" y="131.255" type="curve" smooth="yes"/>
      <point x="178.155" y="-3.022999999999999"/>
      <point x="196.515" y="-53.34499999999999"/>
      <point x="196.67899999999997" y="-100.56400000000001" type="curve" smooth="yes"/>
      <point x="196.843" y="-151.912"/>
      <point x="169.399" y="-182.083"/>
      <point x="126.34400000000001" y="-182.083" type="curve" smooth="yes"/>
      <point x="97.916" y="-182.083"/>
      <point x="73.591" y="-171.832"/>
      <point x="38.719" y="-142.796" type="curve"/>
      <point x="25.067" y="-172.424" type="line"/>
      <point x="69.993" y="-208.02900000000002"/>
      <point x="105.14300000000001" y="-220.135"/>
    </contour>
    <contour>
      <point x="159.892" y="-196.206" type="curve" smooth="yes"/>
      <point x="137.908" y="-196.206"/>
      <point x="123.23300000000002" y="-193.727"/>
      <point x="110.49700000000001" y="-189.007" type="curve"/>
      <point x="128.779" y="-202.656" type="line"/>
      <point x="186.566" y="-202.685"/>
      <point x="225.86800000000002" y="-160.975"/>
      <point x="225.86800000000002" y="-100.995" type="curve" smooth="yes"/>
      <point x="225.86800000000002" y="-53.528999999999996"/>
      <point x="211.71699999999998" y="-0.8059999999999988"/>
      <point x="157.45000000000002" y="143.43" type="curve" smooth="yes"/>
      <point x="90.308" y="324.111"/>
      <point x="71.91900000000001" y="393.25600000000003"/>
      <point x="71.91900000000001" y="485.247" type="curve" smooth="yes"/>
      <point x="71.91900000000001" y="627.404"/>
      <point x="139.55700000000002" y="720.4320000000001"/>
      <point x="237.691" y="720.4320000000001" type="curve" smooth="yes"/>
      <point x="245.848" y="720.4320000000001"/>
      <point x="252.478" y="719.863"/>
      <point x="262.259" y="717.754" type="curve"/>
      <point x="251.057" y="729.467" type="line"/>
      <point x="205.33" y="720.5279999999999"/>
      <point x="177.362" y="680.207"/>
      <point x="177.108" y="630.7309999999999" type="curve" smooth="yes"/>
      <point x="177.108" y="584.5319999999999"/>
      <point x="189.661" y="541.8090000000001"/>
      <point x="243.73499999999999" y="399.52500000000003" type="curve" smooth="yes"/>
      <point x="314.147" y="206.99200000000002"/>
      <point x="333.65200000000004" y="132.882"/>
      <point x="333.65200000000004" y="49.209" type="curve" smooth="yes"/>
      <point x="333.816" y="-91.76099999999998"/>
      <point x="267.97600000000006" y="-196.04199999999997"/>
    </contour>
  </outline>
</glyph>
<glyph name="copyright" format="2">
  <advance width="478.92400000000004"/>
  <unicode hex="00A9"/>
  <outline>
    <contour>
      <point x="239.48000000000002" y="11.991999999999999" type="curve" smooth="yes"/>
      <point x="132.304" y="11.991999999999999"/>
      <point x="62.919999999999995" y="94.47599999999998"/>
      <point x="62.919999999999995" y="350.036" type="curve" smooth="yes"/>
      <point x="62.919999999999995" y="606.36"/>
      <point x="132.34" y="688.0079999999999"/>
      <point x="239.48000000000002" y="688.0079999999999" type="curve" smooth="yes"/>
      <point x="346.8" y="688.0079999999999"/>
      <point x="415.932" y="606.36"/>
      <point x="415.932" y="350.036" type="curve" smooth="yes"/>
      <point x="415.932" y="94.47599999999998"/>
      <point x="346.83599999999996" y="11.991999999999999"/>
    </contour>
    <contour>
      <point x="239.48000000000002" y="710.0" type="curve" smooth="yes"/>
      <point x="116.69200000000001" y="710.0"/>
      <point x="40.46" y="623.512"/>
      <point x="40.46" y="350.036" type="curve" smooth="yes"/>
      <point x="40.46" y="77.36"/>
      <point x="116.656" y="-10.0"/>
      <point x="239.48000000000002" y="-10.0" type="curve" smooth="yes"/>
      <point x="362.268" y="-10.0"/>
      <point x="438.46400000000006" y="77.36"/>
      <point x="438.46400000000006" y="350.036" type="curve" smooth="yes"/>
      <point x="438.46400000000006" y="623.512"/>
      <point x="362.268" y="710.0"/>
    </contour>
    <contour>
      <point x="139.94" y="337.22" type="curve" smooth="yes"/>
      <point x="139.94" y="220.736"/>
      <point x="177.44" y="164.604"/>
      <point x="246.55200000000002" y="164.604" type="curve" smooth="yes"/>
      <point x="274.85200000000003" y="164.604"/>
      <point x="303.368" y="169.44"/>
      <point x="321.092" y="174.28" type="curve"/>
      <point x="315.25200000000007" y="201.71599999999998" type="line"/>
      <point x="300.48400000000004" y="197.648"/>
      <point x="273.48" y="193.74"/>
      <point x="248.532" y="193.74" type="curve" smooth="yes"/>
      <point x="193.784" y="193.74"/>
      <point x="171.316" y="246.9"/>
      <point x="171.316" y="336.86" type="curve" smooth="yes"/>
      <point x="171.316" y="452.328"/>
      <point x="201.408" y="493.50800000000004"/>
      <point x="256.064" y="493.50800000000004" type="curve" smooth="yes"/>
      <point x="274.66400000000004" y="493.50800000000004"/>
      <point x="290.97200000000004" y="491.896"/>
      <point x="308.68" y="486.696" type="curve"/>
      <point x="314.808" y="513.988" type="line"/>
      <point x="295.292" y="520.3399999999999"/>
      <point x="274.884" y="522.6800000000001"/>
      <point x="253.83200000000002" y="522.6800000000001" type="curve" smooth="yes"/>
      <point x="185.116" y="522.6800000000001"/>
      <point x="139.94" y="474.928"/>
    </contour>
  </outline>
</glyph>
<glyph name="ordfeminine" format="2">
  <advance width="265.722"/>
  <unicode hex="00AA"/>
  <outline>
    <contour>
      <point x="33.692" y="289.796" type="line"/>
      <point x="238.156" y="289.796" type="line"/>
      <point x="238.156" y="314.776" type="line"/>
      <point x="33.692" y="314.776" type="line"/>
    </contour>
    <component base="a.superior" xOffset="12.186"/>
  </outline>
</glyph>
<glyph name="logicalnot" format="2">
  <advance width="415.596"/>
  <unicode hex="00AC"/>
  <outline>
    <contour>
      <point x="46.873999999999995" y="375.162" type="line"/>
      <point x="336.03999999999996" y="375.162" type="line"/>
      <point x="336.03999999999996" y="176.69400000000002" type="line"/>
      <point x="369.45" y="176.69400000000002" type="line"/>
      <point x="369.45" y="408.572" type="line"/>
      <point x="46.873999999999995" y="408.572" type="line"/>
    </contour>
  </outline>
</glyph>
<glyph name="registered" format="2">
  <advance width="459.18300000000005"/>
  <unicode hex="00AE"/>
  <outline>
    <contour>
      <point x="229.65400000000002" y="208.119" type="curve" smooth="yes"/>
      <point x="346.516" y="208.119"/>
      <point x="418.723" y="291.00199999999995"/>
      <point x="418.723" y="550.2270000000001" type="curve" smooth="yes"/>
      <point x="418.723" y="810.0989999999999"/>
      <point x="346.53400000000005" y="892.2450000000001"/>
      <point x="229.65400000000002" y="892.2450000000001" type="curve" smooth="yes"/>
      <point x="113.179" y="892.2450000000001"/>
      <point x="40.46" y="810.0989999999999"/>
      <point x="40.46" y="550.2270000000001" type="curve" smooth="yes"/>
      <point x="40.46" y="291.191"/>
      <point x="113.116" y="208.119"/>
    </contour>
    <contour>
      <point x="229.65400000000002" y="228.886" type="curve" smooth="yes"/>
      <point x="127.71000000000002" y="228.886"/>
      <point x="62.387" y="307.289"/>
      <point x="62.387" y="550.2270000000001" type="curve" smooth="yes"/>
      <point x="62.387" y="793.938"/>
      <point x="127.69200000000002" y="871.442"/>
      <point x="229.65400000000002" y="871.442" type="curve" smooth="yes"/>
      <point x="332.192" y="871.442"/>
      <point x="397.434" y="793.956"/>
      <point x="397.434" y="550.2270000000001" type="curve" smooth="yes"/>
      <point x="397.434" y="307.22600000000006"/>
      <point x="332.147" y="228.886"/>
    </contour>
    <contour>
      <point x="329.41900000000004" y="395.079" type="curve" smooth="yes"/>
      <point x="332.626" y="395.079"/>
      <point x="334.47399999999993" y="395.079"/>
      <point x="339.092" y="395.85200000000003" type="curve"/>
      <point x="336.9080000000001" y="424.06" type="line"/>
      <point x="334.971" y="423.332"/>
      <point x="333.636" y="423.332"/>
      <point x="331.636" y="423.332" type="curve" smooth="yes"/>
      <point x="312.089" y="423.359"/>
      <point x="293.359" y="455.715"/>
      <point x="263.719" y="536.455" type="curve"/>
      <point x="301.40000000000003" y="550.408"/>
      <point x="313.691" y="584.048"/>
      <point x="313.691" y="631.0519999999998" type="curve" smooth="yes"/>
      <point x="313.691" y="695.3879999999999"/>
      <point x="286.86100000000005" y="719.905"/>
      <point x="220.877" y="719.905" type="curve" smooth="yes"/>
      <point x="198.279" y="719.905"/>
      <point x="177.954" y="718.2059999999999"/>
      <point x="150.69400000000002" y="714.451" type="curve"/>
      <point x="150.69400000000002" y="397.21200000000005" type="line"/>
      <point x="179.20700000000002" y="397.21200000000005" type="line"/>
      <point x="179.20700000000002" y="530.0080000000002" type="line"/>
      <point x="194.73300000000003" y="529.116"/>
      <point x="207.318" y="528.1880000000001"/>
      <point x="220.714" y="528.1880000000001" type="curve" smooth="yes"/>
      <point x="225.51600000000002" y="528.1880000000001"/>
      <point x="230.201" y="528.1880000000001"/>
      <point x="234.95800000000003" y="528.916" type="curve"/>
      <point x="273.071" y="418.73099999999994"/>
      <point x="298.62" y="395.124"/>
    </contour>
    <contour>
      <point x="219.224" y="552.13" type="curve" smooth="yes"/>
      <point x="206.187" y="552.13"/>
      <point x="194.114" y="552.312"/>
      <point x="179.20700000000002" y="553.294" type="curve"/>
      <point x="179.20700000000002" y="690.594" type="line"/>
      <point x="197.32999999999998" y="692.776"/>
      <point x="205.85999999999999" y="693.6679999999999"/>
      <point x="221.56000000000003" y="693.6679999999999" type="curve" smooth="yes"/>
      <point x="276.86800000000005" y="693.6679999999999"/>
      <point x="284.8" y="667.7030000000001"/>
      <point x="284.8" y="627.76" type="curve" smooth="yes"/>
      <point x="284.8" y="580.6499999999999"/>
      <point x="270.60600000000005" y="552.13"/>
    </contour>
  </outline>
</glyph>
<glyph name="degree" format="2">
  <advance width="239.52"/>
  <unicode hex="00B0"/>
  <outline>
    <contour>
      <point x="118.86800000000001" y="505.6" type="curve" smooth="yes"/>
      <point x="176.72799999999998" y="505.6"/>
      <point x="210.096" y="554.5880000000001"/>
      <point x="210.096" y="615.08" type="curve" smooth="yes"/>
      <point x="210.096" y="674.96"/>
      <point x="177.304" y="726.38"/>
      <point x="118.86800000000001" y="726.38" type="curve" smooth="yes"/>
      <point x="60.396" y="726.38"/>
      <point x="29.424000000000003" y="674.96"/>
      <point x="29.424000000000003" y="615.08" type="curve" smooth="yes"/>
      <point x="29.424000000000003" y="554.5880000000001"/>
      <point x="61.008" y="505.6"/>
    </contour>
    <contour>
      <point x="118.86800000000001" y="535.7520000000001" type="curve" smooth="yes"/>
      <point x="79.10000000000001" y="535.7520000000001"/>
      <point x="59.036" y="570.844"/>
      <point x="59.036" y="615.008" type="curve" smooth="yes"/>
      <point x="59.036" y="658.9559999999999"/>
      <point x="78.992" y="695.904"/>
      <point x="118.86800000000001" y="695.904" type="curve" smooth="yes"/>
      <point x="158.708" y="695.904"/>
      <point x="180.52" y="658.9559999999999"/>
      <point x="180.52" y="615.008" type="curve" smooth="yes"/>
      <point x="180.52" y="570.844"/>
      <point x="158.636" y="535.7520000000001"/>
    </contour>
  </outline>
</glyph>
<glyph name="plusminus" format="2">
  <advance width="438.89200000000005"/>
  <unicode hex="00B1"/>
  <outline>
    <contour>
      <point x="43.96200000000001" y="65.502" type="line"/>
      <point x="394.93" y="65.502" type="line"/>
      <point x="394.93" y="98.912" type="line"/>
      <point x="236.50200000000004" y="98.912" type="line"/>
      <point x="236.50200000000004" y="294.094" type="line"/>
      <point x="394.93" y="294.094" type="line"/>
      <point x="394.93" y="327.504" type="line"/>
      <point x="236.50200000000004" y="327.504" type="line"/>
      <point x="236.50200000000004" y="507.77" type="line"/>
      <point x="202.372" y="507.77" type="line"/>
      <point x="202.372" y="327.504" type="line"/>
      <point x="43.96200000000001" y="327.504" type="line"/>
      <point x="43.96200000000001" y="294.094" type="line"/>
      <point x="202.372" y="294.094" type="line"/>
      <point x="202.372" y="98.912" type="line"/>
      <point x="43.96200000000001" y="98.912" type="line"/>
    </contour>
  </outline>
</glyph>
<glyph name="uni00B2" format="2">
  <advance width="309.81200000000007"/>
  <unicode hex="00B2"/>
  <outline>
    <contour>
      <point x="57.608000000000004" y="370.0" type="line"/>
      <point x="258.986" y="370.0" type="line"/>
      <point x="258.986" y="393.362" type="line"/>
      <point x="92.164" y="393.362" type="line"/>
      <point x="197.06799999999998" y="533.862"/>
      <point x="226.89600000000002" y="604.222"/>
      <point x="226.89600000000002" y="667.5540000000001" type="curve" smooth="yes"/>
      <point x="226.89600000000002" y="735.426"/>
      <point x="195.9" y="774.7819999999999"/>
      <point x="140.55" y="774.7819999999999" type="curve" smooth="yes"/>
      <point x="110.66" y="774.7819999999999"/>
      <point x="80.368" y="766.406"/>
      <point x="55.638" y="742.57" type="curve"/>
      <point x="66.316" y="721.312" type="line"/>
      <point x="88.602" y="743.03"/>
      <point x="111.682" y="748.0300000000001"/>
      <point x="136.596" y="748.0300000000001" type="curve" smooth="yes"/>
      <point x="175.304" y="748.0300000000001"/>
      <point x="197.876" y="714.74"/>
      <point x="197.876" y="662.198" type="curve" smooth="yes"/>
      <point x="197.876" y="604.484"/>
      <point x="160.924" y="524.114"/>
      <point x="54.878" y="390.69599999999997" type="curve"/>
    </contour>
  </outline>
</glyph>
<glyph name="uni00B3" format="2">
  <advance width="301.536"/>
  <unicode hex="00B3"/>
  <outline>
    <contour>
      <point x="39.71" y="390.12399999999997" type="line"/>
      <point x="67.672" y="369.798"/>
      <point x="98.44600000000001" y="360.48600000000005"/>
      <point x="139.82" y="360.48600000000005" type="curve" smooth="yes"/>
      <point x="212.738" y="360.48600000000005"/>
      <point x="256.73600000000005" y="405.688"/>
      <point x="256.73600000000005" y="481.72" type="curve" smooth="yes"/>
      <point x="256.73600000000005" y="533.6199999999999"/>
      <point x="234.57200000000003" y="569.004"/>
      <point x="190.442" y="578.448" type="curve"/>
      <point x="223.66" y="590.076"/>
      <point x="241.692" y="624.7860000000001"/>
      <point x="241.692" y="669.4119999999999" type="curve" smooth="yes"/>
      <point x="241.692" y="733.396"/>
      <point x="202.996" y="773.8340000000001"/>
      <point x="138.904" y="773.8340000000001" type="curve" smooth="yes"/>
      <point x="101.65200000000002" y="773.8340000000001"/>
      <point x="71.818" y="764.8539999999999"/>
      <point x="53.288000000000004" y="752.044" type="curve"/>
      <point x="62.772" y="732.192" type="line"/>
      <point x="79.508" y="741.542"/>
      <point x="99.722" y="747.832"/>
      <point x="134.15200000000002" y="747.832" type="curve" smooth="yes"/>
      <point x="184.242" y="747.832"/>
      <point x="214.03" y="717.01"/>
      <point x="214.03" y="665.41" type="curve" smooth="yes"/>
      <point x="214.03" y="621.1059999999999"/>
      <point x="193.93" y="587.426"/>
      <point x="147.544" y="587.426" type="curve" smooth="yes"/>
      <point x="98.444" y="587.426" type="line"/>
      <point x="98.444" y="564.8939999999999" type="line"/>
      <point x="146.984" y="564.8939999999999" type="line" smooth="yes"/>
      <point x="205.69799999999998" y="564.8939999999999"/>
      <point x="227.34799999999998" y="534.364"/>
      <point x="227.34799999999998" y="482.8" type="curve" smooth="yes"/>
      <point x="227.34799999999998" y="421.53799999999995"/>
      <point x="193.98600000000002" y="385.476"/>
      <point x="137.41799999999998" y="385.476" type="curve" smooth="yes"/>
      <point x="99.564" y="385.476"/>
      <point x="74.99400000000001" y="393.116"/>
      <point x="51.502" y="410.25000000000006" type="curve"/>
    </contour>
  </outline>
</glyph>
<glyph name="uni00B5" format="2">
  <advance width="401.97999999999996"/>
  <unicode hex="00B5"/>
  <outline>
    <contour>
      <point x="56.94" y="-210.0" type="line"/>
      <point x="92.492" y="-210.0" type="line"/>
      <point x="92.492" y="28.652" type="line"/>
      <point x="108.902" y="1.4080000000000004"/>
      <point x="136.55800000000002" y="-9.856"/>
      <point x="172.092" y="-9.856" type="curve" smooth="yes"/>
      <point x="219.784" y="-9.856"/>
      <point x="261.908" y="7.236000000000001"/>
      <point x="303.13000000000005" y="31.530000000000005" type="curve"/>
      <point x="309.004" y="4.162"/>
      <point x="329.918" y="-10.0"/>
      <point x="355.796" y="-10.0" type="curve" smooth="yes"/>
      <point x="370.288" y="-10.0"/>
      <point x="384.536" y="-6.755999999999999"/>
      <point x="400.19800000000004" y="0.8359999999999999" type="curve"/>
      <point x="392.78600000000006" y="29.804000000000002" type="line"/>
      <point x="383.126" y="25.11"/>
      <point x="373.65000000000003" y="23.018"/>
      <point x="364.464" y="23.018" type="curve" smooth="yes"/>
      <point x="346.20000000000005" y="23.018"/>
      <point x="333.92" y="34.587999999999994"/>
      <point x="333.92" y="67.6" type="curve" smooth="yes"/>
      <point x="333.92" y="531.8" type="line"/>
      <point x="297.72" y="531.8" type="line"/>
      <point x="297.72" y="62.014" type="line"/>
      <point x="260.132" y="38.980000000000004"/>
      <point x="218.68200000000002" y="22.566"/>
      <point x="177.998" y="22.566" type="curve" smooth="yes"/>
      <point x="121.3" y="22.566"/>
      <point x="93.21199999999999" y="55.391999999999996"/>
      <point x="93.21199999999999" y="111.14999999999999" type="curve" smooth="yes"/>
      <point x="93.21199999999999" y="531.8" type="line"/>
      <point x="56.94" y="531.8" type="line"/>
    </contour>
  </outline>
</glyph>
<glyph name="paragraph" format="2">
  <advance width="476.198"/>
  <unicode hex="00B6"/>
  <outline>
    <contour>
      <point x="385.136" y="-210.0" type="line"/>
      <point x="417.26800000000003" y="-210.0" type="line"/>
      <point x="417.26800000000003" y="740.0" type="line"/>
      <point x="385.136" y="740.0" type="line"/>
    </contour>
    <contour>
      <point x="198.286" y="212.66199999999998" type="line"/>
      <point x="103.37400000000001" y="229.946"/>
      <point x="60.686" y="321.70599999999996"/>
      <point x="60.686" y="459.78000000000003" type="curve" smooth="yes"/>
      <point x="60.686" y="602.376"/>
      <point x="117.33999999999999" y="703.716"/>
      <point x="248.25199999999998" y="707.9019999999999" type="curve"/>
      <point x="248.25199999999998" y="-210.0" type="line"/>
      <point x="280.38399999999996" y="-210.0" type="line"/>
      <point x="280.38399999999996" y="740.0" type="line"/>
      <point x="257.99" y="740.0" type="line" smooth="yes"/>
      <point x="94.504" y="740.0"/>
      <point x="26.772" y="619.5559999999999"/>
      <point x="26.772" y="460.752" type="curve" smooth="yes"/>
      <point x="26.772" y="309.03600000000006"/>
      <point x="78.14200000000001" y="204.97"/>
      <point x="195.25" y="183.356" type="curve"/>
    </contour>
  </outline>
</glyph>
<glyph name="periodcentered" format="2">
  <advance width="127.23400000000001"/>
  <unicode hex="00B7"/>
  <outline>
    <contour>
      <point x="40.702" y="290.51" type="curve" smooth="yes"/>
      <point x="40.702" y="268.93"/>
      <point x="44.745999999999995" y="264.51"/>
      <point x="63.744" y="264.51" type="curve" smooth="yes"/>
      <point x="83.65199999999999" y="264.51"/>
      <point x="86.696" y="268.93"/>
      <point x="86.696" y="290.51" type="curve" smooth="yes"/>
      <point x="86.696" y="312.18"/>
      <point x="83.65199999999999" y="316.59999999999997"/>
      <point x="63.744" y="316.59999999999997" type="curve" smooth="yes"/>
      <point x="43.745999999999995" y="316.59999999999997"/>
      <point x="40.702" y="312.18"/>
    </contour>
  </outline>
</glyph>
<glyph name="uni00B9" format="2">
  <advance width="283.444"/>
  <unicode hex="00B9"/>
  <outline>
    <contour>
      <point x="30.14" y="370.0" type="line"/>
      <point x="255.86599999999999" y="370.0" type="line"/>
      <point x="255.86599999999999" y="394.18000000000006" type="line"/>
      <point x="164.762" y="394.18000000000006" type="line"/>
      <point x="164.762" y="769.456" type="line"/>
      <point x="149.396" y="769.456" type="line"/>
      <point x="27.756" y="694.058" type="line"/>
      <point x="36.94" y="670.128" type="line"/>
      <point x="135.232" y="732.322" type="line"/>
      <point x="135.232" y="394.18000000000006" type="line"/>
      <point x="30.14" y="394.18000000000006" type="line"/>
    </contour>
  </outline>
</glyph>
<glyph name="ordmasculine" format="2">
  <advance width="288.076"/>
  <unicode hex="00BA"/>
  <outline>
    <contour>
      <point x="43.214000000000006" y="289.978" type="line"/>
      <point x="249.13400000000001" y="289.978" type="line"/>
      <point x="249.13400000000001" y="314.95799999999997" type="line"/>
      <point x="43.214000000000006" y="314.95799999999997" type="line"/>
    </contour>
    <component base="o.superior" xOffset="16.736000000000004"/>
  </outline>
</glyph>
<glyph name="questiondown" format="2">
  <advance width="333.908"/>
  <unicode hex="00BF"/>
  <outline>
    <contour>
      <point x="210.89" y="267.986" type="line"/>
      <point x="177.156" y="267.986" type="line"/>
      <point x="177.12" y="193.142" type="line"/>
      <point x="81.416" y="123.038"/>
      <point x="33.878" y="73.66999999999999"/>
      <point x="33.878" y="-37.8" type="curve" smooth="yes"/>
      <point x="33.878" y="-165.29999999999998"/>
      <point x="108.736" y="-218.938"/>
      <point x="187.67399999999998" y="-218.938" type="curve" smooth="yes"/>
      <point x="240.44000000000003" y="-218.938"/>
      <point x="294.474" y="-197.17600000000002"/>
      <point x="334.758" y="-160.71800000000002" type="curve"/>
      <point x="318.46" y="-132.516" type="line"/>
      <point x="277.058" y="-168.49200000000002"/>
      <point x="231.69400000000002" y="-183.574"/>
      <point x="190.68" y="-183.574" type="curve" smooth="yes"/>
      <point x="127.91" y="-183.574"/>
      <point x="71.52600000000001" y="-131.776"/>
      <point x="71.52600000000001" y="-36.286" type="curve" smooth="yes"/>
      <point x="71.52600000000001" y="49.664"/>
      <point x="104.93" y="106.21399999999998"/>
      <point x="211.304" y="175.686" type="curve"/>
    </contour>
    <contour>
      <point x="216.384" y="505.962" type="curve" smooth="yes"/>
      <point x="216.384" y="527.4879999999999"/>
      <point x="211.08200000000002" y="531.908"/>
      <point x="192.74" y="531.908" type="curve" smooth="yes"/>
      <point x="173.63199999999998" y="531.908"/>
      <point x="169.82399999999998" y="527.4879999999999"/>
      <point x="169.82399999999998" y="505.962" type="curve" smooth="yes"/>
      <point x="169.82399999999998" y="484.346"/>
      <point x="173.63199999999998" y="479.926"/>
      <point x="192.74" y="479.926" type="curve" smooth="yes"/>
      <point x="212.72000000000003" y="479.926"/>
      <point x="216.384" y="484.346"/>
    </contour>
  </outline>
</glyph>
<glyph name="AE" format="2">
  <advance width="675.904"/>
  <unicode hex="00C6"/>
  <anchor x="362.18899999999996" y="700.0" name="top"/>
  <outline>
    <contour>
      <point x="14.813999999999998" y="0.0" type="line"/>
      <point x="55.251" y="-0.7909999999999999" type="line"/>
      <point x="189.187" y="305.007" type="line"/>
      <point x="344.23" y="305.007" type="line"/>
      <point x="344.23" y="0.0" type="line"/>
      <point x="656.6209999999999" y="0.0" type="line"/>
      <point x="656.6209999999999" y="35.39" type="line"/>
      <point x="380.655" y="35.39" type="line"/>
      <point x="380.655" y="317.671" type="line"/>
      <point x="623.8719999999998" y="317.671" type="line"/>
      <point x="623.8719999999998" y="352.52099999999996" type="line"/>
      <point x="380.655" y="352.52099999999996" type="line"/>
      <point x="380.655" y="664.3850000000001" type="line"/>
      <point x="642.83" y="664.3850000000001" type="line"/>
      <point x="642.83" y="700.0" type="line"/>
      <point x="322.15" y="700.0" type="line"/>
    </contour>
    <contour>
      <point x="201.94100000000003" y="338.84100000000007" type="line"/>
      <point x="344.05000000000007" y="668.853" type="line"/>
      <point x="344.05000000000007" y="338.84100000000007" type="line"/>
    </contour>
  </outline>
</glyph>
<glyph name="multiply" format="2">
  <advance width="399.236"/>
  <unicode hex="00D7"/>
  <outline>
    <contour>
      <point x="81.532" y="82.27" type="line"/>
      <point x="199.072" y="264.008" type="line"/>
      <point x="317.522" y="83.54400000000001" type="line"/>
      <point x="343.632" y="103.66" type="line"/>
      <point x="221.42600000000002" y="292.356" type="line"/>
      <point x="343.268" y="482.89000000000004" type="line"/>
      <point x="317.1580000000001" y="503.006" type="line"/>
      <point x="199.072" y="321.43199999999996" type="line"/>
      <point x="81.35" y="503.36999999999995" type="line"/>
      <point x="55.239999999999995" y="483.254" type="line"/>
      <point x="177.42800000000003" y="292.356" type="line"/>
      <point x="55.422000000000004" y="102.386" type="line"/>
    </contour>
  </outline>
</glyph>
<glyph name="Oslash" format="2">
  <advance width="497.84000000000003"/>
  <unicode hex="00D8"/>
  <anchor x="247.19" y="700.0" name="top"/>
  <outline>
    <contour>
      <point x="70.63" y="-10.18" type="line"/>
      <point x="113.09" y="65.14" type="line"/>
      <point x="116.4" y="69.15" type="line"/>
      <point x="399.86" y="604.82" type="line"/>
      <point x="403.08" y="609.15" type="line"/>
      <point x="458.46000000000004" y="710.9" type="line"/>
      <point x="425.07" y="710.9" type="line"/>
      <point x="382.97999999999996" y="634.96" type="line"/>
      <point x="379.26" y="630.5400000000001" type="line"/>
      <point x="97.38" y="97.48" type="line"/>
      <point x="94.66" y="94.79" type="line"/>
      <point x="37.74" y="-10.18" type="line"/>
    </contour>
    <contour>
      <point x="247.19" y="21.91" type="curve" smooth="yes"/>
      <point x="149.69" y="21.91"/>
      <point x="74.22000000000001" y="87.35000000000001"/>
      <point x="74.22000000000001" y="349.09" type="curve" smooth="yes"/>
      <point x="74.22000000000001" y="614.88"/>
      <point x="149.69" y="678.09"/>
      <point x="247.19" y="678.09" type="curve" smooth="yes"/>
      <point x="345.6" y="678.09"/>
      <point x="421.57" y="615.38"/>
      <point x="421.57" y="349.18" type="curve" smooth="yes"/>
      <point x="421.57" y="84.8"/>
      <point x="345.6" y="21.91"/>
    </contour>
    <contour>
      <point x="247.19" y="-10.0" type="curve" smooth="yes"/>
      <point x="371.4" y="-10.0"/>
      <point x="458.35999999999996" y="60.839999999999996"/>
      <point x="458.35999999999996" y="350.27000000000004" type="curve" smooth="yes"/>
      <point x="458.35999999999996" y="639.16"/>
      <point x="369.62" y="710.0"/>
      <point x="247.19" y="710.0" type="curve" smooth="yes"/>
      <point x="124.76" y="710.0"/>
      <point x="37.84" y="638.5699999999999"/>
      <point x="37.84" y="349.09" type="curve" smooth="yes"/>
      <point x="37.84" y="63.89"/>
      <point x="125.12" y="-10.0"/>
    </contour>
  </outline>
</glyph>
<glyph name="Thorn" format="2">
  <advance width="423.372"/>
  <unicode hex="00DE"/>
  <outline>
    <contour>
      <point x="60.081999999999994" y="0.0" type="line"/>
      <point x="96.714" y="0.0" type="line"/>
      <point x="96.714" y="175.53400000000002" type="line"/>
      <point x="138.392" y="173.718"/>
      <point x="163.882" y="173.53599999999997"/>
      <point x="203.07" y="173.53599999999997" type="curve" smooth="yes"/>
      <point x="336.946" y="173.53599999999997"/>
      <point x="396.05199999999996" y="236.162"/>
      <point x="396.05199999999996" y="401.026" type="curve" smooth="yes"/>
      <point x="396.05199999999996" y="556.74"/>
      <point x="353.254" y="610.9639999999999"/>
      <point x="196.222" y="610.9639999999999" type="curve" smooth="yes"/>
      <point x="173.828" y="610.9639999999999"/>
      <point x="147.092" y="609.854"/>
      <point x="96.78599999999999" y="606.924" type="curve"/>
      <point x="96.78599999999999" y="700.0" type="line"/>
      <point x="60.081999999999994" y="700.0" type="line"/>
    </contour>
    <contour>
      <point x="198.884" y="208.08" type="curve" smooth="yes"/>
      <point x="159.602" y="208.08"/>
      <point x="135.98600000000002" y="208.644"/>
      <point x="96.78599999999999" y="210.13400000000001" type="curve"/>
      <point x="96.78599999999999" y="573.414" type="line"/>
      <point x="148.734" y="577.342"/>
      <point x="174.422" y="578.434"/>
      <point x="198.3" y="578.434" type="curve" smooth="yes"/>
      <point x="328.658" y="578.434"/>
      <point x="359.29400000000004" y="528.048"/>
      <point x="359.29400000000004" y="399.688" type="curve" smooth="yes"/>
      <point x="359.29400000000004" y="262.302"/>
      <point x="315.96400000000006" y="208.08"/>
    </contour>
  </outline>
</glyph>
<glyph name="germandbls" format="2">
  <advance width="460.60400000000004"/>
  <unicode hex="00DF"/>
  <outline>
    <contour>
      <point x="90.584" y="0.0" type="line"/>
      <point x="126.712" y="0.0" type="line"/>
      <point x="126.712" y="531.5920000000001" type="line" smooth="yes"/>
      <point x="126.712" y="655.712"/>
      <point x="171.23999999999998" y="717.284"/>
      <point x="265.71999999999997" y="717.284" type="curve" smooth="yes"/>
      <point x="335.85200000000003" y="717.284"/>
      <point x="370.44" y="690.688"/>
      <point x="370.44" y="636.856" type="curve" smooth="yes"/>
      <point x="370.44" y="590.4559999999999"/>
      <point x="349.708" y="568.3240000000001"/>
      <point x="290.65200000000004" y="532.408" type="curve" smooth="yes"/>
      <point x="235.572" y="499.26800000000003"/>
      <point x="207.42399999999998" y="459.804"/>
      <point x="207.42399999999998" y="407.928" type="curve" smooth="yes"/>
      <point x="207.42399999999998" y="344.036"/>
      <point x="231.368" y="310.85200000000003"/>
      <point x="317.42" y="258.34" type="curve" smooth="yes"/>
      <point x="397.032" y="208.02"/>
      <point x="420.668" y="178.436"/>
      <point x="420.668" y="123.86" type="curve" smooth="yes"/>
      <point x="420.668" y="60.684"/>
      <point x="371.196" y="22.852"/>
      <point x="303.144" y="22.852" type="curve" smooth="yes"/>
      <point x="260.848" y="22.852"/>
      <point x="218.784" y="32.068"/>
      <point x="183.632" y="45.852000000000004" type="curve"/>
      <point x="173.084" y="15.787999999999998" type="line"/>
      <point x="210.096" y="-0.6079999999999999"/>
      <point x="257.64" y="-10.0"/>
      <point x="304.116" y="-10.0" type="curve" smooth="yes"/>
      <point x="391.68399999999997" y="-10.0"/>
      <point x="455.392" y="38.9"/>
      <point x="455.392" y="125.15599999999999" type="curve" smooth="yes"/>
      <point x="455.392" y="192.824"/>
      <point x="424.70000000000005" y="233.828"/>
      <point x="338.076" y="286.088" type="curve" smooth="yes"/>
      <point x="261.712" y="334.192"/>
      <point x="242.22" y="360.432"/>
      <point x="242.22" y="409.26" type="curve" smooth="yes"/>
      <point x="242.22" y="452.344"/>
      <point x="265.996" y="481.46"/>
      <point x="312.876" y="510.4479999999999" type="curve" smooth="yes"/>
      <point x="377.176" y="548.808"/>
      <point x="406.676" y="581.024"/>
      <point x="406.676" y="637.1800000000001" type="curve" smooth="yes"/>
      <point x="406.676" y="711.2600000000001"/>
      <point x="356.18" y="750.0"/>
      <point x="265.428" y="750.0" type="curve" smooth="yes"/>
      <point x="148.444" y="750.0"/>
      <point x="90.976" y="680.2719999999999"/>
      <point x="90.584" y="543.7040000000001" type="curve" smooth="yes"/>
      <point x="90.584" y="487.668" type="line"/>
      <point x="17.028000000000002" y="481.272" type="line"/>
      <point x="17.028000000000002" y="455.464" type="line"/>
      <point x="90.584" y="455.464" type="line"/>
    </contour>
  </outline>
</glyph>
<glyph name="ae" format="2">
  <advance width="607.325"/>
  <unicode hex="00E6"/>
  <anchor x="308.255" y="531.8" name="top"/>
  <outline>
    <contour>
      <point x="130.47" y="-10.0" type="curve" smooth="yes"/>
      <point x="195.605" y="-10.0"/>
      <point x="250.705" y="27.064999999999998"/>
      <point x="296.695" y="78.48" type="curve"/>
      <point x="297.785" y="78.48" type="line"/>
      <point x="322.9" y="17.645"/>
      <point x="364.79499999999996" y="-10.0"/>
      <point x="435.09999999999997" y="-10.0" type="curve" smooth="yes"/>
      <point x="490.175" y="-10.0"/>
      <point x="531.835" y="-2.0500000000000003"/>
      <point x="568.075" y="12.03" type="curve"/>
      <point x="561.6400000000001" y="43.715" type="line"/>
      <point x="526.885" y="32.08"/>
      <point x="485.815" y="23.99"/>
      <point x="438.845" y="23.99" type="curve" smooth="yes"/>
      <point x="350.225" y="23.99"/>
      <point x="309.2049999999999" y="74.805"/>
      <point x="309.025" y="255.465" type="curve" smooth="yes"/>
      <point x="308.93499999999995" y="261.65"/>
      <point x="308.93499999999995" y="270.43"/>
      <point x="309.43499999999995" y="275.615" type="curve"/>
      <point x="441.935" y="276.11"/>
      <point x="534.735" y="289.885"/>
      <point x="576.5400000000001" y="295.385" type="curve"/>
      <point x="576.5849999999999" y="300.915"/>
      <point x="577.585" y="307.66499999999996"/>
      <point x="577.585" y="321.48" type="curve" smooth="yes"/>
      <point x="577.585" y="471.53000000000003"/>
      <point x="526.37" y="541.8"/>
      <point x="431.705" y="541.8" type="curve" smooth="yes"/>
      <point x="371.65500000000003" y="541.8"/>
      <point x="319.275" y="507.415"/>
      <point x="297.2" y="427.53999999999996" type="curve"/>
      <point x="296.20000000000005" y="427.53999999999996" type="line"/>
      <point x="292.7" y="501.36"/>
      <point x="249.24" y="541.8"/>
      <point x="172.95499999999998" y="541.8" type="curve" smooth="yes"/>
      <point x="136.065" y="541.8"/>
      <point x="93.60000000000001" y="534.5799999999999"/>
      <point x="52.660000000000004" y="520.54" type="curve"/>
      <point x="61.36" y="488.68" type="line"/>
      <point x="102.57" y="502.08500000000004"/>
      <point x="139.875" y="506.905"/>
      <point x="171.835" y="506.905" type="curve" smooth="yes"/>
      <point x="239.41" y="506.905"/>
      <point x="273.06000000000006" y="470.425"/>
      <point x="273.06000000000006" y="401.96500000000003" type="curve" smooth="yes"/>
      <point x="273.06000000000006" y="300.41" type="line"/>
      <point x="101.345" y="268.115"/>
      <point x="21.695" y="226.62"/>
      <point x="21.695" y="113.95" type="curve" smooth="yes"/>
      <point x="21.695" y="34.115"/>
      <point x="63.635" y="-10.0"/>
    </contour>
    <contour>
      <point x="137.725" y="20.52" type="curve" smooth="yes"/>
      <point x="88.78" y="20.52"/>
      <point x="57.894999999999996" y="55.86"/>
      <point x="57.894999999999996" y="119.895" type="curve" smooth="yes"/>
      <point x="57.894999999999996" y="211.405"/>
      <point x="138.785" y="249.42999999999998"/>
      <point x="272.695" y="272.90500000000003" type="curve"/>
      <point x="272.695" y="263.77000000000004"/>
      <point x="272.695" y="254.45499999999998"/>
      <point x="272.695" y="245.23" type="curve" smooth="yes"/>
      <point x="272.695" y="186.05"/>
      <point x="277.7" y="139.97499999999997"/>
      <point x="285.025" y="105.73" type="curve"/>
      <point x="246.81" y="58.370000000000005"/>
      <point x="189.585" y="20.52"/>
    </contour>
    <contour>
      <point x="309.755" y="302.93500000000006" type="curve"/>
      <point x="309.8" y="457.97499999999997"/>
      <point x="364.3" y="511.28499999999997"/>
      <point x="429.44" y="511.28499999999997" type="curve" smooth="yes"/>
      <point x="502.905" y="511.28499999999997"/>
      <point x="540.755" y="448.28499999999997"/>
      <point x="541.2049999999999" y="319.13" type="curve"/>
      <point x="511.2850000000001" y="313.08000000000004"/>
      <point x="412.34499999999997" y="302.935"/>
    </contour>
  </outline>
</glyph>
<glyph name="eth" format="2">
  <advance width="390.75"/>
  <unicode hex="00F0"/>
  <outline>
    <contour>
      <point x="325.46000000000004" y="472.77" type="curve"/>
      <point x="327.59000000000003" y="503.47999999999996" type="line"/>
      <point x="298.64" y="526.72"/>
      <point x="261.18" y="535.77"/>
      <point x="216.57999999999998" y="535.77" type="curve" smooth="yes"/>
      <point x="93.71000000000001" y="535.77"/>
      <point x="35.74999999999999" y="450.69"/>
      <point x="35.74999999999999" y="256.28000000000003" type="curve" smooth="yes"/>
      <point x="35.74999999999999" y="64.99"/>
      <point x="84.09" y="-10.0"/>
      <point x="188.72" y="-10.0" type="curve" smooth="yes"/>
      <point x="309.74" y="-10.0"/>
      <point x="354.36" y="70.35000000000001"/>
      <point x="354.36" y="327.56" type="curve" smooth="yes"/>
      <point x="354.36" y="597.8299999999999"/>
      <point x="301.69" y="713.96"/>
      <point x="147.33" y="713.96" type="curve" smooth="yes"/>
      <point x="109.21000000000001" y="713.96"/>
      <point x="80.01" y="709.24"/>
      <point x="38.79" y="698.29" type="curve"/>
      <point x="45.23" y="670.5300000000001" type="line"/>
      <point x="80.32" y="679.62"/>
      <point x="106.32000000000001" y="684.8900000000001"/>
      <point x="141.36999999999998" y="684.8900000000001" type="curve" smooth="yes"/>
      <point x="269.64000000000004" y="684.8900000000001"/>
      <point x="318.48" y="596.75"/>
      <point x="318.48" y="327.54" type="curve" smooth="yes"/>
      <point x="318.48" y="93.57000000000001"/>
      <point x="283.77" y="20.38"/>
      <point x="190.66" y="20.38" type="curve" smooth="yes"/>
      <point x="108.88000000000001" y="20.38"/>
      <point x="72.67" y="85.56"/>
      <point x="72.67" y="256.78000000000003" type="curve" smooth="yes"/>
      <point x="72.67" y="435.83"/>
      <point x="124.72" y="506.43"/>
      <point x="219.09" y="506.43" type="curve" smooth="yes"/>
      <point x="259.48" y="506.43"/>
      <point x="293.40000000000003" y="499.2"/>
    </contour>
    <contour>
      <point x="119.42" y="569.12" type="line"/>
      <point x="260.04" y="654.26" type="line"/>
      <point x="264.54" y="656.93" type="line"/>
      <point x="366.94" y="720.3299999999999" type="line"/>
      <point x="323.06" y="720.3299999999999" type="line"/>
      <point x="246.69" y="674.02" type="line"/>
      <point x="243.46" y="671.8000000000001" type="line"/>
      <point x="75.04" y="569.12" type="line"/>
    </contour>
  </outline>
</glyph>
<glyph name="divide" format="2">
  <advance width="415.65"/>
  <unicode hex="00F7"/>
  <outline>
    <contour>
      <point x="185.818" y="96.93599999999999" type="curve" smooth="yes"/>
      <point x="185.818" y="77.06599999999999"/>
      <point x="188.93600000000004" y="73.45599999999999"/>
      <point x="207.87" y="73.45599999999999" type="curve" smooth="yes"/>
      <point x="226.968" y="73.45599999999999"/>
      <point x="229.922" y="77.06599999999999"/>
      <point x="229.922" y="96.93599999999999" type="curve" smooth="yes"/>
      <point x="229.922" y="116.716"/>
      <point x="226.31199999999998" y="120.416"/>
      <point x="207.87" y="120.416" type="curve" smooth="yes"/>
      <point x="188.68200000000002" y="120.416"/>
      <point x="185.818" y="116.716"/>
    </contour>
    <contour>
      <point x="185.818" y="488.084" type="curve" smooth="yes"/>
      <point x="185.818" y="468.30400000000003"/>
      <point x="189.592" y="464.694"/>
      <point x="207.87" y="464.694" type="curve" smooth="yes"/>
      <point x="226.968" y="464.694"/>
      <point x="229.922" y="468.30400000000003"/>
      <point x="229.922" y="488.084" type="curve" smooth="yes"/>
      <point x="229.922" y="508.044"/>
      <point x="226.968" y="511.654"/>
      <point x="207.87" y="511.654" type="curve" smooth="yes"/>
      <point x="188.68200000000002" y="511.654"/>
      <point x="185.818" y="508.044"/>
    </contour>
    <contour>
      <point x="44.016" y="275.85" type="line"/>
      <point x="371.724" y="275.85" type="line"/>
      <point x="371.724" y="309.34999999999997" type="line"/>
      <point x="44.016" y="309.34999999999997" type="line"/>
    </contour>
  </outline>
</glyph>
<glyph name="oslash" format="2">
  <advance width="396.11"/>
  <unicode hex="00F8"/>
  <anchor x="197.57999999999998" y="531.8" name="top"/>
  <outline>
    <contour>
      <point x="197.57999999999998" y="-10.0" type="curve" smooth="yes"/>
      <point x="82.02" y="-10.0"/>
      <point x="35.660000000000004" y="57.580000000000005"/>
      <point x="35.660000000000004" y="266.49" type="curve" smooth="yes"/>
      <point x="35.660000000000004" y="472.49"/>
      <point x="78.42999999999999" y="541.8"/>
      <point x="197.57999999999998" y="541.8" type="curve" smooth="yes"/>
      <point x="317.04999999999995" y="541.8"/>
      <point x="360.0" y="472.49"/>
      <point x="360.0" y="266.49" type="curve" smooth="yes"/>
      <point x="360.0" y="57.580000000000005"/>
      <point x="313.54999999999995" y="-10.0"/>
    </contour>
    <contour>
      <point x="197.67" y="20.92" type="curve" smooth="yes"/>
      <point x="287.59" y="20.92"/>
      <point x="323.89" y="77.05"/>
      <point x="323.89" y="266.49" type="curve" smooth="yes"/>
      <point x="323.89" y="453.52"/>
      <point x="290.82" y="510.97"/>
      <point x="197.67" y="510.97" type="curve" smooth="yes"/>
      <point x="104.75" y="510.97"/>
      <point x="71.77" y="453.52"/>
      <point x="71.77" y="266.49" type="curve" smooth="yes"/>
      <point x="71.77" y="77.05"/>
      <point x="108.07000000000001" y="20.92"/>
    </contour>
    <contour>
      <point x="34.25" y="-9.28" type="line"/>
      <point x="78.74000000000001" y="74.22" type="line"/>
      <point x="80.60000000000001" y="73.95" type="line"/>
      <point x="298.12" y="488.59000000000003" type="line"/>
      <point x="300.15999999999997" y="488.32" type="line"/>
      <point x="329.28000000000003" y="541.8" type="line"/>
      <point x="361.40999999999997" y="541.8" type="line"/>
      <point x="317.37" y="459.6" type="line"/>
      <point x="315.42" y="459.87" type="line"/>
      <point x="98.22000000000001" y="45.83" type="line"/>
      <point x="96.17999999999999" y="46.1" type="line"/>
      <point x="66.2" y="-9.28" type="line"/>
    </contour>
  </outline>
</glyph>
<glyph name="thorn" format="2">
  <advance width="389.672"/>
  <unicode hex="00FE"/>
  <outline>
    <contour>
      <point x="56.94" y="-210.0" type="line"/>
      <point x="93.014" y="-210.0" type="line"/>
      <point x="93.014" y="0.6100000000000003" type="line"/>
      <point x="123.01599999999999" y="-6.887999999999999"/>
      <point x="151.32600000000002" y="-10.0"/>
      <point x="176.432" y="-10.0" type="curve" smooth="yes"/>
      <point x="302.778" y="-10.0"/>
      <point x="353.84999999999997" y="69.178"/>
      <point x="353.84999999999997" y="275.348" type="curve" smooth="yes"/>
      <point x="353.84999999999997" y="448.556"/>
      <point x="300.15999999999997" y="541.8"/>
      <point x="199.718" y="541.8" type="curve" smooth="yes"/>
      <point x="164.972" y="541.8"/>
      <point x="124.392" y="532.422"/>
      <point x="93.158" y="519.466" type="curve"/>
      <point x="93.158" y="740.0" type="line"/>
      <point x="56.94" y="740.0" type="line"/>
    </contour>
    <contour>
      <point x="173.13400000000001" y="19.604" type="curve" smooth="yes"/>
      <point x="151.176" y="19.604"/>
      <point x="128.18200000000002" y="22.86"/>
      <point x="93.21199999999999" y="31.01" type="curve"/>
      <point x="93.21199999999999" y="487.15200000000004" type="line"/>
      <point x="128.706" y="503.416"/>
      <point x="157.32399999999998" y="509.182"/>
      <point x="188.234" y="509.182" type="curve" smooth="yes"/>
      <point x="272.714" y="509.182"/>
      <point x="316.78600000000006" y="428.212"/>
      <point x="316.78600000000006" y="273.584" type="curve" smooth="yes"/>
      <point x="316.78600000000006" y="84.60999999999999"/>
      <point x="276.90200000000004" y="19.604"/>
    </contour>
  </outline>
</glyph>
<glyph name="Dcroat" format="2">
  <advance width="475.707"/>
  <unicode hex="0110"/>
  <outline>
    <contour>
      <point x="3.9099999999999993" y="342.44" type="line"/>
      <point x="222.531" y="342.44" type="line"/>
      <point x="222.531" y="375.805" type="line"/>
      <point x="3.9099999999999993" y="375.805" type="line"/>
    </contour>
    <component base="D" xOffset="5.177"/>
  </outline>
</glyph>
<glyph name="dcroat" format="2">
  <advance width="390.54499999999996"/>
  <unicode hex="0111"/>
  <outline>
    <contour>
      <point x="179.704" y="616.4250000000001" type="line"/>
      <point x="392.93700000000007" y="616.4250000000001" type="line"/>
      <point x="392.93700000000007" y="643.1550000000001" type="line"/>
      <point x="179.704" y="643.1550000000001" type="line"/>
    </contour>
    <component base="d"/>
  </outline>
</glyph>
<glyph name="Hbar" format="2">
  <advance width="492.4440000000001"/>
  <unicode hex="0126"/>
  <outline>
    <contour>
      <point x="17.36" y="501.42" type="line"/>
      <point x="60.099999999999994" y="501.42" type="line"/>
      <point x="60.099999999999994" y="0.0" type="line"/>
      <point x="96.66" y="0.0" type="line"/>
      <point x="96.66" y="284.85999999999996" type="line"/>
      <point x="395.96400000000006" y="284.85999999999996" type="line"/>
      <point x="395.96400000000006" y="0.0" type="line"/>
      <point x="432.344" y="0.0" type="line"/>
      <point x="432.344" y="501.42" type="line"/>
      <point x="475.08400000000006" y="501.42" type="line"/>
      <point x="475.08400000000006" y="531.008" type="line"/>
      <point x="432.344" y="531.008" type="line"/>
      <point x="432.344" y="700.0" type="line"/>
      <point x="395.96400000000006" y="700.0" type="line"/>
      <point x="395.96400000000006" y="531.008" type="line"/>
      <point x="96.66" y="531.008" type="line"/>
      <point x="96.66" y="700.0" type="line"/>
      <point x="60.099999999999994" y="700.0" type="line"/>
      <point x="60.099999999999994" y="531.008" type="line"/>
      <point x="17.36" y="531.008" type="line"/>
    </contour>
    <contour>
      <point x="96.66" y="319.972" type="line"/>
      <point x="96.66" y="501.42" type="line"/>
      <point x="395.96400000000006" y="501.42" type="line"/>
      <point x="395.96400000000006" y="319.972" type="line"/>
    </contour>
  </outline>
</glyph>
<glyph name="hbar" format="2">
  <advance width="398.62300000000005"/>
  <unicode hex="0127"/>
  <outline>
    <contour>
      <point x="-1.4210000000000005" y="616.4250000000001" type="line"/>
      <point x="221.24699999999999" y="616.4250000000001" type="line"/>
      <point x="221.24699999999999" y="643.1550000000001" type="line"/>
      <point x="-1.4210000000000005" y="643.1550000000001" type="line"/>
    </contour>
    <component base="h"/>
  </outline>
</glyph>
<glyph name="Idotaccent" format="2">
  <advance width="156.72400000000002"/>
  <unicode hex="0130"/>
  <outline>
    <contour>
      <point x="78.47" y="804.558" type="curve" smooth="yes"/>
      <point x="98.522" y="804.558"/>
      <point x="102.052" y="808.816"/>
      <point x="102.052" y="829.928" type="curve" smooth="yes"/>
      <point x="102.052" y="851.184"/>
      <point x="98.378" y="855.37"/>
      <point x="78.47" y="855.37" type="curve" smooth="yes"/>
      <point x="58.49000000000001" y="855.37"/>
      <point x="54.816" y="851.184"/>
      <point x="54.816" y="829.928" type="curve" smooth="yes"/>
      <point x="54.816" y="808.744"/>
      <point x="59.400000000000006" y="804.558"/>
    </contour>
    <component base="I"/>
  </outline>
</glyph>
<glyph name="dotlessi" format="2">
  <advance width="150.296"/>
  <unicode hex="0131"/>
  <anchor x="92.346" y="0.8999999999999999" name="ogonek"/>
  <anchor x="75.29199999999999" y="0.0" name="bottom"/>
  <anchor x="75.148" y="531.8" name="top"/>
  <outline>
    <contour>
      <point x="56.94" y="0.0" type="line"/>
      <point x="93.356" y="0.0" type="line"/>
      <point x="93.356" y="531.8" type="line"/>
      <point x="56.94" y="531.8" type="line"/>
    </contour>
  </outline>
</glyph>
<glyph name="kgreenlandic" format="2">
  <advance width="365.46"/>
  <unicode hex="0138"/>
  <anchor x="189.12" y="531.8" name="top"/>
  <anchor x="189.12" y="0.0" name="bottom"/>
  <outline>
    <contour>
      <point x="352.92" y="-7.2700000000000005" type="curve" smooth="yes"/>
      <point x="359.5" y="-7.2700000000000005"/>
      <point x="366.22" y="-5.45"/>
      <point x="371.71000000000004" y="-3.77" type="curve"/>
      <point x="369.39000000000004" y="33.46" type="line"/>
      <point x="364.89000000000004" y="32.63999999999999"/>
      <point x="359.97999999999996" y="31.64"/>
      <point x="356.48" y="31.64" type="curve" smooth="yes"/>
      <point x="333.99" y="31.64"/>
      <point x="315.59" y="45.18"/>
      <point x="233.67" y="156.70999999999998" type="curve" smooth="yes"/>
      <point x="92.24" y="349.4" type="line"/>
      <point x="92.24" y="531.8" type="line"/>
      <point x="56.940000000000005" y="531.8" type="line"/>
      <point x="56.940000000000005" y="0.0" type="line"/>
      <point x="92.24" y="0.0" type="line"/>
      <point x="92.24" y="290.82" type="line"/>
      <point x="219.2" y="119.96" type="line" smooth="yes"/>
      <point x="307.19000000000005" y="1.7199999999999998"/>
      <point x="322.26" y="-7.2700000000000005"/>
    </contour>
    <contour>
      <point x="156.56" y="239.70000000000002" type="line"/>
      <point x="220.91000000000003" y="311.81"/>
      <point x="306.33" y="404.01"/>
      <point x="339.44" y="530.0799999999999" type="curve"/>
      <point x="305.38000000000005" y="538.1700000000001" type="line"/>
      <point x="272.67" y="409.31"/>
      <point x="194.85" y="332.46999999999997"/>
      <point x="133.23" y="264.17" type="curve"/>
    </contour>
  </outline>
</glyph>
<glyph name="Ldot" format="2">
  <advance width="351.81"/>
  <unicode hex="013F"/>
  <outline>
    <contour>
      <point x="233.072" y="363.792" type="curve" smooth="yes"/>
      <point x="233.072" y="344.282"/>
      <point x="236.27" y="340.87"/>
      <point x="253.54" y="340.87" type="curve" smooth="yes"/>
      <point x="271.79200000000003" y="340.87"/>
      <point x="274.08" y="344.282"/>
      <point x="274.08" y="363.792" type="curve" smooth="yes"/>
      <point x="274.08" y="383.392"/>
      <point x="271.79200000000003" y="386.804"/>
      <point x="253.54" y="386.804" type="curve" smooth="yes"/>
      <point x="235.36" y="386.804"/>
      <point x="233.072" y="383.392"/>
    </contour>
    <component base="L"/>
  </outline>
</glyph>
<glyph name="ldot" format="2">
  <advance width="198.27000000000004"/>
  <unicode hex="0140"/>
  <outline>
    <contour>
      <point x="174.99" y="336.992" type="curve" smooth="yes"/>
      <point x="191.82" y="336.992"/>
      <point x="194.12599999999998" y="340.04400000000004"/>
      <point x="194.12599999999998" y="359.44599999999997" type="curve" smooth="yes"/>
      <point x="194.12599999999998" y="378.92"/>
      <point x="191.82" y="381.972"/>
      <point x="174.99" y="381.972" type="curve" smooth="yes"/>
      <point x="158.232" y="381.972"/>
      <point x="155.926" y="378.92"/>
      <point x="155.926" y="359.44599999999997" type="curve" smooth="yes"/>
      <point x="155.926" y="340.04400000000004"/>
      <point x="159.142" y="336.992"/>
    </contour>
    <component base="l"/>
  </outline>
</glyph>
<glyph name="Lslash" format="2">
  <advance width="370.50600000000003"/>
  <unicode hex="0141"/>
  <outline>
    <contour>
      <point x="22.599999999999998" y="205.7" type="line"/>
      <point x="78.778" y="251.86999999999998" type="line"/>
      <point x="78.778" y="0.0" type="line"/>
      <point x="360.966" y="0.0" type="line"/>
      <point x="360.966" y="34.608000000000004" type="line"/>
      <point x="115.41" y="34.608000000000004" type="line"/>
      <point x="115.41" y="275.976" type="line"/>
      <point x="280.35400000000004" y="407.90000000000003" type="line"/>
      <point x="280.35400000000004" y="447.828" type="line"/>
      <point x="115.41" y="316.63199999999995" type="line"/>
      <point x="115.41" y="700.0" type="line"/>
      <point x="78.778" y="700.0" type="line"/>
      <point x="78.778" y="292.526" type="line"/>
      <point x="22.599999999999998" y="246.356" type="line"/>
    </contour>
  </outline>
</glyph>
<glyph name="lslash" format="2">
  <advance width="191.21399999999997"/>
  <unicode hex="0142"/>
  <outline>
    <contour>
      <point x="137.962" y="-10.0" type="curve" smooth="yes"/>
      <point x="155.82399999999998" y="-10.0"/>
      <point x="175.254" y="-5.827999999999999"/>
      <point x="191.842" y="0.32800000000000007" type="curve"/>
      <point x="186.87" y="33.891999999999996" type="line"/>
      <point x="169.412" y="28.744"/>
      <point x="155.77400000000003" y="26.398"/>
      <point x="144.244" y="26.398" type="curve" smooth="yes"/>
      <point x="115.176" y="26.398"/>
      <point x="94.256" y="40.914"/>
      <point x="94.256" y="133.75799999999998" type="curve" smooth="yes"/>
      <point x="94.256" y="278.96" type="line"/>
      <point x="179.06" y="361.218" type="line"/>
      <point x="179.06" y="399.66" type="line"/>
      <point x="94.256" y="317.40200000000004" type="line"/>
      <point x="94.256" y="740.0" type="line"/>
      <point x="58.056000000000004" y="740.0" type="line"/>
      <point x="58.056000000000004" y="285.17199999999997" type="line"/>
      <point x="7.024000000000001" y="236.058" type="line"/>
      <point x="7.024000000000001" y="198.34400000000002" type="line"/>
      <point x="58.092" y="246.74800000000002" type="line"/>
      <point x="58.128" y="128.844" type="line" smooth="yes"/>
      <point x="58.434000000000005" y="12.296000000000001"/>
      <point x="88.18" y="-10.0"/>
    </contour>
  </outline>
</glyph>
<glyph name="Eng" format="2">
  <advance width="488.96000000000004"/>
  <unicode hex="014A"/>
  <outline>
    <contour>
      <point x="60.255" y="0.0" type="line"/>
      <point x="94.7" y="0.0" type="line"/>
      <point x="94.7" y="616.405" type="line"/>
      <point x="392.95500000000004" y="3.46" type="line"/>
      <point x="392.95500000000004" y="-12.280000000000001" type="line" smooth="yes"/>
      <point x="392.045" y="-89.435"/>
      <point x="348.97" y="-118.09"/>
      <point x="276.28499999999997" y="-118.09" type="curve" smooth="yes"/>
      <point x="259.83" y="-118.09"/>
      <point x="240.01" y="-115.725"/>
      <point x="224.975" y="-112.64" type="curve"/>
      <point x="220.915" y="-145.32" type="line"/>
      <point x="236.94" y="-149.625"/>
      <point x="259.23999999999995" y="-153.115"/>
      <point x="280.11" y="-153.115" type="curve" smooth="yes"/>
      <point x="386.59999999999997" y="-153.115"/>
      <point x="428.705" y="-98.31"/>
      <point x="428.705" y="-10.45" type="curve" smooth="yes"/>
      <point x="428.705" y="700.0" type="line"/>
      <point x="394.35" y="700.0" type="line"/>
      <point x="394.35" y="83.43499999999999" type="line"/>
      <point x="94.995" y="701.82" type="line"/>
      <point x="60.255" y="701.82" type="line"/>
    </contour>
  </outline>
</glyph>
<glyph name="eng" format="2">
  <advance width="398.61400000000003"/>
  <unicode hex="014B"/>
  <outline>
    <contour>
      <point x="341.818" y="13.35" type="curve"/>
      <point x="341.818" y="422.662" type="line" smooth="yes"/>
      <point x="341.818" y="504.932"/>
      <point x="298.108" y="541.8"/>
      <point x="231.044" y="541.8" type="curve" smooth="yes"/>
      <point x="179.282" y="541.8"/>
      <point x="134.35399999999998" y="524.564"/>
      <point x="91.43" y="500.75600000000003" type="curve"/>
      <point x="91.43" y="531.8" type="line"/>
      <point x="56.94" y="531.8" type="line"/>
      <point x="56.94" y="0.0" type="line"/>
      <point x="93.21199999999999" y="0.0" type="line"/>
      <point x="93.21199999999999" y="469.136" type="line"/>
      <point x="132.822" y="492.336"/>
      <point x="175.126" y="508.802"/>
      <point x="217.90200000000004" y="508.802" type="curve" smooth="yes"/>
      <point x="277.69200000000006" y="508.802"/>
      <point x="305.54600000000005" y="474.84999999999997"/>
      <point x="305.54600000000005" y="416.39799999999997" type="curve" smooth="yes"/>
      <point x="305.54600000000005" y="12.261999999999999" type="line" smooth="yes"/>
      <point x="305.54600000000005" y="-76.76199999999999"/>
      <point x="286.04200000000003" y="-134.702"/>
      <point x="250.602" y="-163.822" type="curve" smooth="yes"/>
      <point x="244.69199999999998" y="-168.554"/>
      <point x="238.494" y="-172.268"/>
      <point x="231.674" y="-175.07199999999997" type="curve"/>
      <point x="239.12800000000001" y="-208.77800000000002" type="line"/>
      <point x="249.098" y="-204.878"/>
      <point x="258.448" y="-199.61599999999999"/>
      <point x="267.758" y="-194.156" type="curve" smooth="yes"/>
      <point x="315.678" y="-160.85"/>
      <point x="341.818" y="-93.384"/>
    </contour>
  </outline>
</glyph>
<glyph name="OE" format="2">
  <advance width="706.1380000000001"/>
  <unicode hex="0152"/>
  <outline>
    <contour>
      <point x="686.855" y="0.0" type="line"/>
      <point x="686.855" y="35.39" type="line"/>
      <point x="410.57399999999996" y="35.39" type="line"/>
      <point x="410.57399999999996" y="347.955" type="line"/>
      <point x="654.0160000000001" y="347.955" type="line"/>
      <point x="654.0160000000001" y="382.80500000000006" type="line"/>
      <point x="410.57399999999996" y="382.80500000000006" type="line"/>
      <point x="410.57399999999996" y="664.4750000000001" type="line"/>
      <point x="672.974" y="664.4750000000001" type="line"/>
      <point x="672.974" y="700.0" type="line"/>
      <point x="406.92900000000003" y="700.0" type="line"/>
      <point x="360.15799999999996" y="703.5690000000001"/>
      <point x="309.242" y="705.614"/>
      <point x="266.079" y="705.614" type="curve" smooth="yes"/>
      <point x="134.336" y="705.614"/>
      <point x="38.45100000000001" y="647.7579999999999"/>
      <point x="38.45100000000001" y="351.524" type="curve" smooth="yes"/>
      <point x="38.45100000000001" y="59.726000000000006"/>
      <point x="137.477" y="-7.106"/>
      <point x="268.809" y="-7.106" type="curve" smooth="yes"/>
      <point x="312.779" y="-7.106"/>
      <point x="357.871" y="-4.405"/>
      <point x="410.52899999999994" y="0.0" type="curve"/>
    </contour>
    <contour>
      <point x="373.834" y="30.650999999999996" type="line"/>
      <point x="349.13899999999995" y="28.650999999999996"/>
      <point x="309.09" y="26.278"/>
      <point x="276.035" y="26.278" type="curve" smooth="yes"/>
      <point x="162.817" y="26.278"/>
      <point x="76.68599999999999" y="73.831"/>
      <point x="76.68599999999999" y="351.0" type="curve" smooth="yes"/>
      <point x="76.68599999999999" y="627.275"/>
      <point x="164.74" y="672.9309999999999"/>
      <point x="274.87100000000004" y="672.9309999999999" type="curve" smooth="yes"/>
      <point x="294.73900000000003" y="672.9309999999999"/>
      <point x="355.011" y="670.14"/>
      <point x="373.834" y="668.468" type="curve"/>
    </contour>
  </outline>
</glyph>
<glyph name="oe" format="2">
  <advance width="668.5840000000001"/>
  <unicode hex="0153"/>
  <outline>
    <contour>
      <point x="35.822" y="266.47200000000004" type="curve" smooth="yes"/>
      <point x="35.822" y="57.472"/>
      <point x="82.218" y="-10.0"/>
      <point x="198.224" y="-10.0" type="curve" smooth="yes"/>
      <point x="284.84400000000005" y="-10.0"/>
      <point x="322.58200000000005" y="30.178"/>
      <point x="341.63000000000005" y="117.928" type="curve"/>
      <point x="361.95199999999994" y="32.087999999999994"/>
      <point x="409.38" y="-10.0"/>
      <point x="488.732" y="-10.0" type="curve" smooth="yes"/>
      <point x="539.734" y="-10.0"/>
      <point x="592.044" y="-0.7300000000000002"/>
      <point x="629.1" y="12.404" type="curve"/>
      <point x="622.746" y="44.116" type="line"/>
      <point x="584.92" y="32.22"/>
      <point x="535.912" y="23.453999999999997"/>
      <point x="490.62600000000003" y="23.453999999999997" type="curve" smooth="yes"/>
      <point x="413.96599999999995" y="23.453999999999997"/>
      <point x="360.03599999999994" y="73.134"/>
      <point x="360.03599999999994" y="234.61599999999999" type="curve" smooth="yes"/>
      <point x="360.03599999999994" y="248.41"/>
      <point x="360.018" y="265.024"/>
      <point x="360.49999999999994" y="279.818" type="curve"/>
      <point x="493.342" y="280.268"/>
      <point x="595.944" y="291.376"/>
      <point x="637.718" y="296.34000000000003" type="curve"/>
      <point x="637.808" y="301.726"/>
      <point x="638.808" y="308.138"/>
      <point x="638.808" y="322.42600000000004" type="curve" smooth="yes"/>
      <point x="638.808" y="477.226"/>
      <point x="586.448" y="541.8"/>
      <point x="490.996" y="541.8" type="curve" smooth="yes"/>
      <point x="415.40799999999996" y="541.8"/>
      <point x="368.322" y="498.906"/>
      <point x="345.008" y="408.3" type="curve"/>
      <point x="325.848" y="498.928"/>
      <point x="288.786" y="541.8"/>
      <point x="198.224" y="541.8" type="curve" smooth="yes"/>
      <point x="78.7" y="541.8"/>
      <point x="35.822" y="472.47200000000004"/>
    </contour>
    <contour>
      <point x="72.616" y="266.454" type="curve" smooth="yes"/>
      <point x="72.616" y="452.58399999999995"/>
      <point x="105.506" y="509.96200000000005"/>
      <point x="198.206" y="509.96200000000005" type="curve" smooth="yes"/>
      <point x="290.352" y="509.96200000000005"/>
      <point x="323.296" y="452.58399999999995"/>
      <point x="323.296" y="266.454" type="curve" smooth="yes"/>
      <point x="323.296" y="77.914"/>
      <point x="287.55" y="21.91"/>
      <point x="198.206" y="21.91" type="curve" smooth="yes"/>
      <point x="108.79" y="21.91"/>
      <point x="72.616" y="77.914"/>
    </contour>
    <contour>
      <point x="360.94599999999997" y="306.476" type="curve"/>
      <point x="372.154" y="473.998"/>
      <point x="428.02799999999996" y="511.402"/>
      <point x="490.58200000000005" y="511.402" type="curve" smooth="yes"/>
      <point x="561.592" y="511.402"/>
      <point x="602.284" y="459.966"/>
      <point x="602.554" y="319.914" type="curve"/>
      <point x="575.666" y="314.792"/>
      <point x="469.90999999999997" y="306.494"/>
    </contour>
  </outline>
</glyph>
